<svg width="1920" height="1080" viewBox="0 0 1920 1080" fill="none" xmlns="http://www.w3.org/2000/svg">
<g clip-path="url(#clip0_1_3)">
<rect width="1920" height="1080" fill="white"/>
<rect width="1920" height="1080" fill="#5ACE43"/>
<g filter="url(#filter0_i_1_3)">
<path d="M2667.43 364.06C2708.84 374.517 2719.65 428.239 2685.31 452.945L1809.96 1082.7C1780.43 1103.95 1738.36 1087.24 1731.15 1051.4L1550.83 155.097C1543.62 119.259 1576.15 88.5205 1611.76 97.513L2667.43 364.06Z" fill="#FFAF38"/>
<path d="M692.478 736.197C658.137 760.903 668.945 814.624 710.36 825.081L1766.03 1091.63C1801.64 1100.62 1834.16 1069.88 1826.95 1034.04L1646.63 137.738C1639.42 101.899 1597.36 85.191 1567.82 106.437L692.478 736.197Z" fill="#FFAF38"/>
</g>
<g filter="url(#filter1_i_1_3)">
<path d="M143.7 257V152H158.25L222.45 237.95L220.05 239.3C219.65 236.8 219.3 234.1 219 231.2C218.7 228.2 218.4 225.05 218.1 221.75C217.9 218.35 217.7 214.8 217.5 211.1C217.4 207.3 217.3 203.35 217.2 199.25C217.1 195.15 217.05 190.9 217.05 186.5V152H233.25V257H218.4L155.25 174.2L156.9 172.1C157.4 178.2 157.8 183.4 158.1 187.7C158.5 191.9 158.8 195.5 159 198.5C159.3 201.4 159.5 203.8 159.6 205.7C159.7 207.5 159.75 209 159.75 210.2C159.85 211.4 159.9 212.45 159.9 213.35V257H143.7ZM306.595 258.5C299.195 258.5 292.345 257.15 286.045 254.45C279.845 251.75 274.395 248 269.695 243.2C265.095 238.3 261.495 232.6 258.895 226.1C256.395 219.5 255.145 212.3 255.145 204.5C255.145 196.7 256.395 189.55 258.895 183.05C261.495 176.45 265.095 170.75 269.695 165.95C274.395 161.05 279.845 157.25 286.045 154.55C292.345 151.85 299.195 150.5 306.595 150.5C313.995 150.5 320.795 151.85 326.995 154.55C333.295 157.25 338.745 161.05 343.345 165.95C348.045 170.85 351.645 176.6 354.145 183.2C356.745 189.7 358.045 196.8 358.045 204.5C358.045 212.2 356.745 219.35 354.145 225.95C351.645 232.45 348.045 238.15 343.345 243.05C338.745 247.95 333.295 251.75 326.995 254.45C320.795 257.15 313.995 258.5 306.595 258.5ZM306.595 242.75C311.695 242.75 316.345 241.8 320.545 239.9C324.845 238 328.545 235.35 331.645 231.95C334.745 228.45 337.145 224.4 338.845 219.8C340.645 215.1 341.545 210 341.545 204.5C341.545 199 340.645 193.95 338.845 189.35C337.145 184.65 334.745 180.6 331.645 177.2C328.545 173.7 324.845 171 320.545 169.1C316.345 167.2 311.695 166.25 306.595 166.25C301.495 166.25 296.795 167.2 292.495 169.1C288.295 171 284.595 173.65 281.395 177.05C278.295 180.45 275.895 184.5 274.195 189.2C272.495 193.8 271.645 198.9 271.645 204.5C271.645 210 272.495 215.1 274.195 219.8C275.895 224.5 278.295 228.55 281.395 231.95C284.595 235.35 288.295 238 292.495 239.9C296.795 241.8 301.495 242.75 306.595 242.75ZM412.379 258.5C406.679 258.5 401.379 257.75 396.479 256.25C391.679 254.75 387.279 252.5 383.279 249.5C379.379 246.4 375.879 242.6 372.779 238.1L383.879 225.35C388.779 232.35 393.479 237.2 397.979 239.9C402.479 242.6 407.829 243.95 414.029 243.95C417.829 243.95 421.279 243.35 424.379 242.15C427.479 240.95 429.929 239.3 431.729 237.2C433.529 235.1 434.429 232.7 434.429 230C434.429 228.2 434.129 226.5 433.529 224.9C432.929 223.3 431.979 221.85 430.679 220.55C429.479 219.25 427.879 218.05 425.879 216.95C423.979 215.85 421.729 214.9 419.129 214.1C416.529 213.2 413.529 212.45 410.129 211.85C404.729 210.75 400.029 209.3 396.029 207.5C392.029 205.7 388.679 203.45 385.979 200.75C383.279 198.05 381.279 195 379.979 191.6C378.679 188.1 378.029 184.2 378.029 179.9C378.029 175.7 378.929 171.8 380.729 168.2C382.629 164.6 385.179 161.5 388.379 158.9C391.679 156.2 395.529 154.15 399.929 152.75C404.329 151.25 409.079 150.5 414.179 150.5C419.579 150.5 424.529 151.2 429.029 152.6C433.529 154 437.529 156.1 441.029 158.9C444.529 161.6 447.429 164.95 449.729 168.95L438.329 180.2C436.329 176.9 434.079 174.15 431.579 171.95C429.079 169.65 426.329 167.95 423.329 166.85C420.329 165.65 417.129 165.05 413.729 165.05C409.829 165.05 406.429 165.65 403.529 166.85C400.629 168.05 398.329 169.75 396.629 171.95C395.029 174.05 394.229 176.55 394.229 179.45C394.229 181.55 394.629 183.5 395.429 185.3C396.229 187 397.429 188.55 399.029 189.95C400.729 191.25 402.979 192.45 405.779 193.55C408.579 194.55 411.929 195.45 415.829 196.25C421.329 197.45 426.229 199 430.529 200.9C434.829 202.7 438.479 204.85 441.479 207.35C444.479 209.85 446.729 212.65 448.229 215.75C449.829 218.85 450.629 222.2 450.629 225.8C450.629 232.5 449.079 238.3 445.979 243.2C442.879 248.1 438.479 251.9 432.779 254.6C427.079 257.2 420.279 258.5 412.379 258.5ZM505.983 258.5C500.283 258.5 494.983 257.75 490.083 256.25C485.283 254.75 480.883 252.5 476.883 249.5C472.983 246.4 469.483 242.6 466.383 238.1L477.483 225.35C482.383 232.35 487.083 237.2 491.583 239.9C496.083 242.6 501.433 243.95 507.633 243.95C511.433 243.95 514.883 243.35 517.983 242.15C521.083 240.95 523.533 239.3 525.333 237.2C527.133 235.1 528.033 232.7 528.033 230C528.033 228.2 527.733 226.5 527.133 224.9C526.533 223.3 525.583 221.85 524.283 220.55C523.083 219.25 521.483 218.05 519.483 216.95C517.583 215.85 515.333 214.9 512.733 214.1C510.133 213.2 507.133 212.45 503.733 211.85C498.333 210.75 493.633 209.3 489.633 207.5C485.633 205.7 482.283 203.45 479.583 200.75C476.883 198.05 474.883 195 473.583 191.6C472.283 188.1 471.633 184.2 471.633 179.9C471.633 175.7 472.533 171.8 474.333 168.2C476.233 164.6 478.783 161.5 481.983 158.9C485.283 156.2 489.133 154.15 493.533 152.75C497.933 151.25 502.683 150.5 507.783 150.5C513.183 150.5 518.133 151.2 522.633 152.6C527.133 154 531.133 156.1 534.633 158.9C538.133 161.6 541.033 164.95 543.333 168.95L531.933 180.2C529.933 176.9 527.683 174.15 525.183 171.95C522.683 169.65 519.933 167.95 516.933 166.85C513.933 165.65 510.733 165.05 507.333 165.05C503.433 165.05 500.033 165.65 497.133 166.85C494.233 168.05 491.933 169.75 490.233 171.95C488.633 174.05 487.833 176.55 487.833 179.45C487.833 181.55 488.233 183.5 489.033 185.3C489.833 187 491.033 188.55 492.633 189.95C494.333 191.25 496.583 192.45 499.383 193.55C502.183 194.55 505.533 195.45 509.433 196.25C514.933 197.45 519.833 199 524.133 200.9C528.433 202.7 532.083 204.85 535.083 207.35C538.083 209.85 540.333 212.65 541.833 215.75C543.433 218.85 544.233 222.2 544.233 225.8C544.233 232.5 542.683 238.3 539.583 243.2C536.483 248.1 532.083 251.9 526.383 254.6C520.683 257.2 513.883 258.5 505.983 258.5ZM611.136 258.5C603.736 258.5 596.886 257.15 590.586 254.45C584.386 251.75 578.936 248 574.236 243.2C569.636 238.3 566.036 232.6 563.436 226.1C560.936 219.5 559.686 212.3 559.686 204.5C559.686 196.7 560.936 189.55 563.436 183.05C566.036 176.45 569.636 170.75 574.236 165.95C578.936 161.05 584.386 157.25 590.586 154.55C596.886 151.85 603.736 150.5 611.136 150.5C618.536 150.5 625.336 151.85 631.536 154.55C637.836 157.25 643.286 161.05 647.886 165.95C652.586 170.85 656.186 176.6 658.686 183.2C661.286 189.7 662.586 196.8 662.586 204.5C662.586 212.2 661.286 219.35 658.686 225.95C656.186 232.45 652.586 238.15 647.886 243.05C643.286 247.95 637.836 251.75 631.536 254.45C625.336 257.15 618.536 258.5 611.136 258.5ZM611.136 242.75C616.236 242.75 620.886 241.8 625.086 239.9C629.386 238 633.086 235.35 636.186 231.95C639.286 228.45 641.686 224.4 643.386 219.8C645.186 215.1 646.086 210 646.086 204.5C646.086 199 645.186 193.95 643.386 189.35C641.686 184.65 639.286 180.6 636.186 177.2C633.086 173.7 629.386 171 625.086 169.1C620.886 167.2 616.236 166.25 611.136 166.25C606.036 166.25 601.336 167.2 597.036 169.1C592.836 171 589.136 173.65 585.936 177.05C582.836 180.45 580.436 184.5 578.736 189.2C577.036 193.8 576.186 198.9 576.186 204.5C576.186 210 577.036 215.1 578.736 219.8C580.436 224.5 582.836 228.55 585.936 231.95C589.136 235.35 592.836 238 597.036 239.9C601.336 241.8 606.036 242.75 611.136 242.75Z" fill="#05009B"/>
<path d="M725.061 257V152H750.561V257H725.061ZM736.911 216.8V195.5H791.211V216.8H736.911ZM736.911 174.5V152H797.361V174.5H736.911ZM864.318 258.5C856.318 258.5 849.018 257.15 842.418 254.45C835.818 251.75 830.068 247.95 825.168 243.05C820.268 238.15 816.468 232.4 813.768 225.8C811.068 219.2 809.718 211.95 809.718 204.05C809.718 196.15 811.068 188.9 813.768 182.3C816.468 175.7 820.268 169.95 825.168 165.05C830.068 160.15 835.818 156.35 842.418 153.65C849.018 150.95 856.268 149.6 864.168 149.6C872.068 149.6 879.318 150.95 885.918 153.65C892.518 156.35 898.268 160.15 903.168 165.05C908.068 169.95 911.818 175.7 914.418 182.3C917.118 188.9 918.468 196.15 918.468 204.05C918.468 211.85 917.118 219.1 914.418 225.8C911.818 232.4 908.068 238.15 903.168 243.05C898.268 247.95 892.518 251.75 885.918 254.45C879.318 257.15 872.118 258.5 864.318 258.5ZM864.168 234.5C868.268 234.5 872.018 233.75 875.418 232.25C878.918 230.75 881.918 228.65 884.418 225.95C887.018 223.15 889.018 219.9 890.418 216.2C891.818 212.5 892.518 208.45 892.518 204.05C892.518 199.65 891.818 195.6 890.418 191.9C889.018 188.2 887.018 185 884.418 182.3C881.918 179.5 878.918 177.35 875.418 175.85C872.018 174.35 868.268 173.6 864.168 173.6C860.068 173.6 856.268 174.35 852.768 175.85C849.368 177.35 846.368 179.5 843.768 182.3C841.168 185 839.168 188.2 837.768 191.9C836.468 195.6 835.818 199.65 835.818 204.05C835.818 208.45 836.468 212.55 837.768 216.35C839.168 220.05 841.168 223.25 843.768 225.95C846.368 228.65 849.368 230.75 852.768 232.25C856.268 233.75 860.068 234.5 864.168 234.5ZM850.818 144.8L845.268 132.8L876.618 115.55L884.868 133.1L850.818 144.8ZM938.196 257V152H985.446C992.146 152 998.196 153.45 1003.6 156.35C1009.1 159.25 1013.4 163.25 1016.5 168.35C1019.6 173.35 1021.15 179.05 1021.15 185.45C1021.15 192.05 1019.6 198 1016.5 203.3C1013.4 208.5 1009.15 212.6 1003.75 215.6C998.346 218.6 992.246 220.1 985.446 220.1H962.496V257H938.196ZM996.396 257L969.696 209.6L995.796 205.85L1025.5 257H996.396ZM962.496 200.6H983.196C985.796 200.6 988.046 200.05 989.946 198.95C991.946 197.75 993.446 196.1 994.446 194C995.546 191.9 996.096 189.5 996.096 186.8C996.096 184.1 995.496 181.75 994.296 179.75C993.096 177.65 991.346 176.05 989.046 174.95C986.846 173.85 984.146 173.3 980.946 173.3H962.496V200.6ZM1087.04 257.9C1078.34 257.9 1070.59 256.15 1063.79 252.65C1056.99 249.05 1051.64 244.15 1047.74 237.95C1043.94 231.75 1042.04 224.65 1042.04 216.65V152H1067.84V215.3C1067.84 219.1 1068.69 222.55 1070.39 225.65C1072.09 228.65 1074.39 231.05 1077.29 232.85C1080.19 234.55 1083.44 235.4 1087.04 235.4C1090.84 235.4 1094.19 234.55 1097.09 232.85C1100.09 231.05 1102.49 228.65 1104.29 225.65C1106.09 222.55 1106.99 219.1 1106.99 215.3V152H1131.89V216.65C1131.89 224.65 1129.94 231.75 1126.04 237.95C1122.24 244.15 1116.94 249.05 1110.14 252.65C1103.34 256.15 1095.64 257.9 1087.04 257.9ZM1157.48 257V152H1180.28L1218.53 214.25L1202.18 214.1L1240.88 152H1262.78V257H1238.03V224.3C1238.03 215.3 1238.23 207.2 1238.63 200C1239.13 192.8 1239.93 185.65 1241.03 178.55L1243.88 186.35L1214.78 231.5H1204.88L1176.38 186.65L1179.23 178.55C1180.33 185.25 1181.08 192.15 1181.48 199.25C1181.98 206.25 1182.23 214.6 1182.23 224.3V257H1157.48Z" fill="#FFAF38"/>
</g>
<path d="M153.13 410C151.963 410 151.123 409.417 150.61 408.25L129.82 359.6C129.307 358.293 129.26 357.267 129.68 356.52C130.147 355.727 130.94 355.33 132.06 355.33C133.227 355.33 134.067 355.913 134.58 357.08L153.9 403.28H152.36L171.61 357.22C171.89 356.52 172.24 356.03 172.66 355.75C173.08 355.47 173.64 355.33 174.34 355.33C175.413 355.33 176.137 355.75 176.51 356.59C176.883 357.383 176.86 358.293 176.44 359.32L155.58 408.25C155.3 408.903 154.95 409.37 154.53 409.65C154.11 409.883 153.643 410 153.13 410ZM194.043 410.35C190.263 410.35 186.903 409.533 183.963 407.9C181.069 406.22 178.783 403.91 177.103 400.97C175.469 398.03 174.653 394.67 174.653 390.89C174.653 387.063 175.423 383.703 176.963 380.81C178.549 377.87 180.719 375.56 183.473 373.88C186.226 372.2 189.399 371.36 192.993 371.36C196.539 371.36 199.619 372.177 202.233 373.81C204.893 375.397 206.946 377.613 208.393 380.46C209.839 383.307 210.563 386.55 210.563 390.19C210.563 390.937 210.329 391.543 209.863 392.01C209.396 392.43 208.789 392.64 208.043 392.64H178.293V388.16H208.603L205.593 390.33C205.639 387.623 205.149 385.197 204.123 383.05C203.096 380.903 201.626 379.223 199.713 378.01C197.846 376.797 195.606 376.19 192.993 376.19C190.333 376.19 187.999 376.82 185.993 378.08C183.986 379.34 182.423 381.09 181.303 383.33C180.229 385.523 179.693 388.043 179.693 390.89C179.693 393.737 180.299 396.257 181.513 398.45C182.773 400.643 184.476 402.37 186.623 403.63C188.769 404.89 191.243 405.52 194.043 405.52C195.723 405.52 197.403 405.24 199.083 404.68C200.809 404.073 202.186 403.327 203.213 402.44C203.726 402.02 204.309 401.81 204.963 401.81C205.616 401.763 206.176 401.927 206.643 402.3C207.249 402.86 207.553 403.467 207.553 404.12C207.599 404.773 207.343 405.333 206.783 405.8C205.243 407.107 203.283 408.203 200.903 409.09C198.523 409.93 196.236 410.35 194.043 410.35ZM252.511 410C251.718 410 251.064 409.743 250.551 409.23C250.038 408.717 249.781 408.087 249.781 407.34V389.14C249.781 386.247 249.221 383.867 248.101 382C247.028 380.133 245.534 378.733 243.621 377.8C241.754 376.867 239.631 376.4 237.251 376.4C234.964 376.4 232.888 376.843 231.021 377.73C229.201 378.617 227.754 379.83 226.681 381.37C225.608 382.91 225.071 384.66 225.071 386.62H221.221C221.314 383.68 222.108 381.067 223.601 378.78C225.094 376.447 227.078 374.627 229.551 373.32C232.024 371.967 234.778 371.29 237.811 371.29C241.124 371.29 244.088 371.99 246.701 373.39C249.314 374.743 251.368 376.75 252.861 379.41C254.401 382.07 255.171 385.313 255.171 389.14V407.34C255.171 408.087 254.914 408.717 254.401 409.23C253.888 409.743 253.258 410 252.511 410ZM222.411 410C221.571 410 220.894 409.767 220.381 409.3C219.914 408.787 219.681 408.133 219.681 407.34V374.44C219.681 373.6 219.914 372.947 220.381 372.48C220.894 371.967 221.571 371.71 222.411 371.71C223.204 371.71 223.834 371.967 224.301 372.48C224.814 372.947 225.071 373.6 225.071 374.44V407.34C225.071 408.133 224.814 408.787 224.301 409.3C223.834 409.767 223.204 410 222.411 410ZM269.784 394.39C268.944 394.39 268.267 394.133 267.754 393.62C267.287 393.107 267.054 392.453 267.054 391.66V358.06C267.054 357.22 267.287 356.567 267.754 356.1C268.267 355.587 268.944 355.33 269.784 355.33C270.577 355.33 271.207 355.587 271.674 356.1C272.187 356.567 272.444 357.22 272.444 358.06V391.66C272.444 392.453 272.187 393.107 271.674 393.62C271.207 394.133 270.577 394.39 269.784 394.39ZM299.884 410C299.091 410 298.437 409.743 297.924 409.23C297.411 408.717 297.154 408.087 297.154 407.34V389.14C297.154 386.247 296.594 383.867 295.474 382C294.401 380.133 292.907 378.733 290.994 377.8C289.127 376.867 287.004 376.4 284.624 376.4C282.337 376.4 280.261 376.843 278.394 377.73C276.574 378.617 275.127 379.83 274.054 381.37C272.981 382.91 272.444 384.66 272.444 386.62H268.594C268.687 383.68 269.481 381.067 270.974 378.78C272.467 376.447 274.451 374.627 276.924 373.32C279.397 371.967 282.151 371.29 285.184 371.29C288.497 371.29 291.461 371.99 294.074 373.39C296.687 374.743 298.741 376.75 300.234 379.41C301.774 382.07 302.544 385.313 302.544 389.14V407.34C302.544 408.087 302.287 408.717 301.774 409.23C301.261 409.743 300.631 410 299.884 410ZM269.784 410C268.944 410 268.267 409.767 267.754 409.3C267.287 408.787 267.054 408.133 267.054 407.34V374.44C267.054 373.6 267.287 372.947 267.754 372.48C268.267 371.967 268.944 371.71 269.784 371.71C270.577 371.71 271.207 371.967 271.674 372.48C272.187 372.947 272.444 373.6 272.444 374.44V407.34C272.444 408.133 272.187 408.787 271.674 409.3C271.207 409.767 270.577 410 269.784 410ZM331.297 410.35C327.704 410.35 324.484 409.51 321.637 407.83C318.79 406.103 316.527 403.77 314.847 400.83C313.214 397.89 312.397 394.577 312.397 390.89C312.397 387.157 313.237 383.82 314.917 380.88C316.644 377.94 318.977 375.63 321.917 373.95C324.857 372.223 328.17 371.36 331.857 371.36C335.544 371.36 338.834 372.223 341.727 373.95C344.667 375.63 346.977 377.94 348.657 380.88C350.384 383.82 351.27 387.157 351.317 390.89L349.147 392.57C349.147 395.93 348.354 398.963 346.767 401.67C345.227 404.33 343.104 406.453 340.397 408.04C337.737 409.58 334.704 410.35 331.297 410.35ZM331.857 405.45C334.564 405.45 336.967 404.82 339.067 403.56C341.214 402.3 342.894 400.573 344.107 398.38C345.367 396.14 345.997 393.643 345.997 390.89C345.997 388.09 345.367 385.593 344.107 383.4C342.894 381.207 341.214 379.48 339.067 378.22C336.967 376.913 334.564 376.26 331.857 376.26C329.197 376.26 326.794 376.913 324.647 378.22C322.5 379.48 320.797 381.207 319.537 383.4C318.277 385.593 317.647 388.09 317.647 390.89C317.647 393.643 318.277 396.14 319.537 398.38C320.797 400.573 322.5 402.3 324.647 403.56C326.794 404.82 329.197 405.45 331.857 405.45ZM348.587 410C347.794 410 347.14 409.767 346.627 409.3C346.114 408.787 345.857 408.133 345.857 407.34V395.37L347.187 389.84L351.317 390.89V407.34C351.317 408.133 351.06 408.787 350.547 409.3C350.034 409.767 349.38 410 348.587 410ZM399.178 410.35C395.584 410.35 392.364 409.51 389.518 407.83C386.671 406.103 384.408 403.77 382.728 400.83C381.094 397.89 380.278 394.577 380.278 390.89C380.278 387.157 381.118 383.82 382.798 380.88C384.524 377.94 386.858 375.63 389.798 373.95C392.738 372.223 396.051 371.36 399.738 371.36C403.424 371.36 406.714 372.223 409.608 373.95C412.548 375.63 414.858 377.94 416.538 380.88C418.264 383.82 419.151 387.157 419.198 390.89L417.028 392.57C417.028 395.93 416.234 398.963 414.648 401.67C413.108 404.33 410.984 406.453 408.278 408.04C405.618 409.58 402.584 410.35 399.178 410.35ZM399.738 405.45C402.444 405.45 404.848 404.82 406.948 403.56C409.094 402.3 410.774 400.573 411.988 398.38C413.248 396.14 413.878 393.643 413.878 390.89C413.878 388.09 413.248 385.593 411.988 383.4C410.774 381.207 409.094 379.48 406.948 378.22C404.848 376.913 402.444 376.26 399.738 376.26C397.078 376.26 394.674 376.913 392.528 378.22C390.381 379.48 388.678 381.207 387.418 383.4C386.158 385.593 385.528 388.09 385.528 390.89C385.528 393.643 386.158 396.14 387.418 398.38C388.678 400.573 390.381 402.3 392.528 403.56C394.674 404.82 397.078 405.45 399.738 405.45ZM416.468 410C415.674 410 415.021 409.767 414.508 409.3C413.994 408.787 413.738 408.133 413.738 407.34V395.37L415.068 389.84L419.198 390.89V407.34C419.198 408.133 418.941 408.787 418.428 409.3C417.914 409.767 417.261 410 416.468 410ZM432.411 426.38C431.571 426.38 430.894 426.123 430.381 425.61C429.914 425.143 429.681 424.49 429.681 423.65V390.61C429.728 386.97 430.591 383.703 432.271 380.81C433.998 377.87 436.308 375.56 439.201 373.88C442.141 372.2 445.431 371.36 449.071 371.36C452.804 371.36 456.141 372.223 459.081 373.95C462.021 375.63 464.331 377.94 466.011 380.88C467.738 383.82 468.601 387.157 468.601 390.89C468.601 394.577 467.761 397.89 466.081 400.83C464.448 403.77 462.208 406.103 459.361 407.83C456.514 409.51 453.294 410.35 449.701 410.35C446.574 410.35 443.728 409.697 441.161 408.39C438.641 407.037 436.611 405.263 435.071 403.07V423.65C435.071 424.49 434.814 425.143 434.301 425.61C433.834 426.123 433.204 426.38 432.411 426.38ZM449.071 405.45C451.778 405.45 454.204 404.82 456.351 403.56C458.498 402.3 460.178 400.573 461.391 398.38C462.651 396.14 463.281 393.643 463.281 390.89C463.281 388.09 462.651 385.593 461.391 383.4C460.178 381.207 458.498 379.48 456.351 378.22C454.204 376.913 451.778 376.26 449.071 376.26C446.411 376.26 444.008 376.913 441.861 378.22C439.714 379.48 438.034 381.207 436.821 383.4C435.608 385.593 435.001 388.09 435.001 390.89C435.001 393.643 435.608 396.14 436.821 398.38C438.034 400.573 439.714 402.3 441.861 403.56C444.008 404.82 446.411 405.45 449.071 405.45ZM481.413 386.41C481.553 383.517 482.3 380.927 483.653 378.64C485.053 376.353 486.85 374.557 489.043 373.25C491.283 371.943 493.756 371.29 496.463 371.29C498.61 371.29 500.266 371.593 501.433 372.2C502.6 372.807 503.043 373.693 502.763 374.86C502.576 375.56 502.25 376.027 501.783 376.26C501.363 376.493 500.826 376.587 500.173 376.54C499.566 376.493 498.866 376.447 498.073 376.4C495.46 376.167 493.126 376.447 491.073 377.24C489.066 377.987 487.456 379.153 486.243 380.74C485.076 382.327 484.493 384.217 484.493 386.41H481.413ZM481.833 410C480.993 410 480.34 409.767 479.873 409.3C479.406 408.833 479.173 408.18 479.173 407.34V374.37C479.173 373.53 479.406 372.877 479.873 372.41C480.34 371.943 480.993 371.71 481.833 371.71C482.673 371.71 483.326 371.943 483.793 372.41C484.26 372.877 484.493 373.53 484.493 374.37V407.34C484.493 408.18 484.26 408.833 483.793 409.3C483.326 409.767 482.673 410 481.833 410ZM525.791 410.35C522.011 410.35 518.651 409.533 515.711 407.9C512.818 406.22 510.531 403.91 508.851 400.97C507.218 398.03 506.401 394.67 506.401 390.89C506.401 387.063 507.171 383.703 508.711 380.81C510.298 377.87 512.468 375.56 515.221 373.88C517.974 372.2 521.148 371.36 524.741 371.36C528.288 371.36 531.368 372.177 533.981 373.81C536.641 375.397 538.694 377.613 540.141 380.46C541.588 383.307 542.311 386.55 542.311 390.19C542.311 390.937 542.078 391.543 541.611 392.01C541.144 392.43 540.538 392.64 539.791 392.64H510.041V388.16H540.351L537.341 390.33C537.388 387.623 536.898 385.197 535.871 383.05C534.844 380.903 533.374 379.223 531.461 378.01C529.594 376.797 527.354 376.19 524.741 376.19C522.081 376.19 519.748 376.82 517.741 378.08C515.734 379.34 514.171 381.09 513.051 383.33C511.978 385.523 511.441 388.043 511.441 390.89C511.441 393.737 512.048 396.257 513.261 398.45C514.521 400.643 516.224 402.37 518.371 403.63C520.518 404.89 522.991 405.52 525.791 405.52C527.471 405.52 529.151 405.24 530.831 404.68C532.558 404.073 533.934 403.327 534.961 402.44C535.474 402.02 536.058 401.81 536.711 401.81C537.364 401.763 537.924 401.927 538.391 402.3C538.998 402.86 539.301 403.467 539.301 404.12C539.348 404.773 539.091 405.333 538.531 405.8C536.991 407.107 535.031 408.203 532.651 409.09C530.271 409.93 527.984 410.35 525.791 410.35ZM584.259 410C583.466 410 582.812 409.743 582.299 409.23C581.786 408.717 581.529 408.087 581.529 407.34V389.14C581.529 386.247 580.969 383.867 579.849 382C578.776 380.133 577.282 378.733 575.369 377.8C573.502 376.867 571.379 376.4 568.999 376.4C566.712 376.4 564.636 376.843 562.769 377.73C560.949 378.617 559.502 379.83 558.429 381.37C557.356 382.91 556.819 384.66 556.819 386.62H552.969C553.062 383.68 553.856 381.067 555.349 378.78C556.842 376.447 558.826 374.627 561.299 373.32C563.772 371.967 566.526 371.29 569.559 371.29C572.872 371.29 575.836 371.99 578.449 373.39C581.062 374.743 583.116 376.75 584.609 379.41C586.149 382.07 586.919 385.313 586.919 389.14V407.34C586.919 408.087 586.662 408.717 586.149 409.23C585.636 409.743 585.006 410 584.259 410ZM554.159 410C553.319 410 552.642 409.767 552.129 409.3C551.662 408.787 551.429 408.133 551.429 407.34V374.44C551.429 373.6 551.662 372.947 552.129 372.48C552.642 371.967 553.319 371.71 554.159 371.71C554.952 371.71 555.582 371.967 556.049 372.48C556.562 372.947 556.819 373.6 556.819 374.44V407.34C556.819 408.133 556.562 408.787 556.049 409.3C555.582 409.767 554.952 410 554.159 410ZM616.232 410.35C612.545 410.35 609.232 409.51 606.292 407.83C603.352 406.103 601.019 403.77 599.292 400.83C597.612 397.89 596.772 394.553 596.772 390.82C596.772 387.133 597.589 383.82 599.222 380.88C600.902 377.94 603.165 375.63 606.012 373.95C608.859 372.223 612.079 371.36 615.672 371.36C618.799 371.36 621.622 372.037 624.142 373.39C626.662 374.697 628.692 376.447 630.232 378.64V358.06C630.232 357.22 630.489 356.567 631.002 356.1C631.515 355.587 632.169 355.33 632.962 355.33C633.755 355.33 634.409 355.587 634.922 356.1C635.435 356.567 635.692 357.22 635.692 358.06V391.1C635.599 394.74 634.689 398.03 632.962 400.97C631.282 403.863 628.972 406.15 626.032 407.83C623.139 409.51 619.872 410.35 616.232 410.35ZM616.232 405.45C618.939 405.45 621.342 404.82 623.442 403.56C625.589 402.253 627.269 400.503 628.482 398.31C629.742 396.117 630.372 393.62 630.372 390.82C630.372 388.067 629.742 385.593 628.482 383.4C627.269 381.16 625.589 379.41 623.442 378.15C621.342 376.89 618.939 376.26 616.232 376.26C613.572 376.26 611.169 376.89 609.022 378.15C606.875 379.41 605.172 381.16 603.912 383.4C602.652 385.593 602.022 388.067 602.022 390.82C602.022 393.62 602.652 396.117 603.912 398.31C605.172 400.503 606.875 402.253 609.022 403.56C611.169 404.82 613.572 405.45 616.232 405.45ZM665.654 410.35C661.874 410.35 658.514 409.533 655.574 407.9C652.681 406.22 650.394 403.91 648.714 400.97C647.081 398.03 646.264 394.67 646.264 390.89C646.264 387.063 647.034 383.703 648.574 380.81C650.161 377.87 652.331 375.56 655.084 373.88C657.837 372.2 661.011 371.36 664.604 371.36C668.151 371.36 671.231 372.177 673.844 373.81C676.504 375.397 678.557 377.613 680.004 380.46C681.451 383.307 682.174 386.55 682.174 390.19C682.174 390.937 681.941 391.543 681.474 392.01C681.007 392.43 680.401 392.64 679.654 392.64H649.904V388.16H680.214L677.204 390.33C677.251 387.623 676.761 385.197 675.734 383.05C674.707 380.903 673.237 379.223 671.324 378.01C669.457 376.797 667.217 376.19 664.604 376.19C661.944 376.19 659.611 376.82 657.604 378.08C655.597 379.34 654.034 381.09 652.914 383.33C651.841 385.523 651.304 388.043 651.304 390.89C651.304 393.737 651.911 396.257 653.124 398.45C654.384 400.643 656.087 402.37 658.234 403.63C660.381 404.89 662.854 405.52 665.654 405.52C667.334 405.52 669.014 405.24 670.694 404.68C672.421 404.073 673.797 403.327 674.824 402.44C675.337 402.02 675.921 401.81 676.574 401.81C677.227 401.763 677.787 401.927 678.254 402.3C678.861 402.86 679.164 403.467 679.164 404.12C679.211 404.773 678.954 405.333 678.394 405.8C676.854 407.107 674.894 408.203 672.514 409.09C670.134 409.93 667.847 410.35 665.654 410.35ZM693.532 386.41C693.672 383.517 694.419 380.927 695.772 378.64C697.172 376.353 698.969 374.557 701.162 373.25C703.402 371.943 705.876 371.29 708.582 371.29C710.729 371.29 712.386 371.593 713.552 372.2C714.719 372.807 715.162 373.693 714.882 374.86C714.696 375.56 714.369 376.027 713.902 376.26C713.482 376.493 712.946 376.587 712.292 376.54C711.686 376.493 710.986 376.447 710.192 376.4C707.579 376.167 705.246 376.447 703.192 377.24C701.186 377.987 699.576 379.153 698.362 380.74C697.196 382.327 696.612 384.217 696.612 386.41H693.532ZM693.952 410C693.112 410 692.459 409.767 691.992 409.3C691.526 408.833 691.292 408.18 691.292 407.34V374.37C691.292 373.53 691.526 372.877 691.992 372.41C692.459 371.943 693.112 371.71 693.952 371.71C694.792 371.71 695.446 371.943 695.912 372.41C696.379 372.877 696.612 373.53 696.612 374.37V407.34C696.612 408.18 696.379 408.833 695.912 409.3C695.446 409.767 694.792 410 693.952 410ZM761.221 410.35C757.441 410.35 754.081 409.533 751.141 407.9C748.247 406.22 745.961 403.91 744.281 400.97C742.647 398.03 741.831 394.67 741.831 390.89C741.831 387.063 742.601 383.703 744.141 380.81C745.727 377.87 747.897 375.56 750.651 373.88C753.404 372.2 756.577 371.36 760.171 371.36C763.717 371.36 766.797 372.177 769.411 373.81C772.071 375.397 774.124 377.613 775.571 380.46C777.017 383.307 777.741 386.55 777.741 390.19C777.741 390.937 777.507 391.543 777.041 392.01C776.574 392.43 775.967 392.64 775.221 392.64H745.471V388.16H775.781L772.771 390.33C772.817 387.623 772.327 385.197 771.301 383.05C770.274 380.903 768.804 379.223 766.891 378.01C765.024 376.797 762.784 376.19 760.171 376.19C757.511 376.19 755.177 376.82 753.171 378.08C751.164 379.34 749.601 381.09 748.481 383.33C747.407 385.523 746.871 388.043 746.871 390.89C746.871 393.737 747.477 396.257 748.691 398.45C749.951 400.643 751.654 402.37 753.801 403.63C755.947 404.89 758.421 405.52 761.221 405.52C762.901 405.52 764.581 405.24 766.261 404.68C767.987 404.073 769.364 403.327 770.391 402.44C770.904 402.02 771.487 401.81 772.141 401.81C772.794 401.763 773.354 401.927 773.821 402.3C774.427 402.86 774.731 403.467 774.731 404.12C774.777 404.773 774.521 405.333 773.961 405.8C772.421 407.107 770.461 408.203 768.081 409.09C765.701 409.93 763.414 410.35 761.221 410.35ZM824.796 410.35C821.11 410.35 817.796 409.51 814.856 407.83C811.916 406.103 809.583 403.77 807.856 400.83C806.176 397.89 805.336 394.553 805.336 390.82C805.336 387.133 806.153 383.82 807.786 380.88C809.466 377.94 811.73 375.63 814.576 373.95C817.423 372.223 820.643 371.36 824.236 371.36C827.363 371.36 830.186 372.037 832.706 373.39C835.226 374.697 837.256 376.447 838.796 378.64V358.06C838.796 357.22 839.053 356.567 839.566 356.1C840.08 355.587 840.733 355.33 841.526 355.33C842.32 355.33 842.973 355.587 843.486 356.1C844 356.567 844.256 357.22 844.256 358.06V391.1C844.163 394.74 843.253 398.03 841.526 400.97C839.846 403.863 837.536 406.15 834.596 407.83C831.703 409.51 828.436 410.35 824.796 410.35ZM824.796 405.45C827.503 405.45 829.906 404.82 832.006 403.56C834.153 402.253 835.833 400.503 837.046 398.31C838.306 396.117 838.936 393.62 838.936 390.82C838.936 388.067 838.306 385.593 837.046 383.4C835.833 381.16 834.153 379.41 832.006 378.15C829.906 376.89 827.503 376.26 824.796 376.26C822.136 376.26 819.733 376.89 817.586 378.15C815.44 379.41 813.736 381.16 812.476 383.4C811.216 385.593 810.586 388.067 810.586 390.82C810.586 393.62 811.216 396.117 812.476 398.31C813.736 400.503 815.44 402.253 817.586 403.56C819.733 404.82 822.136 405.45 824.796 405.45ZM860.709 410C859.869 410 859.192 409.767 858.679 409.3C858.212 408.787 857.979 408.11 857.979 407.27V374.44C857.979 373.6 858.212 372.947 858.679 372.48C859.192 371.967 859.869 371.71 860.709 371.71C861.502 371.71 862.132 371.967 862.599 372.48C863.112 372.947 863.369 373.6 863.369 374.44V407.27C863.369 408.11 863.112 408.787 862.599 409.3C862.132 409.767 861.502 410 860.709 410ZM860.639 364.43C859.612 364.43 858.725 364.057 857.979 363.31C857.232 362.563 856.859 361.653 856.859 360.58C856.859 359.413 857.232 358.503 857.979 357.85C858.772 357.15 859.682 356.8 860.709 356.8C861.689 356.8 862.552 357.15 863.299 357.85C864.092 358.503 864.489 359.413 864.489 360.58C864.489 361.653 864.115 362.563 863.369 363.31C862.622 364.057 861.712 364.43 860.639 364.43ZM890.463 410.35C887.71 410.35 884.98 409.883 882.273 408.95C879.566 408.017 877.373 406.617 875.693 404.75C875.18 404.19 874.97 403.56 875.063 402.86C875.156 402.16 875.506 401.553 876.113 401.04C876.766 400.573 877.443 400.387 878.143 400.48C878.843 400.573 879.426 400.877 879.893 401.39C881.013 402.697 882.483 403.7 884.303 404.4C886.17 405.1 888.223 405.45 890.463 405.45C893.916 405.45 896.413 404.867 897.953 403.7C899.493 402.487 900.286 401.04 900.333 399.36C900.333 397.68 899.54 396.303 897.953 395.23C896.366 394.11 893.753 393.247 890.113 392.64C885.4 391.893 881.946 390.587 879.753 388.72C877.56 386.853 876.463 384.637 876.463 382.07C876.463 379.69 877.093 377.707 878.353 376.12C879.613 374.533 881.293 373.343 883.393 372.55C885.493 371.757 887.803 371.36 890.323 371.36C893.45 371.36 896.133 371.897 898.373 372.97C900.66 374.043 902.503 375.49 903.903 377.31C904.37 377.917 904.556 378.547 904.463 379.2C904.37 379.853 903.996 380.39 903.343 380.81C902.783 381.137 902.13 381.253 901.383 381.16C900.683 381.02 900.076 380.67 899.563 380.11C898.396 378.757 897.043 377.777 895.503 377.17C893.963 376.517 892.19 376.19 890.183 376.19C887.616 376.19 885.563 376.727 884.023 377.8C882.483 378.827 881.713 380.133 881.713 381.72C881.713 382.793 881.993 383.727 882.553 384.52C883.16 385.313 884.163 386.013 885.563 386.62C887.01 387.227 889.016 387.74 891.583 388.16C895.083 388.72 897.836 389.56 899.843 390.68C901.896 391.753 903.343 393.037 904.183 394.53C905.07 395.977 905.513 397.563 905.513 399.29C905.513 401.483 904.86 403.42 903.553 405.1C902.293 406.733 900.52 408.017 898.233 408.95C895.993 409.883 893.403 410.35 890.463 410.35ZM931.907 410.35C928.221 410.35 924.931 409.51 922.037 407.83C919.191 406.103 916.927 403.77 915.247 400.83C913.614 397.89 912.797 394.577 912.797 390.89C912.797 387.157 913.591 383.82 915.177 380.88C916.764 377.94 918.934 375.63 921.687 373.95C924.441 372.223 927.614 371.36 931.207 371.36C934.054 371.36 936.667 371.92 939.047 373.04C941.474 374.16 943.597 375.84 945.417 378.08C945.931 378.64 946.117 379.247 945.977 379.9C945.837 380.507 945.441 381.043 944.787 381.51C944.274 381.883 943.691 382.023 943.037 381.93C942.431 381.79 941.894 381.44 941.427 380.88C938.721 377.8 935.314 376.26 931.207 376.26C928.594 376.26 926.284 376.89 924.277 378.15C922.317 379.41 920.777 381.137 919.657 383.33C918.584 385.523 918.047 388.043 918.047 390.89C918.047 393.69 918.631 396.187 919.797 398.38C920.964 400.573 922.597 402.3 924.697 403.56C926.797 404.82 929.201 405.45 931.907 405.45C933.727 405.45 935.384 405.217 936.877 404.75C938.417 404.237 939.771 403.467 940.937 402.44C941.497 401.973 942.081 401.717 942.687 401.67C943.294 401.623 943.854 401.81 944.367 402.23C944.927 402.743 945.231 403.327 945.277 403.98C945.371 404.633 945.161 405.193 944.647 405.66C941.241 408.787 936.994 410.35 931.907 410.35ZM973.118 410.42C969.805 410.42 966.842 409.743 964.228 408.39C961.615 406.99 959.538 404.96 957.998 402.3C956.505 399.64 955.758 396.397 955.758 392.57V374.37C955.758 373.623 956.015 372.993 956.528 372.48C957.042 371.967 957.672 371.71 958.418 371.71C959.212 371.71 959.865 371.967 960.378 372.48C960.892 372.993 961.148 373.623 961.148 374.37V392.57C961.148 395.463 961.685 397.843 962.758 399.71C963.878 401.577 965.372 402.977 967.238 403.91C969.152 404.843 971.298 405.31 973.678 405.31C975.965 405.31 978.018 404.867 979.838 403.98C981.705 403.093 983.175 401.88 984.248 400.34C985.322 398.8 985.858 397.05 985.858 395.09H989.708C989.568 398.03 988.752 400.667 987.258 403C985.812 405.287 983.852 407.107 981.378 408.46C978.905 409.767 976.152 410.42 973.118 410.42ZM988.518 410C987.725 410 987.072 409.767 986.558 409.3C986.092 408.787 985.858 408.11 985.858 407.27V374.37C985.858 373.577 986.092 372.947 986.558 372.48C987.072 371.967 987.725 371.71 988.518 371.71C989.312 371.71 989.965 371.967 990.478 372.48C990.992 372.947 991.248 373.577 991.248 374.37V407.27C991.248 408.11 990.992 408.787 990.478 409.3C989.965 409.767 989.312 410 988.518 410ZM1018.81 410C1016.34 410 1014.12 409.417 1012.16 408.25C1010.25 407.083 1008.73 405.497 1007.61 403.49C1006.49 401.437 1005.93 399.103 1005.93 396.49V362.26C1005.93 361.467 1006.16 360.813 1006.63 360.3C1007.14 359.787 1007.8 359.53 1008.59 359.53C1009.38 359.53 1010.04 359.787 1010.55 360.3C1011.06 360.813 1011.32 361.467 1011.32 362.26V396.49C1011.32 398.87 1012.02 400.83 1013.42 402.37C1014.82 403.863 1016.62 404.61 1018.81 404.61H1020.7C1021.45 404.61 1022.05 404.867 1022.52 405.38C1022.99 405.893 1023.22 406.547 1023.22 407.34C1023.22 408.133 1022.94 408.787 1022.38 409.3C1021.82 409.767 1021.12 410 1020.28 410H1018.81ZM1001.38 377.8C1000.68 377.8 1000.1 377.59 999.631 377.17C999.165 376.703 998.931 376.143 998.931 375.49C998.931 374.79 999.165 374.23 999.631 373.81C1000.1 373.343 1000.68 373.11 1001.38 373.11H1019.23C1019.93 373.11 1020.51 373.343 1020.98 373.81C1021.45 374.23 1021.68 374.79 1021.68 375.49C1021.68 376.143 1021.45 376.703 1020.98 377.17C1020.51 377.59 1019.93 377.8 1019.23 377.8H1001.38ZM1035.85 410C1035.01 410 1034.33 409.767 1033.82 409.3C1033.35 408.787 1033.12 408.11 1033.12 407.27V374.44C1033.12 373.6 1033.35 372.947 1033.82 372.48C1034.33 371.967 1035.01 371.71 1035.85 371.71C1036.64 371.71 1037.27 371.967 1037.74 372.48C1038.25 372.947 1038.51 373.6 1038.51 374.44V407.27C1038.51 408.11 1038.25 408.787 1037.74 409.3C1037.27 409.767 1036.64 410 1035.85 410ZM1035.78 364.43C1034.75 364.43 1033.86 364.057 1033.12 363.31C1032.37 362.563 1032 361.653 1032 360.58C1032 359.413 1032.37 358.503 1033.12 357.85C1033.91 357.15 1034.82 356.8 1035.85 356.8C1036.83 356.8 1037.69 357.15 1038.44 357.85C1039.23 358.503 1039.63 359.413 1039.63 360.58C1039.63 361.653 1039.25 362.563 1038.51 363.31C1037.76 364.057 1036.85 364.43 1035.78 364.43ZM1054.47 386.41C1054.61 383.517 1055.36 380.927 1056.71 378.64C1058.11 376.353 1059.91 374.557 1062.1 373.25C1064.34 371.943 1066.81 371.29 1069.52 371.29C1071.67 371.29 1073.32 371.593 1074.49 372.2C1075.66 372.807 1076.1 373.693 1075.82 374.86C1075.63 375.56 1075.31 376.027 1074.84 376.26C1074.42 376.493 1073.88 376.587 1073.23 376.54C1072.62 376.493 1071.92 376.447 1071.13 376.4C1068.52 376.167 1066.18 376.447 1064.13 377.24C1062.12 377.987 1060.51 379.153 1059.3 380.74C1058.13 382.327 1057.55 384.217 1057.55 386.41H1054.47ZM1054.89 410C1054.05 410 1053.4 409.767 1052.93 409.3C1052.46 408.833 1052.23 408.18 1052.23 407.34V374.37C1052.23 373.53 1052.46 372.877 1052.93 372.41C1053.4 371.943 1054.05 371.71 1054.89 371.71C1055.73 371.71 1056.38 371.943 1056.85 372.41C1057.32 372.877 1057.55 373.53 1057.55 374.37V407.34C1057.55 408.18 1057.32 408.833 1056.85 409.3C1056.38 409.767 1055.73 410 1054.89 410ZM151.38 488.35C147.693 488.35 144.403 487.51 141.51 485.83C138.663 484.103 136.4 481.77 134.72 478.83C133.087 475.89 132.27 472.577 132.27 468.89C132.27 465.157 133.063 461.82 134.65 458.88C136.237 455.94 138.407 453.63 141.16 451.95C143.913 450.223 147.087 449.36 150.68 449.36C153.527 449.36 156.14 449.92 158.52 451.04C160.947 452.16 163.07 453.84 164.89 456.08C165.403 456.64 165.59 457.247 165.45 457.9C165.31 458.507 164.913 459.043 164.26 459.51C163.747 459.883 163.163 460.023 162.51 459.93C161.903 459.79 161.367 459.44 160.9 458.88C158.193 455.8 154.787 454.26 150.68 454.26C148.067 454.26 145.757 454.89 143.75 456.15C141.79 457.41 140.25 459.137 139.13 461.33C138.057 463.523 137.52 466.043 137.52 468.89C137.52 471.69 138.103 474.187 139.27 476.38C140.437 478.573 142.07 480.3 144.17 481.56C146.27 482.82 148.673 483.45 151.38 483.45C153.2 483.45 154.857 483.217 156.35 482.75C157.89 482.237 159.243 481.467 160.41 480.44C160.97 479.973 161.553 479.717 162.16 479.67C162.767 479.623 163.327 479.81 163.84 480.23C164.4 480.743 164.703 481.327 164.75 481.98C164.843 482.633 164.633 483.193 164.12 483.66C160.713 486.787 156.467 488.35 151.38 488.35ZM193.361 488.35C189.628 488.35 186.291 487.51 183.351 485.83C180.411 484.15 178.101 481.84 176.421 478.9C174.741 475.96 173.901 472.623 173.901 468.89C173.901 465.11 174.741 461.75 176.421 458.81C178.101 455.87 180.411 453.56 183.351 451.88C186.291 450.2 189.628 449.36 193.361 449.36C197.094 449.36 200.408 450.2 203.301 451.88C206.241 453.56 208.551 455.87 210.231 458.81C211.911 461.75 212.774 465.11 212.821 468.89C212.821 472.623 211.958 475.96 210.231 478.9C208.551 481.84 206.241 484.15 203.301 485.83C200.408 487.51 197.094 488.35 193.361 488.35ZM193.361 483.45C196.068 483.45 198.494 482.82 200.641 481.56C202.788 480.3 204.468 478.573 205.681 476.38C206.894 474.187 207.501 471.69 207.501 468.89C207.501 466.09 206.894 463.593 205.681 461.4C204.468 459.16 202.788 457.41 200.641 456.15C198.494 454.89 196.068 454.26 193.361 454.26C190.654 454.26 188.228 454.89 186.081 456.15C183.934 457.41 182.231 459.16 180.971 461.4C179.758 463.593 179.151 466.09 179.151 468.89C179.151 471.69 179.758 474.187 180.971 476.38C182.231 478.573 183.934 480.3 186.081 481.56C188.228 482.82 190.654 483.45 193.361 483.45ZM256.134 488C255.341 488 254.687 487.743 254.174 487.23C253.661 486.717 253.404 486.087 253.404 485.34V467.14C253.404 464.247 252.844 461.867 251.724 460C250.651 458.133 249.157 456.733 247.244 455.8C245.377 454.867 243.254 454.4 240.874 454.4C238.587 454.4 236.511 454.843 234.644 455.73C232.824 456.617 231.377 457.83 230.304 459.37C229.231 460.91 228.694 462.66 228.694 464.62H224.844C224.937 461.68 225.731 459.067 227.224 456.78C228.717 454.447 230.701 452.627 233.174 451.32C235.647 449.967 238.401 449.29 241.434 449.29C244.747 449.29 247.711 449.99 250.324 451.39C252.937 452.743 254.991 454.75 256.484 457.41C258.024 460.07 258.794 463.313 258.794 467.14V485.34C258.794 486.087 258.537 486.717 258.024 487.23C257.511 487.743 256.881 488 256.134 488ZM226.034 488C225.194 488 224.517 487.767 224.004 487.3C223.537 486.787 223.304 486.133 223.304 485.34V452.44C223.304 451.6 223.537 450.947 224.004 450.48C224.517 449.967 225.194 449.71 226.034 449.71C226.827 449.71 227.457 449.967 227.924 450.48C228.437 450.947 228.694 451.6 228.694 452.44V485.34C228.694 486.133 228.437 486.787 227.924 487.3C227.457 487.767 226.827 488 226.034 488ZM288.107 488.35C284.374 488.35 281.037 487.51 278.097 485.83C275.157 484.15 272.847 481.84 271.167 478.9C269.487 475.96 268.647 472.623 268.647 468.89C268.647 465.11 269.487 461.75 271.167 458.81C272.847 455.87 275.157 453.56 278.097 451.88C281.037 450.2 284.374 449.36 288.107 449.36C291.84 449.36 295.154 450.2 298.047 451.88C300.987 453.56 303.297 455.87 304.977 458.81C306.657 461.75 307.52 465.11 307.567 468.89C307.567 472.623 306.704 475.96 304.977 478.9C303.297 481.84 300.987 484.15 298.047 485.83C295.154 487.51 291.84 488.35 288.107 488.35ZM288.107 483.45C290.814 483.45 293.24 482.82 295.387 481.56C297.534 480.3 299.214 478.573 300.427 476.38C301.64 474.187 302.247 471.69 302.247 468.89C302.247 466.09 301.64 463.593 300.427 461.4C299.214 459.16 297.534 457.41 295.387 456.15C293.24 454.89 290.814 454.26 288.107 454.26C285.4 454.26 282.974 454.89 280.827 456.15C278.68 457.41 276.977 459.16 275.717 461.4C274.504 463.593 273.897 466.09 273.897 468.89C273.897 471.69 274.504 474.187 275.717 476.38C276.977 478.573 278.68 480.3 280.827 481.56C282.974 482.82 285.4 483.45 288.107 483.45ZM331.42 488.35C328.667 488.35 325.937 487.883 323.23 486.95C320.523 486.017 318.33 484.617 316.65 482.75C316.137 482.19 315.927 481.56 316.02 480.86C316.113 480.16 316.463 479.553 317.07 479.04C317.723 478.573 318.4 478.387 319.1 478.48C319.8 478.573 320.383 478.877 320.85 479.39C321.97 480.697 323.44 481.7 325.26 482.4C327.127 483.1 329.18 483.45 331.42 483.45C334.873 483.45 337.37 482.867 338.91 481.7C340.45 480.487 341.243 479.04 341.29 477.36C341.29 475.68 340.497 474.303 338.91 473.23C337.323 472.11 334.71 471.247 331.07 470.64C326.357 469.893 322.903 468.587 320.71 466.72C318.517 464.853 317.42 462.637 317.42 460.07C317.42 457.69 318.05 455.707 319.31 454.12C320.57 452.533 322.25 451.343 324.35 450.55C326.45 449.757 328.76 449.36 331.28 449.36C334.407 449.36 337.09 449.897 339.33 450.97C341.617 452.043 343.46 453.49 344.86 455.31C345.327 455.917 345.513 456.547 345.42 457.2C345.327 457.853 344.953 458.39 344.3 458.81C343.74 459.137 343.087 459.253 342.34 459.16C341.64 459.02 341.033 458.67 340.52 458.11C339.353 456.757 338 455.777 336.46 455.17C334.92 454.517 333.147 454.19 331.14 454.19C328.573 454.19 326.52 454.727 324.98 455.8C323.44 456.827 322.67 458.133 322.67 459.72C322.67 460.793 322.95 461.727 323.51 462.52C324.117 463.313 325.12 464.013 326.52 464.62C327.967 465.227 329.973 465.74 332.54 466.16C336.04 466.72 338.793 467.56 340.8 468.68C342.853 469.753 344.3 471.037 345.14 472.53C346.027 473.977 346.47 475.563 346.47 477.29C346.47 479.483 345.817 481.42 344.51 483.1C343.25 484.733 341.477 486.017 339.19 486.95C336.95 487.883 334.36 488.35 331.42 488.35ZM372.864 488.35C369.178 488.35 365.888 487.51 362.994 485.83C360.148 484.103 357.884 481.77 356.204 478.83C354.571 475.89 353.754 472.577 353.754 468.89C353.754 465.157 354.548 461.82 356.134 458.88C357.721 455.94 359.891 453.63 362.644 451.95C365.398 450.223 368.571 449.36 372.164 449.36C375.011 449.36 377.624 449.92 380.004 451.04C382.431 452.16 384.554 453.84 386.374 456.08C386.888 456.64 387.074 457.247 386.934 457.9C386.794 458.507 386.398 459.043 385.744 459.51C385.231 459.883 384.648 460.023 383.994 459.93C383.388 459.79 382.851 459.44 382.384 458.88C379.678 455.8 376.271 454.26 372.164 454.26C369.551 454.26 367.241 454.89 365.234 456.15C363.274 457.41 361.734 459.137 360.614 461.33C359.541 463.523 359.004 466.043 359.004 468.89C359.004 471.69 359.588 474.187 360.754 476.38C361.921 478.573 363.554 480.3 365.654 481.56C367.754 482.82 370.158 483.45 372.864 483.45C374.684 483.45 376.341 483.217 377.834 482.75C379.374 482.237 380.728 481.467 381.894 480.44C382.454 479.973 383.038 479.717 383.644 479.67C384.251 479.623 384.811 479.81 385.324 480.23C385.884 480.743 386.188 481.327 386.234 481.98C386.328 482.633 386.118 483.193 385.604 483.66C382.198 486.787 377.951 488.35 372.864 488.35ZM414.845 488.35C411.112 488.35 407.775 487.51 404.835 485.83C401.895 484.15 399.585 481.84 397.905 478.9C396.225 475.96 395.385 472.623 395.385 468.89C395.385 465.11 396.225 461.75 397.905 458.81C399.585 455.87 401.895 453.56 404.835 451.88C407.775 450.2 411.112 449.36 414.845 449.36C418.579 449.36 421.892 450.2 424.785 451.88C427.725 453.56 430.035 455.87 431.715 458.81C433.395 461.75 434.259 465.11 434.305 468.89C434.305 472.623 433.442 475.96 431.715 478.9C430.035 481.84 427.725 484.15 424.785 485.83C421.892 487.51 418.579 488.35 414.845 488.35ZM414.845 483.45C417.552 483.45 419.979 482.82 422.125 481.56C424.272 480.3 425.952 478.573 427.165 476.38C428.379 474.187 428.985 471.69 428.985 468.89C428.985 466.09 428.379 463.593 427.165 461.4C425.952 459.16 424.272 457.41 422.125 456.15C419.979 454.89 417.552 454.26 414.845 454.26C412.139 454.26 409.712 454.89 407.565 456.15C405.419 457.41 403.715 459.16 402.455 461.4C401.242 463.593 400.635 466.09 400.635 468.89C400.635 471.69 401.242 474.187 402.455 476.38C403.715 478.573 405.419 480.3 407.565 481.56C409.712 482.82 412.139 483.45 414.845 483.45Z" fill="#05009B"/>
<g filter="url(#filter2_d_1_3)">
<path d="M244.423 978.4C242.263 978.4 240.236 977.987 238.343 977.16C236.476 976.333 234.823 975.187 233.383 973.72C231.969 972.227 230.863 970.52 230.063 968.6C229.263 966.653 228.863 964.573 228.863 962.36C228.863 960.173 229.249 958.12 230.023 956.2C230.823 954.253 231.929 952.547 233.343 951.08C234.783 949.613 236.436 948.467 238.303 947.64C240.196 946.787 242.236 946.36 244.423 946.36C246.343 946.36 248.089 946.64 249.663 947.2C251.236 947.76 252.756 948.653 254.223 949.88C254.463 950.067 254.596 950.293 254.623 950.56C254.676 950.8 254.649 951.04 254.543 951.28C254.436 951.493 254.276 951.653 254.063 951.76C254.009 951.973 253.876 952.133 253.663 952.24C253.449 952.347 253.196 952.387 252.903 952.36C252.636 952.333 252.369 952.213 252.103 952C251.063 951.093 249.929 950.427 248.703 950C247.476 949.547 246.049 949.32 244.423 949.32C242.689 949.32 241.063 949.667 239.543 950.36C238.049 951.053 236.729 952 235.583 953.2C234.436 954.4 233.529 955.787 232.863 957.36C232.223 958.933 231.903 960.6 231.903 962.36C231.903 964.173 232.223 965.867 232.863 967.44C233.529 969.013 234.436 970.4 235.583 971.6C236.729 972.8 238.049 973.747 239.543 974.44C241.063 975.107 242.689 975.44 244.423 975.44C245.889 975.44 247.276 975.2 248.583 974.72C249.889 974.24 251.129 973.547 252.303 972.64C252.623 972.373 252.956 972.267 253.303 972.32C253.676 972.373 253.996 972.533 254.263 972.8C254.529 973.067 254.663 973.413 254.663 973.84C254.663 974.053 254.623 974.253 254.543 974.44C254.489 974.6 254.383 974.773 254.223 974.96C252.863 976.213 251.343 977.107 249.663 977.64C247.983 978.147 246.236 978.4 244.423 978.4ZM269.044 978.2C266.911 978.2 265.004 977.72 263.324 976.76C261.644 975.8 260.324 974.48 259.364 972.8C258.404 971.12 257.924 969.213 257.924 967.08C257.924 964.92 258.404 963 259.364 961.32C260.324 959.64 261.644 958.32 263.324 957.36C265.004 956.4 266.911 955.92 269.044 955.92C271.178 955.92 273.071 956.4 274.724 957.36C276.404 958.32 277.724 959.64 278.684 961.32C279.644 963 280.138 964.92 280.164 967.08C280.164 969.213 279.671 971.12 278.684 972.8C277.724 974.48 276.404 975.8 274.724 976.76C273.071 977.72 271.178 978.2 269.044 978.2ZM269.044 975.4C270.591 975.4 271.978 975.04 273.204 974.32C274.431 973.6 275.391 972.613 276.084 971.36C276.778 970.107 277.124 968.68 277.124 967.08C277.124 965.48 276.778 964.053 276.084 962.8C275.391 961.52 274.431 960.52 273.204 959.8C271.978 959.08 270.591 958.72 269.044 958.72C267.498 958.72 266.111 959.08 264.884 959.8C263.658 960.52 262.684 961.52 261.964 962.8C261.271 964.053 260.924 965.48 260.924 967.08C260.924 968.68 261.271 970.107 261.964 971.36C262.684 972.613 263.658 973.6 264.884 974.32C266.111 975.04 267.498 975.4 269.044 975.4ZM304.915 978C304.461 978 304.088 977.853 303.795 977.56C303.501 977.267 303.355 976.907 303.355 976.48V966.08C303.355 964.427 303.035 963.067 302.395 962C301.781 960.933 300.928 960.133 299.835 959.6C298.768 959.067 297.555 958.8 296.195 958.8C294.888 958.8 293.701 959.053 292.635 959.56C291.595 960.067 290.768 960.76 290.155 961.64C289.541 962.52 289.235 963.52 289.235 964.64H287.035C287.088 962.96 287.541 961.467 288.395 960.16C289.248 958.827 290.381 957.787 291.795 957.04C293.208 956.267 294.781 955.88 296.515 955.88C298.408 955.88 300.101 956.28 301.595 957.08C303.088 957.853 304.261 959 305.115 960.52C305.995 962.04 306.435 963.893 306.435 966.08V976.48C306.435 976.907 306.288 977.267 305.995 977.56C305.701 977.853 305.341 978 304.915 978ZM287.715 978C287.235 978 286.848 977.867 286.555 977.6C286.288 977.307 286.155 976.933 286.155 976.48V957.68C286.155 957.2 286.288 956.827 286.555 956.56C286.848 956.267 287.235 956.12 287.715 956.12C288.168 956.12 288.528 956.267 288.795 956.56C289.088 956.827 289.235 957.2 289.235 957.68V976.48C289.235 976.933 289.088 977.307 288.795 977.6C288.528 977.867 288.168 978 287.715 978ZM320.865 978.2C319.292 978.2 317.732 977.933 316.185 977.4C314.638 976.867 313.385 976.067 312.425 975C312.132 974.68 312.012 974.32 312.065 973.92C312.118 973.52 312.318 973.173 312.665 972.88C313.038 972.613 313.425 972.507 313.825 972.56C314.225 972.613 314.558 972.787 314.825 973.08C315.465 973.827 316.305 974.4 317.345 974.8C318.412 975.2 319.585 975.4 320.865 975.4C322.838 975.4 324.265 975.067 325.145 974.4C326.025 973.707 326.478 972.88 326.505 971.92C326.505 970.96 326.052 970.173 325.145 969.56C324.238 968.92 322.745 968.427 320.665 968.08C317.972 967.653 315.998 966.907 314.745 965.84C313.492 964.773 312.865 963.507 312.865 962.04C312.865 960.68 313.225 959.547 313.945 958.64C314.665 957.733 315.625 957.053 316.825 956.6C318.025 956.147 319.345 955.92 320.785 955.92C322.572 955.92 324.105 956.227 325.385 956.84C326.692 957.453 327.745 958.28 328.545 959.32C328.812 959.667 328.918 960.027 328.865 960.4C328.812 960.773 328.598 961.08 328.225 961.32C327.905 961.507 327.532 961.573 327.105 961.52C326.705 961.44 326.358 961.24 326.065 960.92C325.398 960.147 324.625 959.587 323.745 959.24C322.865 958.867 321.852 958.68 320.705 958.68C319.238 958.68 318.065 958.987 317.185 959.6C316.305 960.187 315.865 960.933 315.865 961.84C315.865 962.453 316.025 962.987 316.345 963.44C316.692 963.893 317.265 964.293 318.065 964.64C318.892 964.987 320.038 965.28 321.505 965.52C323.505 965.84 325.078 966.32 326.225 966.96C327.398 967.573 328.225 968.307 328.705 969.16C329.212 969.987 329.465 970.893 329.465 971.88C329.465 973.133 329.092 974.24 328.345 975.2C327.625 976.133 326.612 976.867 325.305 977.4C324.025 977.933 322.545 978.2 320.865 978.2ZM336.988 978C336.508 978 336.121 977.867 335.828 977.6C335.561 977.307 335.428 976.92 335.428 976.44V957.68C335.428 957.2 335.561 956.827 335.828 956.56C336.121 956.267 336.508 956.12 336.988 956.12C337.441 956.12 337.801 956.267 338.068 956.56C338.361 956.827 338.508 957.2 338.508 957.68V976.44C338.508 976.92 338.361 977.307 338.068 977.6C337.801 977.867 337.441 978 336.988 978ZM336.948 951.96C336.361 951.96 335.854 951.747 335.428 951.32C335.001 950.893 334.788 950.373 334.788 949.76C334.788 949.093 335.001 948.573 335.428 948.2C335.881 947.8 336.401 947.6 336.988 947.6C337.548 947.6 338.041 947.8 338.468 948.2C338.921 948.573 339.148 949.093 339.148 949.76C339.148 950.373 338.934 950.893 338.508 951.32C338.081 951.747 337.561 951.96 336.948 951.96ZM356.27 978.2C354.11 978.2 352.19 977.733 350.51 976.8C348.857 975.84 347.55 974.52 346.59 972.84C345.657 971.16 345.19 969.24 345.19 967.08C345.19 964.893 345.63 962.973 346.51 961.32C347.417 959.64 348.657 958.32 350.23 957.36C351.803 956.4 353.617 955.92 355.67 955.92C357.697 955.92 359.457 956.387 360.95 957.32C362.47 958.227 363.643 959.493 364.47 961.12C365.297 962.747 365.71 964.6 365.71 966.68C365.71 967.107 365.577 967.453 365.31 967.72C365.043 967.96 364.697 968.08 364.27 968.08H347.27V965.52H364.59L362.87 966.76C362.897 965.213 362.617 963.827 362.03 962.6C361.443 961.373 360.603 960.413 359.51 959.72C358.443 959.027 357.163 958.68 355.67 958.68C354.15 958.68 352.817 959.04 351.67 959.76C350.523 960.48 349.63 961.48 348.99 962.76C348.377 964.013 348.07 965.453 348.07 967.08C348.07 968.707 348.417 970.147 349.11 971.4C349.83 972.653 350.803 973.64 352.03 974.36C353.257 975.08 354.67 975.44 356.27 975.44C357.23 975.44 358.19 975.28 359.15 974.96C360.137 974.613 360.923 974.187 361.51 973.68C361.803 973.44 362.137 973.32 362.51 973.32C362.883 973.293 363.203 973.387 363.47 973.6C363.817 973.92 363.99 974.267 363.99 974.64C364.017 975.013 363.87 975.333 363.55 975.6C362.67 976.347 361.55 976.973 360.19 977.48C358.83 977.96 357.523 978.2 356.27 978.2ZM350.83 952.64C350.377 952.64 349.99 952.52 349.67 952.28C349.377 952.013 349.23 951.667 349.23 951.24C349.23 950.68 349.483 950.227 349.99 949.88L354.71 946.76C354.923 946.627 355.177 946.56 355.47 946.56C355.63 946.56 355.777 946.587 355.91 946.64C356.043 946.667 356.163 946.707 356.27 946.76L360.95 949.88C361.457 950.227 361.71 950.68 361.71 951.24C361.71 951.64 361.563 951.973 361.27 952.24C360.977 952.507 360.603 952.64 360.15 952.64C359.963 952.64 359.79 952.613 359.63 952.56C359.497 952.507 359.35 952.427 359.19 952.32L355.47 949.76L351.75 952.32C351.457 952.533 351.15 952.64 350.83 952.64ZM389.68 978C389.227 978 388.854 977.853 388.56 977.56C388.267 977.267 388.12 976.907 388.12 976.48V966.08C388.12 964.427 387.8 963.067 387.16 962C386.547 960.933 385.694 960.133 384.6 959.6C383.534 959.067 382.32 958.8 380.96 958.8C379.654 958.8 378.467 959.053 377.4 959.56C376.36 960.067 375.534 960.76 374.92 961.64C374.307 962.52 374 963.52 374 964.64H371.8C371.854 962.96 372.307 961.467 373.16 960.16C374.014 958.827 375.147 957.787 376.56 957.04C377.974 956.267 379.547 955.88 381.28 955.88C383.174 955.88 384.867 956.28 386.36 957.08C387.854 957.853 389.027 959 389.88 960.52C390.76 962.04 391.2 963.893 391.2 966.08V976.48C391.2 976.907 391.054 977.267 390.76 977.56C390.467 977.853 390.107 978 389.68 978ZM372.48 978C372 978 371.614 977.867 371.32 977.6C371.054 977.307 370.92 976.933 370.92 976.48V957.68C370.92 957.2 371.054 956.827 371.32 956.56C371.614 956.267 372 956.12 372.48 956.12C372.934 956.12 373.294 956.267 373.56 956.56C373.854 956.827 374 957.2 374 957.68V976.48C374 976.933 373.854 977.307 373.56 977.6C373.294 977.867 372.934 978 372.48 978ZM407.751 978.2C405.644 978.2 403.764 977.72 402.111 976.76C400.484 975.773 399.191 974.44 398.231 972.76C397.297 971.08 396.831 969.187 396.831 967.08C396.831 964.947 397.284 963.04 398.191 961.36C399.097 959.68 400.337 958.36 401.911 957.4C403.484 956.413 405.297 955.92 407.351 955.92C408.977 955.92 410.471 956.24 411.831 956.88C413.217 957.52 414.431 958.48 415.471 959.76C415.764 960.08 415.871 960.427 415.791 960.8C415.711 961.147 415.484 961.453 415.111 961.72C414.817 961.933 414.484 962.013 414.111 961.96C413.764 961.88 413.457 961.68 413.191 961.36C411.644 959.6 409.697 958.72 407.351 958.72C405.857 958.72 404.537 959.08 403.391 959.8C402.271 960.52 401.391 961.507 400.751 962.76C400.137 964.013 399.831 965.453 399.831 967.08C399.831 968.68 400.164 970.107 400.831 971.36C401.497 972.613 402.431 973.6 403.631 974.32C404.831 975.04 406.204 975.4 407.751 975.4C408.791 975.4 409.737 975.267 410.591 975C411.471 974.707 412.244 974.267 412.911 973.68C413.231 973.413 413.564 973.267 413.911 973.24C414.257 973.213 414.577 973.32 414.871 973.56C415.191 973.853 415.364 974.187 415.391 974.56C415.444 974.933 415.324 975.253 415.031 975.52C413.084 977.307 410.657 978.2 407.751 978.2ZM423.98 978C423.5 978 423.113 977.867 422.82 977.6C422.553 977.307 422.42 976.92 422.42 976.44V957.68C422.42 957.2 422.553 956.827 422.82 956.56C423.113 956.267 423.5 956.12 423.98 956.12C424.433 956.12 424.793 956.267 425.06 956.56C425.353 956.827 425.5 957.2 425.5 957.68V976.44C425.5 976.92 425.353 977.307 425.06 977.6C424.793 977.867 424.433 978 423.98 978ZM423.94 951.96C423.353 951.96 422.846 951.747 422.42 951.32C421.993 950.893 421.78 950.373 421.78 949.76C421.78 949.093 421.993 948.573 422.42 948.2C422.873 947.8 423.393 947.6 423.98 947.6C424.54 947.6 425.033 947.8 425.46 948.2C425.913 948.573 426.14 949.093 426.14 949.76C426.14 950.373 425.926 950.893 425.5 951.32C425.073 951.747 424.553 951.96 423.94 951.96ZM442.982 978.2C440.929 978.2 439.089 977.72 437.462 976.76C435.836 975.773 434.542 974.44 433.582 972.76C432.649 971.08 432.182 969.187 432.182 967.08C432.182 964.947 432.662 963.04 433.622 961.36C434.609 959.68 435.942 958.36 437.622 957.4C439.302 956.413 441.196 955.92 443.302 955.92C445.409 955.92 447.289 956.413 448.942 957.4C450.622 958.36 451.942 959.68 452.902 961.36C453.889 963.04 454.396 964.947 454.422 967.08L453.182 968.04C453.182 969.96 452.729 971.693 451.822 973.24C450.942 974.76 449.729 975.973 448.182 976.88C446.662 977.76 444.929 978.2 442.982 978.2ZM443.302 975.4C444.849 975.4 446.222 975.04 447.422 974.32C448.649 973.6 449.609 972.613 450.302 971.36C451.022 970.08 451.382 968.653 451.382 967.08C451.382 965.48 451.022 964.053 450.302 962.8C449.609 961.547 448.649 960.56 447.422 959.84C446.222 959.093 444.849 958.72 443.302 958.72C441.782 958.72 440.409 959.093 439.182 959.84C437.956 960.56 436.982 961.547 436.262 962.8C435.542 964.053 435.182 965.48 435.182 967.08C435.182 968.653 435.542 970.08 436.262 971.36C436.982 972.613 437.956 973.6 439.182 974.32C440.409 975.04 441.782 975.4 443.302 975.4ZM452.862 978C452.409 978 452.036 977.867 451.742 977.6C451.449 977.307 451.302 976.933 451.302 976.48V969.64L452.062 966.48L454.422 967.08V976.48C454.422 976.933 454.276 977.307 453.982 977.6C453.689 977.867 453.316 978 452.862 978ZM482.051 978.2C479.891 978.2 477.971 977.733 476.291 976.8C474.638 975.84 473.331 974.52 472.371 972.84C471.438 971.16 470.971 969.24 470.971 967.08C470.971 964.893 471.411 962.973 472.291 961.32C473.198 959.64 474.438 958.32 476.011 957.36C477.585 956.4 479.398 955.92 481.451 955.92C483.478 955.92 485.238 956.387 486.731 957.32C488.251 958.227 489.425 959.493 490.251 961.12C491.078 962.747 491.491 964.6 491.491 966.68C491.491 967.107 491.358 967.453 491.091 967.72C490.825 967.96 490.478 968.08 490.051 968.08H473.051V965.52H490.371L488.651 966.76C488.678 965.213 488.398 963.827 487.811 962.6C487.225 961.373 486.385 960.413 485.291 959.72C484.225 959.027 482.945 958.68 481.451 958.68C479.931 958.68 478.598 959.04 477.451 959.76C476.305 960.48 475.411 961.48 474.771 962.76C474.158 964.013 473.851 965.453 473.851 967.08C473.851 968.707 474.198 970.147 474.891 971.4C475.611 972.653 476.585 973.64 477.811 974.36C479.038 975.08 480.451 975.44 482.051 975.44C483.011 975.44 483.971 975.28 484.931 974.96C485.918 974.613 486.705 974.187 487.291 973.68C487.585 973.44 487.918 973.32 488.291 973.32C488.665 973.293 488.985 973.387 489.251 973.6C489.598 973.92 489.771 974.267 489.771 974.64C489.798 975.013 489.651 975.333 489.331 975.6C488.451 976.347 487.331 976.973 485.971 977.48C484.611 977.96 483.305 978.2 482.051 978.2ZM515.462 978C515.008 978 514.635 977.853 514.342 977.56C514.048 977.267 513.902 976.907 513.902 976.48V966.08C513.902 964.427 513.582 963.067 512.942 962C512.328 960.933 511.475 960.133 510.382 959.6C509.315 959.067 508.102 958.8 506.742 958.8C505.435 958.8 504.248 959.053 503.182 959.56C502.142 960.067 501.315 960.76 500.702 961.64C500.088 962.52 499.782 963.52 499.782 964.64H497.582C497.635 962.96 498.088 961.467 498.942 960.16C499.795 958.827 500.928 957.787 502.342 957.04C503.755 956.267 505.328 955.88 507.062 955.88C508.955 955.88 510.648 956.28 512.142 957.08C513.635 957.853 514.808 959 515.662 960.52C516.542 962.04 516.982 963.893 516.982 966.08V976.48C516.982 976.907 516.835 977.267 516.542 977.56C516.248 977.853 515.888 978 515.462 978ZM498.262 978C497.782 978 497.395 977.867 497.102 977.6C496.835 977.307 496.702 976.933 496.702 976.48V957.68C496.702 957.2 496.835 956.827 497.102 956.56C497.395 956.267 497.782 956.12 498.262 956.12C498.715 956.12 499.075 956.267 499.342 956.56C499.635 956.827 499.782 957.2 499.782 957.68V976.48C499.782 976.933 499.635 977.307 499.342 977.6C499.075 977.867 498.715 978 498.262 978ZM533.692 978.2C531.532 978.2 529.612 977.733 527.932 976.8C526.279 975.84 524.972 974.52 524.012 972.84C523.079 971.16 522.612 969.24 522.612 967.08C522.612 964.893 523.052 962.973 523.932 961.32C524.839 959.64 526.079 958.32 527.652 957.36C529.225 956.4 531.039 955.92 533.092 955.92C535.119 955.92 536.879 956.387 538.372 957.32C539.892 958.227 541.065 959.493 541.892 961.12C542.719 962.747 543.132 964.6 543.132 966.68C543.132 967.107 542.999 967.453 542.732 967.72C542.465 967.96 542.119 968.08 541.692 968.08H524.692V965.52H542.012L540.292 966.76C540.319 965.213 540.039 963.827 539.452 962.6C538.865 961.373 538.025 960.413 536.932 959.72C535.865 959.027 534.585 958.68 533.092 958.68C531.572 958.68 530.239 959.04 529.092 959.76C527.945 960.48 527.052 961.48 526.412 962.76C525.799 964.013 525.492 965.453 525.492 967.08C525.492 968.707 525.839 970.147 526.532 971.4C527.252 972.653 528.225 973.64 529.452 974.36C530.679 975.08 532.092 975.44 533.692 975.44C534.652 975.44 535.612 975.28 536.572 974.96C537.559 974.613 538.345 974.187 538.932 973.68C539.225 973.44 539.559 973.32 539.932 973.32C540.305 973.293 540.625 973.387 540.892 973.6C541.239 973.92 541.412 974.267 541.412 974.64C541.439 975.013 541.292 975.333 540.972 975.6C540.092 976.347 538.972 976.973 537.612 977.48C536.252 977.96 534.945 978.2 533.692 978.2ZM549.622 964.52C549.702 962.867 550.129 961.387 550.902 960.08C551.702 958.773 552.729 957.747 553.982 957C555.262 956.253 556.676 955.88 558.222 955.88C559.449 955.88 560.396 956.053 561.062 956.4C561.729 956.747 561.982 957.253 561.822 957.92C561.716 958.32 561.529 958.587 561.262 958.72C561.022 958.853 560.716 958.907 560.342 958.88C559.996 958.853 559.596 958.827 559.142 958.8C557.649 958.667 556.316 958.827 555.142 959.28C553.996 959.707 553.076 960.373 552.382 961.28C551.716 962.187 551.382 963.267 551.382 964.52H549.622ZM549.862 978C549.382 978 549.009 977.867 548.742 977.6C548.476 977.333 548.342 976.96 548.342 976.48V957.64C548.342 957.16 548.476 956.787 548.742 956.52C549.009 956.253 549.382 956.12 549.862 956.12C550.342 956.12 550.716 956.253 550.982 956.52C551.249 956.787 551.382 957.16 551.382 957.64V976.48C551.382 976.96 551.249 977.333 550.982 977.6C550.716 977.867 550.342 978 549.862 978ZM574.701 978.2C572.594 978.2 570.728 977.733 569.101 976.8C567.474 975.84 566.194 974.52 565.261 972.84C564.354 971.16 563.901 969.24 563.901 967.08C563.901 964.893 564.381 962.96 565.341 961.28C566.301 959.6 567.621 958.293 569.301 957.36C570.981 956.4 572.888 955.92 575.021 955.92C577.181 955.92 579.088 956.4 580.741 957.36C582.421 958.293 583.728 959.6 584.661 961.28C585.621 962.96 586.114 964.893 586.141 967.08L584.341 968.04C584.341 970.013 583.928 971.773 583.101 973.32C582.274 974.84 581.128 976.04 579.661 976.92C578.221 977.773 576.568 978.2 574.701 978.2ZM575.101 986.64C572.994 986.64 571.141 986.24 569.541 985.44C567.941 984.667 566.621 983.6 565.581 982.24C565.288 981.92 565.154 981.573 565.181 981.2C565.234 980.827 565.434 980.52 565.781 980.28C566.128 980.04 566.514 979.96 566.941 980.04C567.368 980.12 567.701 980.32 567.941 980.64C568.714 981.6 569.701 982.373 570.901 982.96C572.128 983.547 573.541 983.84 575.141 983.84C576.634 983.84 577.981 983.48 579.181 982.76C580.381 982.04 581.328 981.027 582.021 979.72C582.741 978.413 583.101 976.88 583.101 975.12V969.04L584.261 966.72L586.141 967.08V975.24C586.141 977.4 585.661 979.333 584.701 981.04C583.741 982.773 582.434 984.133 580.781 985.12C579.128 986.133 577.234 986.64 575.101 986.64ZM575.021 975.4C576.594 975.4 577.981 975.053 579.181 974.36C580.408 973.64 581.368 972.653 582.061 971.4C582.754 970.147 583.101 968.707 583.101 967.08C583.101 965.453 582.754 964.013 582.061 962.76C581.368 961.48 580.408 960.493 579.181 959.8C577.981 959.08 576.594 958.72 575.021 958.72C573.448 958.72 572.048 959.08 570.821 959.8C569.594 960.493 568.634 961.48 567.941 962.76C567.248 964.013 566.901 965.453 566.901 967.08C566.901 968.707 567.248 970.147 567.941 971.4C568.634 972.653 569.594 973.64 570.821 974.36C572.048 975.053 573.448 975.4 575.021 975.4ZM602.051 978.2C599.891 978.2 597.971 977.733 596.291 976.8C594.638 975.84 593.331 974.52 592.371 972.84C591.438 971.16 590.971 969.24 590.971 967.08C590.971 964.893 591.411 962.973 592.291 961.32C593.198 959.64 594.438 958.32 596.011 957.36C597.585 956.4 599.398 955.92 601.451 955.92C603.478 955.92 605.238 956.387 606.731 957.32C608.251 958.227 609.425 959.493 610.251 961.12C611.078 962.747 611.491 964.6 611.491 966.68C611.491 967.107 611.358 967.453 611.091 967.72C610.825 967.96 610.478 968.08 610.051 968.08H593.051V965.52H610.371L608.651 966.76C608.678 965.213 608.398 963.827 607.811 962.6C607.225 961.373 606.385 960.413 605.291 959.72C604.225 959.027 602.945 958.68 601.451 958.68C599.931 958.68 598.598 959.04 597.451 959.76C596.305 960.48 595.411 961.48 594.771 962.76C594.158 964.013 593.851 965.453 593.851 967.08C593.851 968.707 594.198 970.147 594.891 971.4C595.611 972.653 596.585 973.64 597.811 974.36C599.038 975.08 600.451 975.44 602.051 975.44C603.011 975.44 603.971 975.28 604.931 974.96C605.918 974.613 606.705 974.187 607.291 973.68C607.585 973.44 607.918 973.32 608.291 973.32C608.665 973.293 608.985 973.387 609.251 973.6C609.598 973.92 609.771 974.267 609.771 974.64C609.798 975.013 609.651 975.333 609.331 975.6C608.451 976.347 607.331 976.973 605.971 977.48C604.611 977.96 603.305 978.2 602.051 978.2ZM600.971 952.8C600.545 952.8 600.171 952.653 599.851 952.36C599.558 952.04 599.411 951.667 599.411 951.24C599.411 950.813 599.531 950.467 599.771 950.2L604.291 945.68C604.585 945.387 604.945 945.24 605.371 945.24C605.825 945.24 606.198 945.4 606.491 945.72C606.785 946.013 606.931 946.387 606.931 946.84C606.931 947.027 606.891 947.213 606.811 947.4C606.758 947.587 606.651 947.747 606.491 947.88L602.011 952.4C601.745 952.667 601.398 952.8 600.971 952.8ZM625.262 978C623.848 978 622.582 977.667 621.462 977C620.368 976.333 619.502 975.427 618.862 974.28C618.222 973.107 617.902 971.773 617.902 970.28V950.72C617.902 950.267 618.035 949.893 618.302 949.6C618.595 949.307 618.968 949.16 619.422 949.16C619.875 949.16 620.248 949.307 620.542 949.6C620.835 949.893 620.982 950.267 620.982 950.72V970.28C620.982 971.64 621.382 972.76 622.182 973.64C622.982 974.493 624.008 974.92 625.262 974.92H626.342C626.768 974.92 627.115 975.067 627.382 975.36C627.648 975.653 627.782 976.027 627.782 976.48C627.782 976.933 627.622 977.307 627.302 977.6C626.982 977.867 626.582 978 626.102 978H625.262ZM615.302 959.6C614.902 959.6 614.568 959.48 614.302 959.24C614.035 958.973 613.902 958.653 613.902 958.28C613.902 957.88 614.035 957.56 614.302 957.32C614.568 957.053 614.902 956.92 615.302 956.92H625.502C625.902 956.92 626.235 957.053 626.502 957.32C626.768 957.56 626.902 957.88 626.902 958.28C626.902 958.653 626.768 958.973 626.502 959.24C626.235 959.48 625.902 959.6 625.502 959.6H615.302ZM634.995 978C634.515 978 634.129 977.867 633.835 977.6C633.569 977.307 633.435 976.92 633.435 976.44V957.68C633.435 957.2 633.569 956.827 633.835 956.56C634.129 956.267 634.515 956.12 634.995 956.12C635.449 956.12 635.809 956.267 636.075 956.56C636.369 956.827 636.515 957.2 636.515 957.68V976.44C636.515 976.92 636.369 977.307 636.075 977.6C635.809 977.867 635.449 978 634.995 978ZM634.955 951.96C634.369 951.96 633.862 951.747 633.435 951.32C633.009 950.893 632.795 950.373 632.795 949.76C632.795 949.093 633.009 948.573 633.435 948.2C633.889 947.8 634.409 947.6 634.995 947.6C635.555 947.6 636.049 947.8 636.475 948.2C636.929 948.573 637.155 949.093 637.155 949.76C637.155 950.373 636.942 950.893 636.515 951.32C636.089 951.747 635.569 951.96 634.955 951.96ZM654.118 978.2C652.011 978.2 650.131 977.72 648.478 976.76C646.851 975.773 645.558 974.44 644.598 972.76C643.664 971.08 643.198 969.187 643.198 967.08C643.198 964.947 643.651 963.04 644.558 961.36C645.464 959.68 646.704 958.36 648.278 957.4C649.851 956.413 651.664 955.92 653.718 955.92C655.344 955.92 656.838 956.24 658.198 956.88C659.584 957.52 660.798 958.48 661.838 959.76C662.131 960.08 662.238 960.427 662.158 960.8C662.078 961.147 661.851 961.453 661.478 961.72C661.184 961.933 660.851 962.013 660.478 961.96C660.131 961.88 659.824 961.68 659.558 961.36C658.011 959.6 656.064 958.72 653.718 958.72C652.224 958.72 650.904 959.08 649.758 959.8C648.638 960.52 647.758 961.507 647.118 962.76C646.504 964.013 646.198 965.453 646.198 967.08C646.198 968.68 646.531 970.107 647.198 971.36C647.864 972.613 648.798 973.6 649.998 974.32C651.198 975.04 652.571 975.4 654.118 975.4C655.158 975.4 656.104 975.267 656.958 975C657.838 974.707 658.611 974.267 659.278 973.68C659.598 973.413 659.931 973.267 660.278 973.24C660.624 973.213 660.944 973.32 661.238 973.56C661.558 973.853 661.731 974.187 661.758 974.56C661.811 974.933 661.691 975.253 661.398 975.52C659.451 977.307 657.024 978.2 654.118 978.2ZM677.787 978.2C675.734 978.2 673.894 977.72 672.267 976.76C670.64 975.773 669.347 974.44 668.387 972.76C667.454 971.08 666.987 969.187 666.987 967.08C666.987 964.947 667.467 963.04 668.427 961.36C669.414 959.68 670.747 958.36 672.427 957.4C674.107 956.413 676 955.92 678.107 955.92C680.214 955.92 682.094 956.413 683.747 957.4C685.427 958.36 686.747 959.68 687.707 961.36C688.694 963.04 689.2 964.947 689.227 967.08L687.987 968.04C687.987 969.96 687.534 971.693 686.627 973.24C685.747 974.76 684.534 975.973 682.987 976.88C681.467 977.76 679.734 978.2 677.787 978.2ZM678.107 975.4C679.654 975.4 681.027 975.04 682.227 974.32C683.454 973.6 684.414 972.613 685.107 971.36C685.827 970.08 686.187 968.653 686.187 967.08C686.187 965.48 685.827 964.053 685.107 962.8C684.414 961.547 683.454 960.56 682.227 959.84C681.027 959.093 679.654 958.72 678.107 958.72C676.587 958.72 675.214 959.093 673.987 959.84C672.76 960.56 671.787 961.547 671.067 962.8C670.347 964.053 669.987 965.48 669.987 967.08C669.987 968.653 670.347 970.08 671.067 971.36C671.787 972.613 672.76 973.6 673.987 974.32C675.214 975.04 676.587 975.4 678.107 975.4ZM687.667 978C687.214 978 686.84 977.867 686.547 977.6C686.254 977.307 686.107 976.933 686.107 976.48V969.64L686.867 966.48L689.227 967.08V976.48C689.227 976.933 689.08 977.307 688.787 977.6C688.494 977.867 688.12 978 687.667 978ZM286.114 1023.2C283.954 1023.2 282.034 1022.73 280.354 1021.8C278.7 1020.84 277.394 1019.52 276.434 1017.84C275.5 1016.16 275.034 1014.24 275.034 1012.08C275.034 1009.89 275.474 1007.97 276.354 1006.32C277.26 1004.64 278.5 1003.32 280.074 1002.36C281.647 1001.4 283.46 1000.92 285.514 1000.92C287.54 1000.92 289.3 1001.39 290.794 1002.32C292.314 1003.23 293.487 1004.49 294.314 1006.12C295.14 1007.75 295.554 1009.6 295.554 1011.68C295.554 1012.11 295.42 1012.45 295.154 1012.72C294.887 1012.96 294.54 1013.08 294.114 1013.08H277.114V1010.52H294.434L292.714 1011.76C292.74 1010.21 292.46 1008.83 291.874 1007.6C291.287 1006.37 290.447 1005.41 289.354 1004.72C288.287 1004.03 287.007 1003.68 285.514 1003.68C283.994 1003.68 282.66 1004.04 281.514 1004.76C280.367 1005.48 279.474 1006.48 278.834 1007.76C278.22 1009.01 277.914 1010.45 277.914 1012.08C277.914 1013.71 278.26 1015.15 278.954 1016.4C279.674 1017.65 280.647 1018.64 281.874 1019.36C283.1 1020.08 284.514 1020.44 286.114 1020.44C287.074 1020.44 288.034 1020.28 288.994 1019.96C289.98 1019.61 290.767 1019.19 291.354 1018.68C291.647 1018.44 291.98 1018.32 292.354 1018.32C292.727 1018.29 293.047 1018.39 293.314 1018.6C293.66 1018.92 293.834 1019.27 293.834 1019.64C293.86 1020.01 293.714 1020.33 293.394 1020.6C292.514 1021.35 291.394 1021.97 290.034 1022.48C288.674 1022.96 287.367 1023.2 286.114 1023.2ZM285.034 997.8C284.607 997.8 284.234 997.653 283.914 997.36C283.62 997.04 283.474 996.667 283.474 996.24C283.474 995.813 283.594 995.467 283.834 995.2L288.354 990.68C288.647 990.387 289.007 990.24 289.434 990.24C289.887 990.24 290.26 990.4 290.554 990.72C290.847 991.013 290.994 991.387 290.994 991.84C290.994 992.027 290.954 992.213 290.874 992.4C290.82 992.587 290.714 992.747 290.554 992.88L286.074 997.4C285.807 997.667 285.46 997.8 285.034 997.8ZM342.043 1023C341.589 1023 341.216 1022.87 340.923 1022.6C340.629 1022.31 340.483 1021.93 340.483 1021.48V1009.96C340.483 1008.07 339.989 1006.57 339.003 1005.48C338.016 1004.36 336.749 1003.8 335.203 1003.8C333.549 1003.8 332.189 1004.36 331.123 1005.48C330.083 1006.57 329.576 1008.04 329.603 1009.88H326.843C326.869 1008.09 327.256 1006.52 328.003 1005.16C328.749 1003.8 329.776 1002.75 331.083 1002C332.389 1001.25 333.869 1000.88 335.523 1000.88C337.096 1000.88 338.483 1001.25 339.683 1002C340.909 1002.75 341.856 1003.8 342.523 1005.16C343.216 1006.52 343.563 1008.12 343.563 1009.96V1021.48C343.563 1021.93 343.416 1022.31 343.123 1022.6C342.856 1022.87 342.496 1023 342.043 1023ZM314.043 1023C313.563 1023 313.176 1022.87 312.883 1022.6C312.616 1022.31 312.483 1021.93 312.483 1021.48V1002.68C312.483 1002.23 312.616 1001.85 312.883 1001.56C313.176 1001.27 313.563 1001.12 314.043 1001.12C314.496 1001.12 314.856 1001.27 315.123 1001.56C315.416 1001.85 315.563 1002.23 315.563 1002.68V1021.48C315.563 1021.93 315.416 1022.31 315.123 1022.6C314.856 1022.87 314.496 1023 314.043 1023ZM328.083 1023C327.629 1023 327.256 1022.87 326.963 1022.6C326.669 1022.31 326.523 1021.93 326.523 1021.48V1009.96C326.523 1008.07 326.029 1006.57 325.043 1005.48C324.056 1004.36 322.789 1003.8 321.243 1003.8C319.589 1003.8 318.229 1004.35 317.163 1005.44C316.096 1006.51 315.563 1007.91 315.563 1009.64H313.363C313.416 1007.93 313.789 1006.43 314.483 1005.12C315.203 1003.79 316.176 1002.75 317.403 1002C318.629 1001.25 320.016 1000.88 321.563 1000.88C323.136 1000.88 324.523 1001.25 325.723 1002C326.949 1002.75 327.896 1003.8 328.563 1005.16C329.256 1006.52 329.603 1008.12 329.603 1009.96V1021.48C329.603 1021.93 329.456 1022.31 329.163 1022.6C328.896 1022.87 328.536 1023 328.083 1023ZM359.893 1023.24C358 1023.24 356.307 1022.85 354.813 1022.08C353.32 1021.28 352.133 1020.12 351.253 1018.6C350.4 1017.08 349.973 1015.23 349.973 1013.04V1002.64C349.973 1002.21 350.12 1001.85 350.413 1001.56C350.707 1001.27 351.067 1001.12 351.493 1001.12C351.947 1001.12 352.32 1001.27 352.613 1001.56C352.907 1001.85 353.053 1002.21 353.053 1002.64V1013.04C353.053 1014.69 353.36 1016.05 353.973 1017.12C354.613 1018.19 355.467 1018.99 356.533 1019.52C357.627 1020.05 358.853 1020.32 360.213 1020.32C361.52 1020.32 362.693 1020.07 363.733 1019.56C364.8 1019.05 365.64 1018.36 366.253 1017.48C366.867 1016.6 367.173 1015.6 367.173 1014.48H369.373C369.293 1016.16 368.827 1017.67 367.973 1019C367.147 1020.31 366.027 1021.35 364.613 1022.12C363.2 1022.87 361.627 1023.24 359.893 1023.24ZM368.693 1023C368.24 1023 367.867 1022.87 367.573 1022.6C367.307 1022.31 367.173 1021.92 367.173 1021.44V1002.64C367.173 1002.19 367.307 1001.83 367.573 1001.56C367.867 1001.27 368.24 1001.12 368.693 1001.12C369.147 1001.12 369.52 1001.27 369.813 1001.56C370.107 1001.83 370.253 1002.19 370.253 1002.64V1021.44C370.253 1021.92 370.107 1022.31 369.813 1022.6C369.52 1022.87 369.147 1023 368.693 1023ZM387.404 1023.2C385.297 1023.2 383.404 1022.72 381.724 1021.76C380.044 1020.77 378.71 1019.44 377.724 1017.76C376.764 1016.08 376.284 1014.17 376.284 1012.04C376.284 1009.93 376.75 1008.04 377.684 1006.36C378.644 1004.68 379.937 1003.36 381.564 1002.4C383.19 1001.41 385.03 1000.92 387.084 1000.92C388.87 1000.92 390.484 1001.31 391.924 1002.08C393.364 1002.83 394.524 1003.83 395.404 1005.08V993.32C395.404 992.84 395.55 992.467 395.844 992.2C396.137 991.907 396.51 991.76 396.964 991.76C397.417 991.76 397.79 991.907 398.084 992.2C398.377 992.467 398.524 992.84 398.524 993.32V1012.2C398.47 1014.28 397.95 1016.16 396.964 1017.84C396.004 1019.49 394.684 1020.8 393.004 1021.76C391.35 1022.72 389.484 1023.2 387.404 1023.2ZM387.404 1020.4C388.95 1020.4 390.324 1020.04 391.524 1019.32C392.75 1018.57 393.71 1017.57 394.404 1016.32C395.124 1015.07 395.484 1013.64 395.484 1012.04C395.484 1010.47 395.124 1009.05 394.404 1007.8C393.71 1006.52 392.75 1005.52 391.524 1004.8C390.324 1004.08 388.95 1003.72 387.404 1003.72C385.884 1003.72 384.51 1004.08 383.284 1004.8C382.057 1005.52 381.084 1006.52 380.364 1007.8C379.644 1009.05 379.284 1010.47 379.284 1012.04C379.284 1013.64 379.644 1015.07 380.364 1016.32C381.084 1017.57 382.057 1018.57 383.284 1019.32C384.51 1020.04 385.884 1020.4 387.404 1020.4ZM415.365 1023.2C413.312 1023.2 411.472 1022.72 409.845 1021.76C408.218 1020.77 406.925 1019.44 405.965 1017.76C405.032 1016.08 404.565 1014.19 404.565 1012.08C404.565 1009.95 405.045 1008.04 406.005 1006.36C406.992 1004.68 408.325 1003.36 410.005 1002.4C411.685 1001.41 413.578 1000.92 415.685 1000.92C417.792 1000.92 419.672 1001.41 421.325 1002.4C423.005 1003.36 424.325 1004.68 425.285 1006.36C426.272 1008.04 426.778 1009.95 426.805 1012.08L425.565 1013.04C425.565 1014.96 425.112 1016.69 424.205 1018.24C423.325 1019.76 422.112 1020.97 420.565 1021.88C419.045 1022.76 417.312 1023.2 415.365 1023.2ZM415.685 1020.4C417.232 1020.4 418.605 1020.04 419.805 1019.32C421.032 1018.6 421.992 1017.61 422.685 1016.36C423.405 1015.08 423.765 1013.65 423.765 1012.08C423.765 1010.48 423.405 1009.05 422.685 1007.8C421.992 1006.55 421.032 1005.56 419.805 1004.84C418.605 1004.09 417.232 1003.72 415.685 1003.72C414.165 1003.72 412.792 1004.09 411.565 1004.84C410.338 1005.56 409.365 1006.55 408.645 1007.8C407.925 1009.05 407.565 1010.48 407.565 1012.08C407.565 1013.65 407.925 1015.08 408.645 1016.36C409.365 1017.61 410.338 1018.6 411.565 1019.32C412.792 1020.04 414.165 1020.4 415.685 1020.4ZM425.245 1023C424.792 1023 424.418 1022.87 424.125 1022.6C423.832 1022.31 423.685 1021.93 423.685 1021.48V1014.64L424.445 1011.48L426.805 1012.08V1021.48C426.805 1021.93 426.658 1022.31 426.365 1022.6C426.072 1022.87 425.698 1023 425.245 1023ZM434.075 1009.52C434.155 1007.87 434.582 1006.39 435.355 1005.08C436.155 1003.77 437.182 1002.75 438.435 1002C439.715 1001.25 441.129 1000.88 442.675 1000.88C443.902 1000.88 444.849 1001.05 445.515 1001.4C446.182 1001.75 446.435 1002.25 446.275 1002.92C446.169 1003.32 445.982 1003.59 445.715 1003.72C445.475 1003.85 445.169 1003.91 444.795 1003.88C444.449 1003.85 444.049 1003.83 443.595 1003.8C442.102 1003.67 440.769 1003.83 439.595 1004.28C438.449 1004.71 437.529 1005.37 436.835 1006.28C436.169 1007.19 435.835 1008.27 435.835 1009.52H434.075ZM434.315 1023C433.835 1023 433.462 1022.87 433.195 1022.6C432.929 1022.33 432.795 1021.96 432.795 1021.48V1002.64C432.795 1002.16 432.929 1001.79 433.195 1001.52C433.462 1001.25 433.835 1001.12 434.315 1001.12C434.795 1001.12 435.169 1001.25 435.435 1001.52C435.702 1001.79 435.835 1002.16 435.835 1002.64V1021.48C435.835 1021.96 435.702 1022.33 435.435 1022.6C435.169 1022.87 434.795 1023 434.315 1023ZM472.794 1023.2C470.661 1023.2 468.754 1022.72 467.074 1021.76C465.394 1020.8 464.074 1019.48 463.114 1017.8C462.154 1016.12 461.674 1014.21 461.674 1012.08C461.674 1009.92 462.154 1008 463.114 1006.32C464.074 1004.64 465.394 1003.32 467.074 1002.36C468.754 1001.4 470.661 1000.92 472.794 1000.92C474.928 1000.92 476.821 1001.4 478.474 1002.36C480.154 1003.32 481.474 1004.64 482.434 1006.32C483.394 1008 483.888 1009.92 483.914 1012.08C483.914 1014.21 483.421 1016.12 482.434 1017.8C481.474 1019.48 480.154 1020.8 478.474 1021.76C476.821 1022.72 474.928 1023.2 472.794 1023.2ZM472.794 1020.4C474.341 1020.4 475.728 1020.04 476.954 1019.32C478.181 1018.6 479.141 1017.61 479.834 1016.36C480.528 1015.11 480.874 1013.68 480.874 1012.08C480.874 1010.48 480.528 1009.05 479.834 1007.8C479.141 1006.52 478.181 1005.52 476.954 1004.8C475.728 1004.08 474.341 1003.72 472.794 1003.72C471.248 1003.72 469.861 1004.08 468.634 1004.8C467.408 1005.52 466.434 1006.52 465.714 1007.8C465.021 1009.05 464.674 1010.48 464.674 1012.08C464.674 1013.68 465.021 1015.11 465.714 1016.36C466.434 1017.61 467.408 1018.6 468.634 1019.32C469.861 1020.04 471.248 1020.4 472.794 1020.4ZM531.183 1023C530.73 1023 530.357 1022.87 530.063 1022.6C529.77 1022.31 529.623 1021.93 529.623 1021.48V1009.96C529.623 1008.07 529.13 1006.57 528.143 1005.48C527.157 1004.36 525.89 1003.8 524.343 1003.8C522.69 1003.8 521.33 1004.36 520.263 1005.48C519.223 1006.57 518.717 1008.04 518.743 1009.88H515.983C516.01 1008.09 516.397 1006.52 517.143 1005.16C517.89 1003.8 518.917 1002.75 520.223 1002C521.53 1001.25 523.01 1000.88 524.663 1000.88C526.237 1000.88 527.623 1001.25 528.823 1002C530.05 1002.75 530.997 1003.8 531.663 1005.16C532.357 1006.52 532.703 1008.12 532.703 1009.96V1021.48C532.703 1021.93 532.557 1022.31 532.263 1022.6C531.997 1022.87 531.637 1023 531.183 1023ZM503.183 1023C502.703 1023 502.317 1022.87 502.023 1022.6C501.757 1022.31 501.623 1021.93 501.623 1021.48V1002.68C501.623 1002.23 501.757 1001.85 502.023 1001.56C502.317 1001.27 502.703 1001.12 503.183 1001.12C503.637 1001.12 503.997 1001.27 504.263 1001.56C504.557 1001.85 504.703 1002.23 504.703 1002.68V1021.48C504.703 1021.93 504.557 1022.31 504.263 1022.6C503.997 1022.87 503.637 1023 503.183 1023ZM517.223 1023C516.77 1023 516.397 1022.87 516.103 1022.6C515.81 1022.31 515.663 1021.93 515.663 1021.48V1009.96C515.663 1008.07 515.17 1006.57 514.183 1005.48C513.197 1004.36 511.93 1003.8 510.383 1003.8C508.73 1003.8 507.37 1004.35 506.303 1005.44C505.237 1006.51 504.703 1007.91 504.703 1009.64H502.503C502.557 1007.93 502.93 1006.43 503.623 1005.12C504.343 1003.79 505.317 1002.75 506.543 1002C507.77 1001.25 509.157 1000.88 510.703 1000.88C512.277 1000.88 513.663 1001.25 514.863 1002C516.09 1002.75 517.037 1003.8 517.703 1005.16C518.397 1006.52 518.743 1008.12 518.743 1009.96V1021.48C518.743 1021.93 518.597 1022.31 518.303 1022.6C518.037 1022.87 517.677 1023 517.223 1023ZM549.034 1023.24C547.141 1023.24 545.447 1022.85 543.954 1022.08C542.461 1021.28 541.274 1020.12 540.394 1018.6C539.541 1017.08 539.114 1015.23 539.114 1013.04V1002.64C539.114 1002.21 539.261 1001.85 539.554 1001.56C539.847 1001.27 540.207 1001.12 540.634 1001.12C541.087 1001.12 541.461 1001.27 541.754 1001.56C542.047 1001.85 542.194 1002.21 542.194 1002.64V1013.04C542.194 1014.69 542.501 1016.05 543.114 1017.12C543.754 1018.19 544.607 1018.99 545.674 1019.52C546.767 1020.05 547.994 1020.32 549.354 1020.32C550.661 1020.32 551.834 1020.07 552.874 1019.56C553.941 1019.05 554.781 1018.36 555.394 1017.48C556.007 1016.6 556.314 1015.6 556.314 1014.48H558.514C558.434 1016.16 557.967 1017.67 557.114 1019C556.287 1020.31 555.167 1021.35 553.754 1022.12C552.341 1022.87 550.767 1023.24 549.034 1023.24ZM557.834 1023C557.381 1023 557.007 1022.87 556.714 1022.6C556.447 1022.31 556.314 1021.92 556.314 1021.44V1002.64C556.314 1002.19 556.447 1001.83 556.714 1001.56C557.007 1001.27 557.381 1001.12 557.834 1001.12C558.287 1001.12 558.661 1001.27 558.954 1001.56C559.247 1001.83 559.394 1002.19 559.394 1002.64V1021.44C559.394 1021.92 559.247 1022.31 558.954 1022.6C558.661 1022.87 558.287 1023 557.834 1023ZM585.344 1023C584.891 1023 584.518 1022.85 584.224 1022.56C583.931 1022.27 583.784 1021.91 583.784 1021.48V1011.08C583.784 1009.43 583.464 1008.07 582.824 1007C582.211 1005.93 581.358 1005.13 580.264 1004.6C579.198 1004.07 577.984 1003.8 576.624 1003.8C575.318 1003.8 574.131 1004.05 573.064 1004.56C572.024 1005.07 571.198 1005.76 570.584 1006.64C569.971 1007.52 569.664 1008.52 569.664 1009.64H567.464C567.518 1007.96 567.971 1006.47 568.824 1005.16C569.678 1003.83 570.811 1002.79 572.224 1002.04C573.638 1001.27 575.211 1000.88 576.944 1000.88C578.838 1000.88 580.531 1001.28 582.024 1002.08C583.518 1002.85 584.691 1004 585.544 1005.52C586.424 1007.04 586.864 1008.89 586.864 1011.08V1021.48C586.864 1021.91 586.718 1022.27 586.424 1022.56C586.131 1022.85 585.771 1023 585.344 1023ZM568.144 1023C567.664 1023 567.278 1022.87 566.984 1022.6C566.718 1022.31 566.584 1021.93 566.584 1021.48V1002.68C566.584 1002.2 566.718 1001.83 566.984 1001.56C567.278 1001.27 567.664 1001.12 568.144 1001.12C568.598 1001.12 568.958 1001.27 569.224 1001.56C569.518 1001.83 569.664 1002.2 569.664 1002.68V1021.48C569.664 1021.93 569.518 1022.31 569.224 1022.6C568.958 1022.87 568.598 1023 568.144 1023ZM603.615 1023.2C601.508 1023.2 599.615 1022.72 597.935 1021.76C596.255 1020.77 594.921 1019.44 593.935 1017.76C592.975 1016.08 592.495 1014.17 592.495 1012.04C592.495 1009.93 592.961 1008.04 593.895 1006.36C594.855 1004.68 596.148 1003.36 597.775 1002.4C599.401 1001.41 601.241 1000.92 603.295 1000.92C605.081 1000.92 606.695 1001.31 608.135 1002.08C609.575 1002.83 610.735 1003.83 611.615 1005.08V993.32C611.615 992.84 611.761 992.467 612.055 992.2C612.348 991.907 612.721 991.76 613.175 991.76C613.628 991.76 614.001 991.907 614.295 992.2C614.588 992.467 614.735 992.84 614.735 993.32V1012.2C614.681 1014.28 614.161 1016.16 613.175 1017.84C612.215 1019.49 610.895 1020.8 609.215 1021.76C607.561 1022.72 605.695 1023.2 603.615 1023.2ZM603.615 1020.4C605.161 1020.4 606.535 1020.04 607.735 1019.32C608.961 1018.57 609.921 1017.57 610.615 1016.32C611.335 1015.07 611.695 1013.64 611.695 1012.04C611.695 1010.47 611.335 1009.05 610.615 1007.8C609.921 1006.52 608.961 1005.52 607.735 1004.8C606.535 1004.08 605.161 1003.72 603.615 1003.72C602.095 1003.72 600.721 1004.08 599.495 1004.8C598.268 1005.52 597.295 1006.52 596.575 1007.8C595.855 1009.05 595.495 1010.47 595.495 1012.04C595.495 1013.64 595.855 1015.07 596.575 1016.32C597.295 1017.57 598.268 1018.57 599.495 1019.32C600.721 1020.04 602.095 1020.4 603.615 1020.4ZM631.896 1023.2C629.763 1023.2 627.856 1022.72 626.176 1021.76C624.496 1020.8 623.176 1019.48 622.216 1017.8C621.256 1016.12 620.776 1014.21 620.776 1012.08C620.776 1009.92 621.256 1008 622.216 1006.32C623.176 1004.64 624.496 1003.32 626.176 1002.36C627.856 1001.4 629.763 1000.92 631.896 1000.92C634.029 1000.92 635.923 1001.4 637.576 1002.36C639.256 1003.32 640.576 1004.64 641.536 1006.32C642.496 1008 642.989 1009.92 643.016 1012.08C643.016 1014.21 642.523 1016.12 641.536 1017.8C640.576 1019.48 639.256 1020.8 637.576 1021.76C635.923 1022.72 634.029 1023.2 631.896 1023.2ZM631.896 1020.4C633.443 1020.4 634.829 1020.04 636.056 1019.32C637.283 1018.6 638.243 1017.61 638.936 1016.36C639.629 1015.11 639.976 1013.68 639.976 1012.08C639.976 1010.48 639.629 1009.05 638.936 1007.8C638.243 1006.52 637.283 1005.52 636.056 1004.8C634.829 1004.08 633.443 1003.72 631.896 1003.72C630.349 1003.72 628.963 1004.08 627.736 1004.8C626.509 1005.52 625.536 1006.52 624.816 1007.8C624.123 1009.05 623.776 1010.48 623.776 1012.08C623.776 1013.68 624.123 1015.11 624.816 1016.36C625.536 1017.61 626.509 1018.6 627.736 1019.32C628.963 1020.04 630.349 1020.4 631.896 1020.4Z" fill="#ECECEC" fill-opacity="0.807843" shape-rendering="crispEdges"/>
</g>
<g filter="url(#filter3_d_1_3)">
<path d="M197.816 972.753C197.816 994.53 191.127 1015.44 179.187 1030.98C167.248 1046.52 151.011 1055.46 133.97 1055.87C116.928 1056.27 100.441 1048.12 88.0561 1033.16C75.6707 1018.19 68.3755 997.619 67.7392 975.856C67.1028 954.093 73.1762 932.88 84.6533 916.779C96.1303 900.678 112.094 890.975 129.112 889.756C146.131 888.536 162.844 895.899 175.658 910.26C188.471 924.621 196.363 944.833 197.635 966.55" fill="#ECECEC"/>
<path d="M113.507 1037.07C114.525 1001.16 123.116 1006.98 122.473 970.497C135.145 966.575 145.801 963.973 142.036 970.71L142.307 1037.07H113.507Z" fill="#6D6D6D"/>
<path d="M152.065 1037.07C151.048 1001.16 142.456 1006.98 143.099 970.497C130.428 966.575 119.771 963.973 123.537 970.71L123.265 1037.07H152.065Z" fill="#6D6D6D"/>
<path d="M152.323 1035.48C152.323 1038.15 151.397 1040.77 149.64 1043.07C147.884 1045.37 145.361 1047.27 142.334 1048.56C139.307 1049.86 135.885 1050.5 132.424 1050.44C128.963 1050.37 125.588 1049.59 122.65 1048.18C119.712 1046.77 117.317 1044.77 115.714 1042.41C114.11 1040.04 113.357 1037.39 113.532 1034.72" fill="#6D6D6D"/>
<path d="M132.904 892.356C124.368 899.563 117.924 909.001 118.41 925.831C119.105 941.646 125.279 950.56 132.439 958.233L132.359 926.319L132.904 892.356Z" fill="#6D6D6D"/>
<path d="M132.905 892.356C141.441 899.563 147.885 909.001 147.399 925.831C146.704 941.646 140.529 950.56 133.37 958.233L133.449 926.319L132.905 892.356Z" fill="#6D6D6D"/>
<path d="M190.97 989.735C188.652 978.801 183.382 968.659 168.336 961.142C154.085 954.289 143.326 955.53 133.194 958.225L161.328 973.221L190.97 989.735Z" fill="#6D6D6D"/>
<path d="M190.965 989.743C180.595 993.873 169.247 995.104 154.659 986.73C141.064 978.651 136.129 968.994 132.75 959.054L160.809 974.19L190.965 989.743Z" fill="#6D6D6D"/>
<path d="M74.86 989.582C77.1788 978.648 82.4484 968.506 97.4945 960.989C111.745 954.136 122.504 955.377 132.636 958.072L104.503 973.068L74.86 989.582Z" fill="#6D6D6D"/>
<path d="M74.8657 989.591C85.2359 993.72 96.5839 994.951 111.172 986.577C124.767 978.498 129.702 968.841 133.081 958.901L105.022 974.037L74.8657 989.591Z" fill="#6D6D6D"/>
<path d="M132.755 968.083C136.963 968.083 140.375 964.666 140.375 960.451C140.375 956.236 136.963 952.819 132.755 952.819C128.546 952.819 125.134 956.236 125.134 960.451C125.134 964.666 128.546 968.083 132.755 968.083Z" fill="#ECECEC"/>
</g>
</g>
<defs>
<filter id="filter0_i_1_3" x="672.004" y="-179.283" width="2033.78" height="1276.49" filterUnits="userSpaceOnUse" color-interpolation-filters="sRGB">
<feFlood flood-opacity="0" result="BackgroundImageFix"/>
<feBlend mode="normal" in="SourceGraphic" in2="BackgroundImageFix" result="shape"/>
<feColorMatrix in="SourceAlpha" type="matrix" values="0 0 0 0 0 0 0 0 0 0 0 0 0 0 0 0 0 0 127 0" result="hardAlpha"/>
<feOffset dy="4"/>
<feGaussianBlur stdDeviation="8.8"/>
<feComposite in2="hardAlpha" operator="arithmetic" k2="-1" k3="1"/>
<feColorMatrix type="matrix" values="0 0 0 0 0 0 0 0 0 0 0 0 0 0 0 0 0 0 0.25 0"/>
<feBlend mode="normal" in2="shape" result="effect1_innerShadow_1_3"/>
</filter>
<filter id="filter1_i_1_3" x="143.7" y="115.55" width="1119.08" height="146.95" filterUnits="userSpaceOnUse" color-interpolation-filters="sRGB">
<feFlood flood-opacity="0" result="BackgroundImageFix"/>
<feBlend mode="normal" in="SourceGraphic" in2="BackgroundImageFix" result="shape"/>
<feColorMatrix in="SourceAlpha" type="matrix" values="0 0 0 0 0 0 0 0 0 0 0 0 0 0 0 0 0 0 127 0" result="hardAlpha"/>
<feOffset dy="4"/>
<feGaussianBlur stdDeviation="2"/>
<feComposite in2="hardAlpha" operator="arithmetic" k2="-1" k3="1"/>
<feColorMatrix type="matrix" values="0 0 0 0 0 0 0 0 0 0 0 0 0 0 0 0 0 0 0.25 0"/>
<feBlend mode="normal" in2="shape" result="effect1_innerShadow_1_3"/>
</filter>
<filter id="filter2_d_1_3" x="224.863" y="945.24" width="468.364" height="86" filterUnits="userSpaceOnUse" color-interpolation-filters="sRGB">
<feFlood flood-opacity="0" result="BackgroundImageFix"/>
<feColorMatrix in="SourceAlpha" type="matrix" values="0 0 0 0 0 0 0 0 0 0 0 0 0 0 0 0 0 0 127 0" result="hardAlpha"/>
<feOffset dy="4"/>
<feGaussianBlur stdDeviation="2"/>
<feComposite in2="hardAlpha" operator="out"/>
<feColorMatrix type="matrix" values="0 0 0 0 0 0 0 0 0 0 0 0 0 0 0 0 0 0 0.25 0"/>
<feBlend mode="normal" in2="BackgroundImageFix" result="effect1_dropShadow_1_3"/>
<feBlend mode="normal" in="SourceGraphic" in2="effect1_dropShadow_1_3" result="shape"/>
</filter>
<filter id="filter3_d_1_3" x="-61" y="871" width="380" height="217" filterUnits="userSpaceOnUse" color-interpolation-filters="sRGB">
<feFlood flood-opacity="0" result="BackgroundImageFix"/>
<feColorMatrix in="SourceAlpha" type="matrix" values="0 0 0 0 0 0 0 0 0 0 0 0 0 0 0 0 0 0 127 0" result="hardAlpha"/>
<feOffset dy="4"/>
<feGaussianBlur stdDeviation="2"/>
<feComposite in2="hardAlpha" operator="out"/>
<feColorMatrix type="matrix" values="0 0 0 0 0 0 0 0 0 0 0 0 0 0 0 0 0 0 0.25 0"/>
<feBlend mode="normal" in2="BackgroundImageFix" result="effect1_dropShadow_1_3"/>
<feBlend mode="normal" in="SourceGraphic" in2="effect1_dropShadow_1_3" result="shape"/>
</filter>
<clipPath id="clip0_1_3">
<rect width="1920" height="1080" fill="white"/>
</clipPath>
</defs>
</svg>
