<svg width="602" height="621" viewBox="0 0 602 621" fill="none" xmlns="http://www.w3.org/2000/svg">
<g filter="url(#filter0_b_22_271)">
<ellipse cx="300.615" cy="306.5" rx="300.615" ry="306.5" fill="url(#paint0_radial_22_271)"/>
</g>
<g filter="url(#filter1_i_22_271)">
<circle cx="257.5" cy="366.5" r="14.5" fill="#00FF95"/>
<circle cx="296.5" cy="366.5" r="14.5" fill="#00FF95"/>
<circle cx="335.5" cy="366.5" r="14.5" fill="#00FF95"/>
<circle cx="374.5" cy="366.5" r="14.5" fill="#00FF95"/>
<circle cx="413.5" cy="366.5" r="14.5" fill="#00FF95"/>
<circle cx="452.5" cy="366.5" r="14.5" fill="#00FF95"/>
<circle cx="474.5" cy="336.5" r="14.5" fill="#00FF95"/>
<circle cx="493.5" cy="366.5" r="14.5" fill="#00FF95"/>
<circle cx="474.5" cy="396.5" r="14.5" fill="#00FF95"/>
<circle cx="452.5" cy="426.5" r="14.5" fill="#00FF95"/>
<circle cx="435.5" cy="456.5" r="14.5" fill="#00FF95"/>
<circle cx="240.5" cy="336.5" r="14.5" fill="#00FF95"/>
<circle cx="318.5" cy="336.5" r="14.5" fill="#00FF95"/>
<circle cx="357.5" cy="336.5" r="14.5" fill="#00FF95"/>
<circle cx="396.5" cy="336.5" r="14.5" fill="#00FF95"/>
<circle cx="435.5" cy="336.5" r="14.5" fill="#00FF95"/>
<circle cx="279.5" cy="336.5" r="14.5" fill="#00FF95"/>
<circle cx="491.5" cy="307.5" r="14.5" fill="#00FF95"/>
<circle cx="218.5" cy="307.5" r="14.5" fill="#00FF95"/>
<circle cx="181.5" cy="307.5" r="14.5" fill="#00FF95"/>
<circle cx="259.5" cy="426.5" r="14.5" fill="#00FF95"/>
<circle cx="279.5" cy="456.5" r="14.5" fill="#00FF95"/>
<circle cx="374.5" cy="307.5" r="14.5" fill="#00FF95"/>
<circle cx="413.5" cy="307.5" r="14.5" fill="#00FF95"/>
<circle cx="452.5" cy="307.5" r="14.5" fill="#00FF95"/>
<circle cx="296.5" cy="306.5" r="14.5" fill="#00FF95"/>
<circle cx="257.5" cy="307.5" r="14.5" fill="#00FF95"/>
<circle cx="335.5" cy="307.5" r="14.5" fill="#00FF95"/>
<circle cx="84.5" cy="276.5" r="14.5" fill="#00FF95"/>
<circle cx="513.5" cy="276.5" r="14.5" fill="#00FF95"/>
<circle cx="201.5" cy="276.5" r="14.5" fill="#00FF95"/>
<circle cx="162.5" cy="276.5" r="14.5" fill="#00FF95"/>
<circle cx="123.5" cy="276.5" r="14.5" fill="#00FF95"/>
<circle cx="396.5" cy="276.5" r="14.5" fill="#00FF95"/>
<circle cx="435.5" cy="276.5" r="14.5" fill="#00FF95"/>
<circle cx="474.5" cy="276.5" r="14.5" fill="#00FF95"/>
<circle cx="318.5" cy="276.5" r="14.5" fill="#00FF95"/>
<circle cx="357.5" cy="276.5" r="14.5" fill="#00FF95"/>
<circle cx="240.5" cy="276.5" r="14.5" fill="#00FF95"/>
<circle cx="279.5" cy="276.5" r="14.5" fill="#00FF95"/>
<circle cx="102.5" cy="246.5" r="14.5" fill="#00FF95"/>
<circle cx="63.5" cy="246.5" r="14.5" fill="#00FF95"/>
<circle cx="24.5" cy="246.5" r="14.5" fill="#00FF95"/>
<circle cx="531.5" cy="246.5" r="14.5" fill="#00FF95"/>
<circle cx="141.5" cy="246.5" r="14.5" fill="#00FF95"/>
<circle cx="180.5" cy="246.5" r="14.5" fill="#00FF95"/>
<circle cx="492.5" cy="246.5" r="14.5" fill="#00FF95"/>
<circle cx="258.5" cy="246.5" r="14.5" fill="#00FF95"/>
<circle cx="219.5" cy="246.5" r="14.5" fill="#00FF95"/>
<circle cx="297.5" cy="246.5" r="14.5" fill="#00FF95"/>
<circle cx="414.5" cy="246.5" r="14.5" fill="#00FF95"/>
<circle cx="453.5" cy="246.5" r="14.5" fill="#00FF95"/>
<circle cx="336.5" cy="246.5" r="14.5" fill="#00FF95"/>
<circle cx="375.5" cy="246.5" r="14.5" fill="#00FF95"/>
<circle cx="45.5" cy="216.5" r="14.5" fill="#00FF95"/>
<circle cx="84.5" cy="216.5" r="14.5" fill="#00FF95"/>
<circle cx="513.5" cy="216.5" r="14.5" fill="#00FF95"/>
<circle cx="552.5" cy="216.5" r="14.5" fill="#00FF95"/>
<circle cx="123.5" cy="216.5" r="14.5" fill="#00FF95"/>
<circle cx="201.5" cy="216.5" r="14.5" fill="#00FF95"/>
<circle cx="240.5" cy="216.5" r="14.5" fill="#00FF95"/>
<circle cx="162.5" cy="216.5" r="14.5" fill="#00FF95"/>
<circle cx="435.5" cy="216.5" r="14.5" fill="#00FF95"/>
<circle cx="474.5" cy="216.5" r="14.5" fill="#00FF95"/>
<circle cx="357.5" cy="216.5" r="14.5" fill="#00FF95"/>
<circle cx="396.5" cy="216.5" r="14.5" fill="#00FF95"/>
<circle cx="279.5" cy="216.5" r="14.5" fill="#00FF95"/>
<circle cx="318.5" cy="216.5" r="14.5" fill="#00FF95"/>
<circle cx="103.5" cy="186.5" r="14.5" fill="#00FF95"/>
<circle cx="376.5" cy="186.5" r="14.5" fill="#00FF95"/>
<circle cx="415.5" cy="186.5" r="14.5" fill="#00FF95"/>
<circle cx="454.5" cy="186.5" r="14.5" fill="#00FF95"/>
<circle cx="493.5" cy="186.5" r="14.5" fill="#00FF95"/>
<circle cx="142.5" cy="186.5" r="14.5" fill="#00FF95"/>
<circle cx="181.5" cy="186.5" r="14.5" fill="#00FF95"/>
<circle cx="220.5" cy="186.5" r="14.5" fill="#00FF95"/>
<circle cx="259.5" cy="186.5" r="14.5" fill="#00FF95"/>
<circle cx="298.5" cy="186.5" r="14.5" fill="#00FF95"/>
<circle cx="337.5" cy="186.5" r="14.5" fill="#00FF95"/>
<circle cx="87.5" cy="156.5" r="14.5" fill="#00FF95"/>
<circle cx="126.5" cy="156.5" r="14.5" fill="#00FF95"/>
<circle cx="165.5" cy="156.5" r="14.5" fill="#00FF95"/>
<circle cx="204.5" cy="156.5" r="14.5" fill="#00FF95"/>
<circle cx="243.5" cy="156.5" r="14.5" fill="#00FF95"/>
<circle cx="357.5" cy="156.5" r="14.5" fill="#00FF95"/>
<circle cx="396.5" cy="156.5" r="14.5" fill="#00FF95"/>
<circle cx="318.5" cy="156.5" r="14.5" fill="#00FF95"/>
<circle cx="279.5" cy="156.5" r="14.5" fill="#00FF95"/>
<circle cx="103.5" cy="126.5" r="14.5" fill="#00FF95"/>
<circle cx="220.5" cy="126.5" r="14.5" fill="#00FF95"/>
<circle cx="181.5" cy="126.5" r="14.5" fill="#00FF95"/>
<circle cx="259.5" cy="126.5" r="14.5" fill="#00FF95"/>
<circle cx="298.5" cy="126.5" r="14.5" fill="#00FF95"/>
<circle cx="337.5" cy="126.5" r="14.5" fill="#00FF95"/>
<circle cx="162.5" cy="96.5" r="14.5" fill="#00FF95"/>
<circle cx="201.5" cy="96.5" r="14.5" fill="#00FF95"/>
<circle cx="315.5" cy="96.5" r="14.5" fill="#00FF95"/>
<circle cx="298.5" cy="546.5" r="14.5" fill="#00FF95"/>
<circle cx="318.5" cy="576.5" r="14.5" fill="#00FF95"/>
<circle cx="298.5" cy="606.5" r="14.5" fill="#00FF95"/>
<circle cx="279.5" cy="576.5" r="14.5" fill="#00FF95"/>
<circle cx="335.5" cy="546.5" r="14.5" fill="#00FF95"/>
<circle cx="318.5" cy="516.5" r="14.5" fill="#00FF95"/>
<circle cx="357.5" cy="516.5" r="14.5" fill="#00FF95"/>
<circle cx="279.5" cy="516.5" r="14.5" fill="#00FF95"/>
<circle cx="335.5" cy="486.5" r="14.5" fill="#00FF95"/>
<circle cx="374.5" cy="486.5" r="14.5" fill="#00FF95"/>
<circle cx="296.5" cy="486.5" r="14.5" fill="#00FF95"/>
<circle cx="357.5" cy="456.5" r="14.5" fill="#00FF95"/>
<circle cx="395.5" cy="456.5" r="14.5" fill="#00FF95"/>
<circle cx="318.5" cy="456.5" r="14.5" fill="#00FF95"/>
<circle cx="279.5" cy="396.5" r="14.5" fill="#00FF95"/>
<circle cx="435.5" cy="396.5" r="14.5" fill="#00FF95"/>
<circle cx="318.5" cy="396.5" r="14.5" fill="#00FF95"/>
<circle cx="357.5" cy="396.5" r="14.5" fill="#00FF95"/>
<circle cx="396.5" cy="396.5" r="14.5" fill="#00FF95"/>
<circle cx="413.5" cy="426.5" r="14.5" fill="#00FF95"/>
<circle cx="374.5" cy="426.5" r="14.5" fill="#00FF95"/>
<circle cx="296.5" cy="426.5" r="14.5" fill="#00FF95"/>
<circle cx="335.5" cy="426.5" r="14.5" fill="#00FF95"/>
</g>
<defs>
<filter id="filter0_b_22_271" x="-4" y="-4" width="609.23" height="621" filterUnits="userSpaceOnUse" color-interpolation-filters="sRGB">
<feFlood flood-opacity="0" result="BackgroundImageFix"/>
<feGaussianBlur in="BackgroundImageFix" stdDeviation="2"/>
<feComposite in2="SourceAlpha" operator="in" result="effect1_backgroundBlur_22_271"/>
<feBlend mode="normal" in="SourceGraphic" in2="effect1_backgroundBlur_22_271" result="shape"/>
</filter>
<filter id="filter1_i_22_271" x="10" y="82" width="557" height="543" filterUnits="userSpaceOnUse" color-interpolation-filters="sRGB">
<feFlood flood-opacity="0" result="BackgroundImageFix"/>
<feBlend mode="normal" in="SourceGraphic" in2="BackgroundImageFix" result="shape"/>
<feColorMatrix in="SourceAlpha" type="matrix" values="0 0 0 0 0 0 0 0 0 0 0 0 0 0 0 0 0 0 127 0" result="hardAlpha"/>
<feOffset dy="4"/>
<feGaussianBlur stdDeviation="2"/>
<feComposite in2="hardAlpha" operator="arithmetic" k2="-1" k3="1"/>
<feColorMatrix type="matrix" values="0 0 0 0 0 0 0 0 0 0 0 0 0 0 0 0 0 0 0.25 0"/>
<feBlend mode="normal" in2="shape" result="effect1_innerShadow_22_271"/>
</filter>
<radialGradient id="paint0_radial_22_271" cx="0" cy="0" r="1" gradientUnits="userSpaceOnUse" gradientTransform="translate(300.615 306.5) rotate(90) scale(306.5 300.615)">
<stop stop-color="#4A39FE"/>
<stop offset="1" stop-color="#4A39FE" stop-opacity="0"/>
</radialGradient>
</defs>
</svg>
