<svg width="1900" height="912" viewBox="0 0 1900 912" fill="none" xmlns="http://www.w3.org/2000/svg">
<g clip-path="url(#clip0_16_3)">
<rect width="1900" height="912" fill="white"/>
<rect width="1920" height="1080" fill="#5ACE43"/>
<g filter="url(#filter0_i_16_3)">
<path d="M735.427 359.06C776.842 369.517 787.65 423.239 753.309 447.945L-122.037 1077.7C-151.569 1098.95 -193.636 1082.24 -200.846 1046.4L-381.167 150.097C-388.377 114.259 -355.854 83.5205 -320.239 92.513L735.427 359.06Z" fill="#FFAF38"/>
</g>
<g filter="url(#filter1_i_16_3)">
<path d="M384.29 257V152H398.84L463.04 237.95L460.64 239.3C460.24 236.8 459.89 234.1 459.59 231.2C459.29 228.2 458.99 225.05 458.69 221.75C458.49 218.35 458.29 214.8 458.09 211.1C457.99 207.3 457.89 203.35 457.79 199.25C457.69 195.15 457.64 190.9 457.64 186.5V152H473.84V257H458.99L395.84 174.2L397.49 172.1C397.99 178.2 398.39 183.4 398.69 187.7C399.09 191.9 399.39 195.5 399.59 198.5C399.89 201.4 400.09 203.8 400.19 205.7C400.29 207.5 400.34 209 400.34 210.2C400.44 211.4 400.49 212.45 400.49 213.35V257H384.29ZM547.185 258.5C539.785 258.5 532.935 257.15 526.635 254.45C520.435 251.75 514.985 248 510.285 243.2C505.685 238.3 502.085 232.6 499.485 226.1C496.985 219.5 495.735 212.3 495.735 204.5C495.735 196.7 496.985 189.55 499.485 183.05C502.085 176.45 505.685 170.75 510.285 165.95C514.985 161.05 520.435 157.25 526.635 154.55C532.935 151.85 539.785 150.5 547.185 150.5C554.585 150.5 561.385 151.85 567.585 154.55C573.885 157.25 579.335 161.05 583.935 165.95C588.635 170.85 592.235 176.6 594.735 183.2C597.335 189.7 598.635 196.8 598.635 204.5C598.635 212.2 597.335 219.35 594.735 225.95C592.235 232.45 588.635 238.15 583.935 243.05C579.335 247.95 573.885 251.75 567.585 254.45C561.385 257.15 554.585 258.5 547.185 258.5ZM547.185 242.75C552.285 242.75 556.935 241.8 561.135 239.9C565.435 238 569.135 235.35 572.235 231.95C575.335 228.45 577.735 224.4 579.435 219.8C581.235 215.1 582.135 210 582.135 204.5C582.135 199 581.235 193.95 579.435 189.35C577.735 184.65 575.335 180.6 572.235 177.2C569.135 173.7 565.435 171 561.135 169.1C556.935 167.2 552.285 166.25 547.185 166.25C542.085 166.25 537.385 167.2 533.085 169.1C528.885 171 525.185 173.65 521.985 177.05C518.885 180.45 516.485 184.5 514.785 189.2C513.085 193.8 512.235 198.9 512.235 204.5C512.235 210 513.085 215.1 514.785 219.8C516.485 224.5 518.885 228.55 521.985 231.95C525.185 235.35 528.885 238 533.085 239.9C537.385 241.8 542.085 242.75 547.185 242.75ZM652.969 258.5C647.269 258.5 641.969 257.75 637.069 256.25C632.269 254.75 627.869 252.5 623.869 249.5C619.969 246.4 616.469 242.6 613.369 238.1L624.469 225.35C629.369 232.35 634.069 237.2 638.569 239.9C643.069 242.6 648.419 243.95 654.619 243.95C658.419 243.95 661.869 243.35 664.969 242.15C668.069 240.95 670.519 239.3 672.319 237.2C674.119 235.1 675.019 232.7 675.019 230C675.019 228.2 674.719 226.5 674.119 224.9C673.519 223.3 672.569 221.85 671.269 220.55C670.069 219.25 668.469 218.05 666.469 216.95C664.569 215.85 662.319 214.9 659.719 214.1C657.119 213.2 654.119 212.45 650.719 211.85C645.319 210.75 640.619 209.3 636.619 207.5C632.619 205.7 629.269 203.45 626.569 200.75C623.869 198.05 621.869 195 620.569 191.6C619.269 188.1 618.619 184.2 618.619 179.9C618.619 175.7 619.519 171.8 621.319 168.2C623.219 164.6 625.769 161.5 628.969 158.9C632.269 156.2 636.119 154.15 640.519 152.75C644.919 151.25 649.669 150.5 654.769 150.5C660.169 150.5 665.119 151.2 669.619 152.6C674.119 154 678.119 156.1 681.619 158.9C685.119 161.6 688.019 164.95 690.319 168.95L678.919 180.2C676.919 176.9 674.669 174.15 672.169 171.95C669.669 169.65 666.919 167.95 663.919 166.85C660.919 165.65 657.719 165.05 654.319 165.05C650.419 165.05 647.019 165.65 644.119 166.85C641.219 168.05 638.919 169.75 637.219 171.95C635.619 174.05 634.819 176.55 634.819 179.45C634.819 181.55 635.219 183.5 636.019 185.3C636.819 187 638.019 188.55 639.619 189.95C641.319 191.25 643.569 192.45 646.369 193.55C649.169 194.55 652.519 195.45 656.419 196.25C661.919 197.45 666.819 199 671.119 200.9C675.419 202.7 679.069 204.85 682.069 207.35C685.069 209.85 687.319 212.65 688.819 215.75C690.419 218.85 691.219 222.2 691.219 225.8C691.219 232.5 689.669 238.3 686.569 243.2C683.469 248.1 679.069 251.9 673.369 254.6C667.669 257.2 660.869 258.5 652.969 258.5ZM746.573 258.5C740.873 258.5 735.573 257.75 730.673 256.25C725.873 254.75 721.473 252.5 717.473 249.5C713.573 246.4 710.073 242.6 706.973 238.1L718.073 225.35C722.973 232.35 727.673 237.2 732.173 239.9C736.673 242.6 742.023 243.95 748.223 243.95C752.023 243.95 755.473 243.35 758.573 242.15C761.673 240.95 764.123 239.3 765.923 237.2C767.723 235.1 768.623 232.7 768.623 230C768.623 228.2 768.323 226.5 767.723 224.9C767.123 223.3 766.173 221.85 764.873 220.55C763.673 219.25 762.073 218.05 760.073 216.95C758.173 215.85 755.923 214.9 753.323 214.1C750.723 213.2 747.723 212.45 744.323 211.85C738.923 210.75 734.223 209.3 730.223 207.5C726.223 205.7 722.873 203.45 720.173 200.75C717.473 198.05 715.473 195 714.173 191.6C712.873 188.1 712.223 184.2 712.223 179.9C712.223 175.7 713.123 171.8 714.923 168.2C716.823 164.6 719.373 161.5 722.573 158.9C725.873 156.2 729.723 154.15 734.123 152.75C738.523 151.25 743.273 150.5 748.373 150.5C753.773 150.5 758.723 151.2 763.223 152.6C767.723 154 771.723 156.1 775.223 158.9C778.723 161.6 781.623 164.95 783.923 168.95L772.523 180.2C770.523 176.9 768.273 174.15 765.773 171.95C763.273 169.65 760.523 167.95 757.523 166.85C754.523 165.65 751.323 165.05 747.923 165.05C744.023 165.05 740.623 165.65 737.723 166.85C734.823 168.05 732.523 169.75 730.823 171.95C729.223 174.05 728.423 176.55 728.423 179.45C728.423 181.55 728.823 183.5 729.623 185.3C730.423 187 731.623 188.55 733.223 189.95C734.923 191.25 737.173 192.45 739.973 193.55C742.773 194.55 746.123 195.45 750.023 196.25C755.523 197.45 760.423 199 764.723 200.9C769.023 202.7 772.673 204.85 775.673 207.35C778.673 209.85 780.923 212.65 782.423 215.75C784.023 218.85 784.823 222.2 784.823 225.8C784.823 232.5 783.273 238.3 780.173 243.2C777.073 248.1 772.673 251.9 766.973 254.6C761.273 257.2 754.473 258.5 746.573 258.5ZM796.826 257L837.476 152H853.976L894.326 257H877.076L853.076 193.7C852.776 193 852.176 191.3 851.276 188.6C850.476 185.9 849.526 182.9 848.426 179.6C847.326 176.3 846.326 173.3 845.426 170.6C844.526 167.8 843.926 166 843.626 165.2L847.076 165.05C846.476 166.75 845.726 168.9 844.826 171.5C844.026 174.1 843.126 176.85 842.126 179.75C841.226 182.65 840.326 185.4 839.426 188C838.526 190.5 837.776 192.6 837.176 194.3L813.326 257H796.826ZM814.826 230.9L820.826 215.3H868.526L875.426 230.9H814.826ZM945.205 258.5C939.505 258.5 934.205 257.75 929.305 256.25C924.505 254.75 920.105 252.5 916.105 249.5C912.205 246.4 908.705 242.6 905.605 238.1L916.705 225.35C921.605 232.35 926.305 237.2 930.805 239.9C935.305 242.6 940.655 243.95 946.855 243.95C950.655 243.95 954.105 243.35 957.205 242.15C960.305 240.95 962.755 239.3 964.555 237.2C966.355 235.1 967.255 232.7 967.255 230C967.255 228.2 966.955 226.5 966.355 224.9C965.755 223.3 964.805 221.85 963.505 220.55C962.305 219.25 960.705 218.05 958.705 216.95C956.805 215.85 954.555 214.9 951.955 214.1C949.355 213.2 946.355 212.45 942.955 211.85C937.555 210.75 932.855 209.3 928.855 207.5C924.855 205.7 921.505 203.45 918.805 200.75C916.105 198.05 914.105 195 912.805 191.6C911.505 188.1 910.855 184.2 910.855 179.9C910.855 175.7 911.755 171.8 913.555 168.2C915.455 164.6 918.005 161.5 921.205 158.9C924.505 156.2 928.355 154.15 932.755 152.75C937.155 151.25 941.905 150.5 947.005 150.5C952.405 150.5 957.355 151.2 961.855 152.6C966.355 154 970.355 156.1 973.855 158.9C977.355 161.6 980.255 164.95 982.555 168.95L971.155 180.2C969.155 176.9 966.905 174.15 964.405 171.95C961.905 169.65 959.155 167.95 956.155 166.85C953.155 165.65 949.955 165.05 946.555 165.05C942.655 165.05 939.255 165.65 936.355 166.85C933.455 168.05 931.155 169.75 929.455 171.95C927.855 174.05 927.055 176.55 927.055 179.45C927.055 181.55 927.455 183.5 928.255 185.3C929.055 187 930.255 188.55 931.855 189.95C933.555 191.25 935.805 192.45 938.605 193.55C941.405 194.55 944.755 195.45 948.655 196.25C954.155 197.45 959.055 199 963.355 200.9C967.655 202.7 971.305 204.85 974.305 207.35C977.305 209.85 979.555 212.65 981.055 215.75C982.655 218.85 983.455 222.2 983.455 225.8C983.455 232.5 981.905 238.3 978.805 243.2C975.705 248.1 971.305 251.9 965.605 254.6C959.905 257.2 953.105 258.5 945.205 258.5Z" fill="#05009B"/>
<path d="M1046.95 257V152H1069.75L1124.8 227L1119.85 226.25C1119.35 222.95 1118.95 219.8 1118.65 216.8C1118.35 213.8 1118.05 210.85 1117.75 207.95C1117.55 205.05 1117.35 202.1 1117.15 199.1C1117.05 196.1 1116.95 192.85 1116.85 189.35C1116.85 185.85 1116.85 182.05 1116.85 177.95V152H1141.6V257H1118.5L1061.05 179.6L1068.7 180.65C1069.2 185.45 1069.6 189.55 1069.9 192.95C1070.3 196.25 1070.6 199.2 1070.8 201.8C1071.1 204.4 1071.3 206.75 1071.4 208.85C1071.5 210.95 1071.55 213.05 1071.55 215.15C1071.65 217.15 1071.7 219.4 1071.7 221.9V257H1046.95ZM1215.8 258.5C1207.8 258.5 1200.5 257.15 1193.9 254.45C1187.3 251.75 1181.55 247.95 1176.65 243.05C1171.75 238.15 1167.95 232.4 1165.25 225.8C1162.55 219.2 1161.2 211.95 1161.2 204.05C1161.2 196.15 1162.55 188.9 1165.25 182.3C1167.95 175.7 1171.75 169.95 1176.65 165.05C1181.55 160.15 1187.3 156.35 1193.9 153.65C1200.5 150.95 1207.75 149.6 1215.65 149.6C1223.55 149.6 1230.8 150.95 1237.4 153.65C1244 156.35 1249.75 160.15 1254.65 165.05C1259.55 169.95 1263.3 175.7 1265.9 182.3C1268.6 188.9 1269.95 196.15 1269.95 204.05C1269.95 211.85 1268.6 219.1 1265.9 225.8C1263.3 232.4 1259.55 238.15 1254.65 243.05C1249.75 247.95 1244 251.75 1237.4 254.45C1230.8 257.15 1223.6 258.5 1215.8 258.5ZM1215.65 234.5C1219.75 234.5 1223.5 233.75 1226.9 232.25C1230.4 230.75 1233.4 228.65 1235.9 225.95C1238.5 223.15 1240.5 219.9 1241.9 216.2C1243.3 212.5 1244 208.45 1244 204.05C1244 199.65 1243.3 195.6 1241.9 191.9C1240.5 188.2 1238.5 185 1235.9 182.3C1233.4 179.5 1230.4 177.35 1226.9 175.85C1223.5 174.35 1219.75 173.6 1215.65 173.6C1211.55 173.6 1207.75 174.35 1204.25 175.85C1200.85 177.35 1197.85 179.5 1195.25 182.3C1192.65 185 1190.65 188.2 1189.25 191.9C1187.95 195.6 1187.3 199.65 1187.3 204.05C1187.3 208.45 1187.95 212.55 1189.25 216.35C1190.65 220.05 1192.65 223.25 1195.25 225.95C1197.85 228.65 1200.85 230.75 1204.25 232.25C1207.75 233.75 1211.55 234.5 1215.65 234.5ZM1307.93 257V174.5H1276.73V152H1365.38V174.5H1333.43V257H1307.93ZM1381.32 257V235.55H1399.02V173.45H1381.32V152H1442.37V173.45H1424.52V235.55H1442.37V257H1381.32ZM1398.57 144.8L1393.02 132.8L1424.37 115.55L1432.62 133.1L1398.57 144.8ZM1514.33 258.5C1506.43 258.5 1499.13 257.2 1492.43 254.6C1485.83 251.9 1480.08 248.15 1475.18 243.35C1470.28 238.45 1466.48 232.7 1463.78 226.1C1461.18 219.4 1459.88 212.05 1459.88 204.05C1459.88 196.25 1461.28 189.05 1464.08 182.45C1466.88 175.85 1470.73 170.15 1475.63 165.35C1480.63 160.45 1486.48 156.65 1493.18 153.95C1499.98 151.25 1507.38 149.9 1515.38 149.9C1520.38 149.9 1525.28 150.55 1530.08 151.85C1534.88 153.15 1539.33 155.1 1543.43 157.7C1547.63 160.2 1551.23 163.2 1554.23 166.7L1538.63 184.55C1536.53 182.35 1534.28 180.45 1531.88 178.85C1529.58 177.15 1527.03 175.85 1524.23 174.95C1521.43 174.05 1518.43 173.6 1515.23 173.6C1511.23 173.6 1507.43 174.35 1503.83 175.85C1500.33 177.25 1497.23 179.3 1494.53 182C1491.93 184.6 1489.88 187.8 1488.38 191.6C1486.88 195.4 1486.13 199.65 1486.13 204.35C1486.13 208.95 1486.88 213.15 1488.38 216.95C1489.88 220.65 1491.98 223.85 1494.68 226.55C1497.38 229.25 1500.63 231.3 1504.43 232.7C1508.33 234.1 1512.63 234.8 1517.33 234.8C1520.53 234.8 1523.58 234.35 1526.48 233.45C1529.38 232.55 1532.03 231.35 1534.43 229.85C1536.93 228.25 1539.13 226.45 1541.03 224.45L1553.33 243.95C1550.83 246.75 1547.48 249.25 1543.28 251.45C1539.18 253.65 1534.58 255.4 1529.48 256.7C1524.48 257.9 1519.43 258.5 1514.33 258.5ZM1568.68 257V235.55H1586.38V173.45H1568.68V152H1629.73V173.45H1611.88V235.55H1629.73V257H1568.68ZM1640.63 257L1682.18 152H1703.78L1745.03 257H1719.23L1699.43 203.75C1698.63 201.65 1697.83 199.4 1697.03 197C1696.23 194.6 1695.43 192.15 1694.63 189.65C1693.83 187.05 1693.03 184.55 1692.23 182.15C1691.53 179.65 1690.93 177.35 1690.43 175.25L1694.93 175.1C1694.33 177.6 1693.63 180.05 1692.83 182.45C1692.13 184.85 1691.38 187.25 1690.58 189.65C1689.88 191.95 1689.08 194.3 1688.18 196.7C1687.28 199 1686.43 201.4 1685.63 203.9L1665.83 257H1640.63ZM1660.43 236.9L1668.38 217.7H1716.68L1724.48 236.9H1660.43ZM1792.93 258.5C1786.03 258.5 1779.78 257.7 1774.18 256.1C1768.68 254.4 1763.78 252 1759.48 248.9C1755.18 245.7 1751.33 241.95 1747.93 237.65L1763.38 220.1C1768.38 226.8 1773.38 231.3 1778.38 233.6C1783.48 235.9 1788.73 237.05 1794.13 237.05C1796.83 237.05 1799.28 236.7 1801.48 236C1803.68 235.3 1805.38 234.3 1806.58 233C1807.78 231.6 1808.38 229.9 1808.38 227.9C1808.38 226.4 1807.98 225.05 1807.18 223.85C1806.48 222.65 1805.48 221.6 1804.18 220.7C1802.88 219.8 1801.33 219 1799.53 218.3C1797.73 217.5 1795.83 216.85 1793.83 216.35C1791.83 215.75 1789.78 215.25 1787.68 214.85C1781.88 213.55 1776.83 211.95 1772.53 210.05C1768.23 208.15 1764.63 205.85 1761.73 203.15C1758.93 200.35 1756.83 197.2 1755.43 193.7C1754.03 190.1 1753.33 186.1 1753.33 181.7C1753.33 177 1754.38 172.7 1756.48 168.8C1758.68 164.8 1761.58 161.4 1765.18 158.6C1768.88 155.7 1773.13 153.5 1777.93 152C1782.73 150.4 1787.73 149.6 1792.93 149.6C1799.83 149.6 1805.73 150.35 1810.63 151.85C1815.63 153.25 1819.88 155.3 1823.38 158C1826.98 160.7 1830.03 163.95 1832.53 167.75L1816.78 182.9C1814.68 180.3 1812.38 178.15 1809.88 176.45C1807.48 174.75 1804.88 173.45 1802.08 172.55C1799.38 171.65 1796.58 171.2 1793.68 171.2C1790.68 171.2 1788.08 171.6 1785.88 172.4C1783.78 173.1 1782.13 174.15 1780.93 175.55C1779.73 176.85 1779.13 178.45 1779.13 180.35C1779.13 182.05 1779.63 183.5 1780.63 184.7C1781.63 185.9 1782.98 187 1784.68 188C1786.38 188.9 1788.33 189.7 1790.53 190.4C1792.73 191 1795.03 191.5 1797.43 191.9C1802.93 193 1807.88 194.45 1812.28 196.25C1816.78 198.05 1820.63 200.25 1823.83 202.85C1827.13 205.45 1829.63 208.55 1831.33 212.15C1833.13 215.65 1834.03 219.75 1834.03 224.45C1834.03 231.75 1832.23 237.95 1828.63 243.05C1825.13 248.05 1820.28 251.9 1814.08 254.6C1807.98 257.2 1800.93 258.5 1792.93 258.5Z" fill="#FFAF38"/>
</g>
<path d="M946.739 444.7C942.679 444.7 938.945 444 935.539 442.6C932.132 441.2 929.169 439.24 926.649 436.72C924.175 434.2 922.239 431.237 920.839 427.83C919.485 424.423 918.809 420.69 918.809 416.63C918.809 412.617 919.485 408.907 920.839 405.5C922.239 402.093 924.175 399.13 926.649 396.61C929.169 394.09 932.132 392.13 935.539 390.73C938.945 389.33 942.679 388.63 946.739 388.63C950.752 388.63 954.462 389.33 957.869 390.73C961.275 392.13 964.239 394.09 966.759 396.61C969.279 399.13 971.215 402.093 972.569 405.5C973.969 408.907 974.669 412.617 974.669 416.63C974.669 420.69 973.969 424.423 972.569 427.83C971.215 431.237 969.279 434.2 966.759 436.72C964.239 439.24 961.275 441.2 957.869 442.6C954.462 444 950.752 444.7 946.739 444.7ZM946.739 439.52C949.959 439.52 952.945 438.96 955.699 437.84C958.452 436.673 960.832 435.063 962.839 433.01C964.892 430.91 966.479 428.483 967.599 425.73C968.719 422.93 969.279 419.897 969.279 416.63C969.279 413.41 968.719 410.423 967.599 407.67C966.479 404.87 964.892 402.443 962.839 400.39C960.832 398.29 958.452 396.68 955.699 395.56C952.945 394.393 949.959 393.81 946.739 393.81C943.472 393.81 940.462 394.393 937.709 395.56C934.955 396.68 932.552 398.29 930.499 400.39C928.492 402.443 926.929 404.87 925.809 407.67C924.689 410.423 924.129 413.41 924.129 416.63C924.129 419.897 924.689 422.93 925.809 425.73C926.929 428.483 928.492 430.91 930.499 433.01C932.552 435.063 934.955 436.673 937.709 437.84C940.462 438.96 943.472 439.52 946.739 439.52ZM1039.9 460.38C1039.11 460.38 1038.45 460.123 1037.94 459.61C1037.43 459.143 1037.17 458.49 1037.17 457.65V437.07C1035.63 439.263 1033.6 441.037 1031.08 442.39C1028.56 443.697 1025.74 444.35 1022.61 444.35C1019.02 444.35 1015.8 443.51 1012.95 441.83C1010.1 440.103 1007.84 437.77 1006.16 434.83C1004.53 431.89 1003.71 428.577 1003.71 424.89C1003.71 421.157 1004.55 417.82 1006.23 414.88C1007.96 411.94 1010.29 409.63 1013.23 407.95C1016.17 406.223 1019.48 405.36 1023.17 405.36C1026.81 405.36 1030.08 406.2 1032.97 407.88C1035.91 409.56 1038.22 411.87 1039.9 414.81C1041.63 417.703 1042.54 420.97 1042.63 424.61V457.65C1042.63 458.49 1042.37 459.143 1041.86 459.61C1041.35 460.123 1040.69 460.38 1039.9 460.38ZM1023.17 439.45C1025.88 439.45 1028.28 438.82 1030.38 437.56C1032.53 436.3 1034.21 434.573 1035.42 432.38C1036.68 430.14 1037.31 427.643 1037.31 424.89C1037.31 422.09 1036.68 419.593 1035.42 417.4C1034.21 415.207 1032.53 413.48 1030.38 412.22C1028.28 410.913 1025.88 410.26 1023.17 410.26C1020.51 410.26 1018.11 410.913 1015.96 412.22C1013.81 413.48 1012.11 415.207 1010.85 417.4C1009.59 419.593 1008.96 422.09 1008.96 424.89C1008.96 427.643 1009.59 430.14 1010.85 432.38C1012.11 434.573 1013.81 436.3 1015.96 437.56C1018.11 438.82 1020.51 439.45 1023.17 439.45ZM1071.89 444.42C1068.58 444.42 1065.61 443.743 1063 442.39C1060.39 440.99 1058.31 438.96 1056.77 436.3C1055.28 433.64 1054.53 430.397 1054.53 426.57V408.37C1054.53 407.623 1054.79 406.993 1055.3 406.48C1055.81 405.967 1056.44 405.71 1057.19 405.71C1057.98 405.71 1058.64 405.967 1059.15 406.48C1059.66 406.993 1059.92 407.623 1059.92 408.37V426.57C1059.92 429.463 1060.46 431.843 1061.53 433.71C1062.65 435.577 1064.14 436.977 1066.01 437.91C1067.92 438.843 1070.07 439.31 1072.45 439.31C1074.74 439.31 1076.79 438.867 1078.61 437.98C1080.48 437.093 1081.95 435.88 1083.02 434.34C1084.09 432.8 1084.63 431.05 1084.63 429.09H1088.48C1088.34 432.03 1087.52 434.667 1086.03 437C1084.58 439.287 1082.62 441.107 1080.15 442.46C1077.68 443.767 1074.92 444.42 1071.89 444.42ZM1087.29 444C1086.5 444 1085.84 443.767 1085.33 443.3C1084.86 442.787 1084.63 442.11 1084.63 441.27V408.37C1084.63 407.577 1084.86 406.947 1085.33 406.48C1085.84 405.967 1086.5 405.71 1087.29 405.71C1088.08 405.71 1088.74 405.967 1089.25 406.48C1089.76 406.947 1090.02 407.577 1090.02 408.37V441.27C1090.02 442.11 1089.76 442.787 1089.25 443.3C1088.74 443.767 1088.08 444 1087.29 444ZM1119.96 444.35C1116.18 444.35 1112.82 443.533 1109.88 441.9C1106.99 440.22 1104.7 437.91 1103.02 434.97C1101.39 432.03 1100.57 428.67 1100.57 424.89C1100.57 421.063 1101.34 417.703 1102.88 414.81C1104.47 411.87 1106.64 409.56 1109.39 407.88C1112.15 406.2 1115.32 405.36 1118.91 405.36C1122.46 405.36 1125.54 406.177 1128.15 407.81C1130.81 409.397 1132.87 411.613 1134.31 414.46C1135.76 417.307 1136.48 420.55 1136.48 424.19C1136.48 424.937 1136.25 425.543 1135.78 426.01C1135.32 426.43 1134.71 426.64 1133.96 426.64H1104.21V422.16H1134.52L1131.51 424.33C1131.56 421.623 1131.07 419.197 1130.04 417.05C1129.02 414.903 1127.55 413.223 1125.63 412.01C1123.77 410.797 1121.53 410.19 1118.91 410.19C1116.25 410.19 1113.92 410.82 1111.91 412.08C1109.91 413.34 1108.34 415.09 1107.22 417.33C1106.15 419.523 1105.61 422.043 1105.61 424.89C1105.61 427.737 1106.22 430.257 1107.43 432.45C1108.69 434.643 1110.4 436.37 1112.54 437.63C1114.69 438.89 1117.16 439.52 1119.96 439.52C1121.64 439.52 1123.32 439.24 1125 438.68C1126.73 438.073 1128.11 437.327 1129.13 436.44C1129.65 436.02 1130.23 435.81 1130.88 435.81C1131.54 435.763 1132.1 435.927 1132.56 436.3C1133.17 436.86 1133.47 437.467 1133.47 438.12C1133.52 438.773 1133.26 439.333 1132.7 439.8C1131.16 441.107 1129.2 442.203 1126.82 443.09C1124.44 443.93 1122.16 444.35 1119.96 444.35ZM1183.47 444.35C1179.69 444.35 1176.33 443.533 1173.39 441.9C1170.5 440.22 1168.21 437.91 1166.53 434.97C1164.9 432.03 1164.08 428.67 1164.08 424.89C1164.08 421.063 1164.85 417.703 1166.39 414.81C1167.98 411.87 1170.15 409.56 1172.9 407.88C1175.65 406.2 1178.83 405.36 1182.42 405.36C1185.97 405.36 1189.05 406.177 1191.66 407.81C1194.32 409.397 1196.37 411.613 1197.82 414.46C1199.27 417.307 1199.99 420.55 1199.99 424.19C1199.99 424.937 1199.76 425.543 1199.29 426.01C1198.82 426.43 1198.22 426.64 1197.47 426.64H1167.72V422.16H1198.03L1195.02 424.33C1195.07 421.623 1194.58 419.197 1193.55 417.05C1192.52 414.903 1191.05 413.223 1189.14 412.01C1187.27 410.797 1185.03 410.19 1182.42 410.19C1179.76 410.19 1177.43 410.82 1175.42 412.08C1173.41 413.34 1171.85 415.09 1170.73 417.33C1169.66 419.523 1169.12 422.043 1169.12 424.89C1169.12 427.737 1169.73 430.257 1170.94 432.45C1172.2 434.643 1173.9 436.37 1176.05 437.63C1178.2 438.89 1180.67 439.52 1183.47 439.52C1185.15 439.52 1186.83 439.24 1188.51 438.68C1190.24 438.073 1191.61 437.327 1192.64 436.44C1193.15 436.02 1193.74 435.81 1194.39 435.81C1195.04 435.763 1195.6 435.927 1196.07 436.3C1196.68 436.86 1196.98 437.467 1196.98 438.12C1197.03 438.773 1196.77 439.333 1196.21 439.8C1194.67 441.107 1192.71 442.203 1190.33 443.09C1187.95 443.93 1185.66 444.35 1183.47 444.35ZM1222.48 444.35C1219.73 444.35 1217 443.883 1214.29 442.95C1211.58 442.017 1209.39 440.617 1207.71 438.75C1207.2 438.19 1206.99 437.56 1207.08 436.86C1207.17 436.16 1207.52 435.553 1208.13 435.04C1208.78 434.573 1209.46 434.387 1210.16 434.48C1210.86 434.573 1211.44 434.877 1211.91 435.39C1213.03 436.697 1214.5 437.7 1216.32 438.4C1218.19 439.1 1220.24 439.45 1222.48 439.45C1225.93 439.45 1228.43 438.867 1229.97 437.7C1231.51 436.487 1232.3 435.04 1232.35 433.36C1232.35 431.68 1231.56 430.303 1229.97 429.23C1228.38 428.11 1225.77 427.247 1222.13 426.64C1217.42 425.893 1213.96 424.587 1211.77 422.72C1209.58 420.853 1208.48 418.637 1208.48 416.07C1208.48 413.69 1209.11 411.707 1210.37 410.12C1211.63 408.533 1213.31 407.343 1215.41 406.55C1217.51 405.757 1219.82 405.36 1222.34 405.36C1225.47 405.36 1228.15 405.897 1230.39 406.97C1232.68 408.043 1234.52 409.49 1235.92 411.31C1236.39 411.917 1236.57 412.547 1236.48 413.2C1236.39 413.853 1236.01 414.39 1235.36 414.81C1234.8 415.137 1234.15 415.253 1233.4 415.16C1232.7 415.02 1232.09 414.67 1231.58 414.11C1230.41 412.757 1229.06 411.777 1227.52 411.17C1225.98 410.517 1224.21 410.19 1222.2 410.19C1219.63 410.19 1217.58 410.727 1216.04 411.8C1214.5 412.827 1213.73 414.133 1213.73 415.72C1213.73 416.793 1214.01 417.727 1214.57 418.52C1215.18 419.313 1216.18 420.013 1217.58 420.62C1219.03 421.227 1221.03 421.74 1223.6 422.16C1227.1 422.72 1229.85 423.56 1231.86 424.68C1233.91 425.753 1235.36 427.037 1236.2 428.53C1237.09 429.977 1237.53 431.563 1237.53 433.29C1237.53 435.483 1236.88 437.42 1235.57 439.1C1234.31 440.733 1232.54 442.017 1230.25 442.95C1228.01 443.883 1225.42 444.35 1222.48 444.35ZM1261.82 444C1259.35 444 1257.13 443.417 1255.17 442.25C1253.26 441.083 1251.74 439.497 1250.62 437.49C1249.5 435.437 1248.94 433.103 1248.94 430.49V396.26C1248.94 395.467 1249.18 394.813 1249.64 394.3C1250.16 393.787 1250.81 393.53 1251.6 393.53C1252.4 393.53 1253.05 393.787 1253.56 394.3C1254.08 394.813 1254.33 395.467 1254.33 396.26V430.49C1254.33 432.87 1255.03 434.83 1256.43 436.37C1257.83 437.863 1259.63 438.61 1261.82 438.61H1263.71C1264.46 438.61 1265.07 438.867 1265.53 439.38C1266 439.893 1266.23 440.547 1266.23 441.34C1266.23 442.133 1265.95 442.787 1265.39 443.3C1264.83 443.767 1264.13 444 1263.29 444H1261.82ZM1244.39 411.8C1243.69 411.8 1243.11 411.59 1242.64 411.17C1242.18 410.703 1241.94 410.143 1241.94 409.49C1241.94 408.79 1242.18 408.23 1242.64 407.81C1243.11 407.343 1243.69 407.11 1244.39 407.11H1262.24C1262.94 407.11 1263.53 407.343 1263.99 407.81C1264.46 408.23 1264.69 408.79 1264.69 409.49C1264.69 410.143 1264.46 410.703 1263.99 411.17C1263.53 411.59 1262.94 411.8 1262.24 411.8H1244.39ZM1291.88 444.35C1288.28 444.35 1285.06 443.51 1282.22 441.83C1279.37 440.103 1277.11 437.77 1275.43 434.83C1273.79 431.89 1272.98 428.577 1272.98 424.89C1272.98 421.157 1273.82 417.82 1275.5 414.88C1277.22 411.94 1279.56 409.63 1282.5 407.95C1285.44 406.223 1288.75 405.36 1292.44 405.36C1296.12 405.36 1299.41 406.223 1302.31 407.95C1305.25 409.63 1307.56 411.94 1309.24 414.88C1310.96 417.82 1311.85 421.157 1311.9 424.89L1309.73 426.57C1309.73 429.93 1308.93 432.963 1307.35 435.67C1305.81 438.33 1303.68 440.453 1300.98 442.04C1298.32 443.58 1295.28 444.35 1291.88 444.35ZM1292.44 439.45C1295.14 439.45 1297.55 438.82 1299.65 437.56C1301.79 436.3 1303.47 434.573 1304.69 432.38C1305.95 430.14 1306.58 427.643 1306.58 424.89C1306.58 422.09 1305.95 419.593 1304.69 417.4C1303.47 415.207 1301.79 413.48 1299.65 412.22C1297.55 410.913 1295.14 410.26 1292.44 410.26C1289.78 410.26 1287.37 410.913 1285.23 412.22C1283.08 413.48 1281.38 415.207 1280.12 417.4C1278.86 419.593 1278.23 422.09 1278.23 424.89C1278.23 427.643 1278.86 430.14 1280.12 432.38C1281.38 434.573 1283.08 436.3 1285.23 437.56C1287.37 438.82 1289.78 439.45 1292.44 439.45ZM1309.17 444C1308.37 444 1307.72 443.767 1307.21 443.3C1306.69 442.787 1306.44 442.133 1306.44 441.34V429.37L1307.77 423.84L1311.9 424.89V441.34C1311.9 442.133 1311.64 442.787 1311.13 443.3C1310.61 443.767 1309.96 444 1309.17 444ZM1291.95 399.9C1291.2 399.9 1290.55 399.643 1289.99 399.13C1289.47 398.57 1289.22 397.917 1289.22 397.17C1289.22 396.423 1289.43 395.817 1289.85 395.35L1297.76 387.44C1298.27 386.927 1298.9 386.67 1299.65 386.67C1300.44 386.67 1301.09 386.95 1301.61 387.51C1302.12 388.023 1302.38 388.677 1302.38 389.47C1302.38 389.797 1302.31 390.123 1302.17 390.45C1302.07 390.777 1301.89 391.057 1301.61 391.29L1293.77 399.2C1293.3 399.667 1292.69 399.9 1291.95 399.9ZM1359.76 444.35C1356.16 444.35 1352.94 443.51 1350.1 441.83C1347.25 440.103 1344.99 437.77 1343.31 434.83C1341.67 431.89 1340.86 428.577 1340.86 424.89C1340.86 421.157 1341.7 417.82 1343.38 414.88C1345.1 411.94 1347.44 409.63 1350.38 407.95C1353.32 406.223 1356.63 405.36 1360.32 405.36C1364 405.36 1367.29 406.223 1370.19 407.95C1373.13 409.63 1375.44 411.94 1377.12 414.88C1378.84 417.82 1379.73 421.157 1379.78 424.89L1377.61 426.57C1377.61 429.93 1376.81 432.963 1375.23 435.67C1373.69 438.33 1371.56 440.453 1368.86 442.04C1366.2 443.58 1363.16 444.35 1359.76 444.35ZM1360.32 439.45C1363.02 439.45 1365.43 438.82 1367.53 437.56C1369.67 436.3 1371.35 434.573 1372.57 432.38C1373.83 430.14 1374.46 427.643 1374.46 424.89C1374.46 422.09 1373.83 419.593 1372.57 417.4C1371.35 415.207 1369.67 413.48 1367.53 412.22C1365.43 410.913 1363.02 410.26 1360.32 410.26C1357.66 410.26 1355.25 410.913 1353.11 412.22C1350.96 413.48 1349.26 415.207 1348 417.4C1346.74 419.593 1346.11 422.09 1346.11 424.89C1346.11 427.643 1346.74 430.14 1348 432.38C1349.26 434.573 1350.96 436.3 1353.11 437.56C1355.25 438.82 1357.66 439.45 1360.32 439.45ZM1377.05 444C1376.25 444 1375.6 443.767 1375.09 443.3C1374.57 442.787 1374.32 442.133 1374.32 441.34V429.37L1375.65 423.84L1379.78 424.89V441.34C1379.78 442.133 1379.52 442.787 1379.01 443.3C1378.49 443.767 1377.84 444 1377.05 444ZM1407.34 444.35C1403.65 444.35 1400.36 443.51 1397.47 441.83C1394.62 440.103 1392.36 437.77 1390.68 434.83C1389.05 431.89 1388.23 428.577 1388.23 424.89C1388.23 421.157 1389.02 417.82 1390.61 414.88C1392.2 411.94 1394.37 409.63 1397.12 407.95C1399.87 406.223 1403.05 405.36 1406.64 405.36C1409.49 405.36 1412.1 405.92 1414.48 407.04C1416.91 408.16 1419.03 409.84 1420.85 412.08C1421.36 412.64 1421.55 413.247 1421.41 413.9C1421.27 414.507 1420.87 415.043 1420.22 415.51C1419.71 415.883 1419.12 416.023 1418.47 415.93C1417.86 415.79 1417.33 415.44 1416.86 414.88C1414.15 411.8 1410.75 410.26 1406.64 410.26C1404.03 410.26 1401.72 410.89 1399.71 412.15C1397.75 413.41 1396.21 415.137 1395.09 417.33C1394.02 419.523 1393.48 422.043 1393.48 424.89C1393.48 427.69 1394.06 430.187 1395.23 432.38C1396.4 434.573 1398.03 436.3 1400.13 437.56C1402.23 438.82 1404.63 439.45 1407.34 439.45C1409.16 439.45 1410.82 439.217 1412.31 438.75C1413.85 438.237 1415.2 437.467 1416.37 436.44C1416.93 435.973 1417.51 435.717 1418.12 435.67C1418.73 435.623 1419.29 435.81 1419.8 436.23C1420.36 436.743 1420.66 437.327 1420.71 437.98C1420.8 438.633 1420.59 439.193 1420.08 439.66C1416.67 442.787 1412.43 444.35 1407.34 444.35ZM1449.32 444.35C1445.59 444.35 1442.25 443.51 1439.31 441.83C1436.37 440.15 1434.06 437.84 1432.38 434.9C1430.7 431.96 1429.86 428.623 1429.86 424.89C1429.86 421.11 1430.7 417.75 1432.38 414.81C1434.06 411.87 1436.37 409.56 1439.31 407.88C1442.25 406.2 1445.59 405.36 1449.32 405.36C1453.06 405.36 1456.37 406.2 1459.26 407.88C1462.2 409.56 1464.51 411.87 1466.19 414.81C1467.87 417.75 1468.74 421.11 1468.78 424.89C1468.78 428.623 1467.92 431.96 1466.19 434.9C1464.51 437.84 1462.2 440.15 1459.26 441.83C1456.37 443.51 1453.06 444.35 1449.32 444.35ZM1449.32 439.45C1452.03 439.45 1454.46 438.82 1456.6 437.56C1458.75 436.3 1460.43 434.573 1461.64 432.38C1462.86 430.187 1463.46 427.69 1463.46 424.89C1463.46 422.09 1462.86 419.593 1461.64 417.4C1460.43 415.16 1458.75 413.41 1456.6 412.15C1454.46 410.89 1452.03 410.26 1449.32 410.26C1446.62 410.26 1444.19 410.89 1442.04 412.15C1439.9 413.41 1438.19 415.16 1436.93 417.4C1435.72 419.593 1435.11 422.09 1435.11 424.89C1435.11 427.69 1435.72 430.187 1436.93 432.38C1438.19 434.573 1439.9 436.3 1442.04 437.56C1444.19 438.82 1446.62 439.45 1449.32 439.45ZM1512.09 444C1511.3 444 1510.65 443.743 1510.13 443.23C1509.62 442.717 1509.36 442.087 1509.36 441.34V423.14C1509.36 420.247 1508.8 417.867 1507.68 416C1506.61 414.133 1505.12 412.733 1503.2 411.8C1501.34 410.867 1499.21 410.4 1496.83 410.4C1494.55 410.4 1492.47 410.843 1490.6 411.73C1488.78 412.617 1487.34 413.83 1486.26 415.37C1485.19 416.91 1484.65 418.66 1484.65 420.62H1480.8C1480.9 417.68 1481.69 415.067 1483.18 412.78C1484.68 410.447 1486.66 408.627 1489.13 407.32C1491.61 405.967 1494.36 405.29 1497.39 405.29C1500.71 405.29 1503.67 405.99 1506.28 407.39C1508.9 408.743 1510.95 410.75 1512.44 413.41C1513.98 416.07 1514.75 419.313 1514.75 423.14V441.34C1514.75 442.087 1514.5 442.717 1513.98 443.23C1513.47 443.743 1512.84 444 1512.09 444ZM1481.99 444C1481.15 444 1480.48 443.767 1479.96 443.3C1479.5 442.787 1479.26 442.133 1479.26 441.34V408.44C1479.26 407.6 1479.5 406.947 1479.96 406.48C1480.48 405.967 1481.15 405.71 1481.99 405.71C1482.79 405.71 1483.42 405.967 1483.88 406.48C1484.4 406.947 1484.65 407.6 1484.65 408.44V441.34C1484.65 442.133 1484.4 442.787 1483.88 443.3C1483.42 443.767 1482.79 444 1481.99 444ZM1541.62 444C1539.14 444 1536.93 443.417 1534.97 442.25C1533.05 441.083 1531.54 439.497 1530.42 437.49C1529.3 435.437 1528.74 433.103 1528.74 430.49V396.26C1528.74 395.467 1528.97 394.813 1529.44 394.3C1529.95 393.787 1530.6 393.53 1531.4 393.53C1532.19 393.53 1532.84 393.787 1533.36 394.3C1533.87 394.813 1534.13 395.467 1534.13 396.26V430.49C1534.13 432.87 1534.83 434.83 1536.23 436.37C1537.63 437.863 1539.42 438.61 1541.62 438.61H1543.51C1544.25 438.61 1544.86 438.867 1545.33 439.38C1545.79 439.893 1546.03 440.547 1546.03 441.34C1546.03 442.133 1545.75 442.787 1545.19 443.3C1544.63 443.767 1543.93 444 1543.09 444H1541.62ZM1524.19 411.8C1523.49 411.8 1522.9 411.59 1522.44 411.17C1521.97 410.703 1521.74 410.143 1521.74 409.49C1521.74 408.79 1521.97 408.23 1522.44 407.81C1522.9 407.343 1523.49 407.11 1524.19 407.11H1542.04C1542.74 407.11 1543.32 407.343 1543.79 407.81C1544.25 408.23 1544.49 408.79 1544.49 409.49C1544.49 410.143 1544.25 410.703 1543.79 411.17C1543.32 411.59 1542.74 411.8 1542.04 411.8H1524.19ZM1572.16 444.35C1568.38 444.35 1565.02 443.533 1562.08 441.9C1559.19 440.22 1556.9 437.91 1555.22 434.97C1553.59 432.03 1552.77 428.67 1552.77 424.89C1552.77 421.063 1553.54 417.703 1555.08 414.81C1556.67 411.87 1558.84 409.56 1561.59 407.88C1564.35 406.2 1567.52 405.36 1571.11 405.36C1574.66 405.36 1577.74 406.177 1580.35 407.81C1583.01 409.397 1585.07 411.613 1586.51 414.46C1587.96 417.307 1588.68 420.55 1588.68 424.19C1588.68 424.937 1588.45 425.543 1587.98 426.01C1587.52 426.43 1586.91 426.64 1586.16 426.64H1556.41V422.16H1586.72L1583.71 424.33C1583.76 421.623 1583.27 419.197 1582.24 417.05C1581.22 414.903 1579.75 413.223 1577.83 412.01C1575.97 410.797 1573.73 410.19 1571.11 410.19C1568.45 410.19 1566.12 410.82 1564.11 412.08C1562.11 413.34 1560.54 415.09 1559.42 417.33C1558.35 419.523 1557.81 422.043 1557.81 424.89C1557.81 427.737 1558.42 430.257 1559.63 432.45C1560.89 434.643 1562.6 436.37 1564.74 437.63C1566.89 438.89 1569.36 439.52 1572.16 439.52C1573.84 439.52 1575.52 439.24 1577.2 438.68C1578.93 438.073 1580.31 437.327 1581.33 436.44C1581.85 436.02 1582.43 435.81 1583.08 435.81C1583.74 435.763 1584.3 435.927 1584.76 436.3C1585.37 436.86 1585.67 437.467 1585.67 438.12C1585.72 438.773 1585.46 439.333 1584.9 439.8C1583.36 441.107 1581.4 442.203 1579.02 443.09C1576.64 443.93 1574.36 444.35 1572.16 444.35ZM1613.51 444.35C1609.83 444.35 1606.54 443.51 1603.64 441.83C1600.8 440.103 1598.53 437.77 1596.85 434.83C1595.22 431.89 1594.4 428.577 1594.4 424.89C1594.4 421.157 1595.2 417.82 1596.78 414.88C1598.37 411.94 1600.54 409.63 1603.29 407.95C1606.05 406.223 1609.22 405.36 1612.81 405.36C1615.66 405.36 1618.27 405.92 1620.65 407.04C1623.08 408.16 1625.2 409.84 1627.02 412.08C1627.54 412.64 1627.72 413.247 1627.58 413.9C1627.44 414.507 1627.05 415.043 1626.39 415.51C1625.88 415.883 1625.3 416.023 1624.64 415.93C1624.04 415.79 1623.5 415.44 1623.03 414.88C1620.33 411.8 1616.92 410.26 1612.81 410.26C1610.2 410.26 1607.89 410.89 1605.88 412.15C1603.92 413.41 1602.38 415.137 1601.26 417.33C1600.19 419.523 1599.65 422.043 1599.65 424.89C1599.65 427.69 1600.24 430.187 1601.4 432.38C1602.57 434.573 1604.2 436.3 1606.3 437.56C1608.4 438.82 1610.81 439.45 1613.51 439.45C1615.33 439.45 1616.99 439.217 1618.48 438.75C1620.02 438.237 1621.38 437.467 1622.54 436.44C1623.1 435.973 1623.69 435.717 1624.29 435.67C1624.9 435.623 1625.46 435.81 1625.97 436.23C1626.53 436.743 1626.84 437.327 1626.88 437.98C1626.98 438.633 1626.77 439.193 1626.25 439.66C1622.85 442.787 1618.6 444.35 1613.51 444.35ZM1655.42 444.35C1651.64 444.35 1648.28 443.533 1645.34 441.9C1642.45 440.22 1640.16 437.91 1638.48 434.97C1636.85 432.03 1636.03 428.67 1636.03 424.89C1636.03 421.063 1636.8 417.703 1638.34 414.81C1639.93 411.87 1642.1 409.56 1644.85 407.88C1647.61 406.2 1650.78 405.36 1654.37 405.36C1657.92 405.36 1661 406.177 1663.61 407.81C1666.27 409.397 1668.33 411.613 1669.77 414.46C1671.22 417.307 1671.94 420.55 1671.94 424.19C1671.94 424.937 1671.71 425.543 1671.24 426.01C1670.78 426.43 1670.17 426.64 1669.42 426.64H1639.67V422.16H1669.98L1666.97 424.33C1667.02 421.623 1666.53 419.197 1665.5 417.05C1664.48 414.903 1663.01 413.223 1661.09 412.01C1659.23 410.797 1656.99 410.19 1654.37 410.19C1651.71 410.19 1649.38 410.82 1647.37 412.08C1645.37 413.34 1643.8 415.09 1642.68 417.33C1641.61 419.523 1641.07 422.043 1641.07 424.89C1641.07 427.737 1641.68 430.257 1642.89 432.45C1644.15 434.643 1645.86 436.37 1648 437.63C1650.15 438.89 1652.62 439.52 1655.42 439.52C1657.1 439.52 1658.78 439.24 1660.46 438.68C1662.19 438.073 1663.57 437.327 1664.59 436.44C1665.11 436.02 1665.69 435.81 1666.34 435.81C1667 435.763 1667.56 435.927 1668.02 436.3C1668.63 436.86 1668.93 437.467 1668.93 438.12C1668.98 438.773 1668.72 439.333 1668.16 439.8C1666.62 441.107 1664.66 442.203 1662.28 443.09C1659.9 443.93 1657.62 444.35 1655.42 444.35ZM1713.89 444C1713.1 444 1712.45 443.743 1711.93 443.23C1711.42 442.717 1711.16 442.087 1711.16 441.34V423.14C1711.16 420.247 1710.6 417.867 1709.48 416C1708.41 414.133 1706.92 412.733 1705 411.8C1703.14 410.867 1701.01 410.4 1698.63 410.4C1696.35 410.4 1694.27 410.843 1692.4 411.73C1690.58 412.617 1689.14 413.83 1688.06 415.37C1686.99 416.91 1686.45 418.66 1686.45 420.62H1682.6C1682.7 417.68 1683.49 415.067 1684.98 412.78C1686.48 410.447 1688.46 408.627 1690.93 407.32C1693.41 405.967 1696.16 405.29 1699.19 405.29C1702.51 405.29 1705.47 405.99 1708.08 407.39C1710.7 408.743 1712.75 410.75 1714.24 413.41C1715.78 416.07 1716.55 419.313 1716.55 423.14V441.34C1716.55 442.087 1716.3 442.717 1715.78 443.23C1715.27 443.743 1714.64 444 1713.89 444ZM1683.79 444C1682.95 444 1682.28 443.767 1681.76 443.3C1681.3 442.787 1681.06 442.133 1681.06 441.34V408.44C1681.06 407.6 1681.3 406.947 1681.76 406.48C1682.28 405.967 1682.95 405.71 1683.79 405.71C1684.59 405.71 1685.22 405.967 1685.68 406.48C1686.2 406.947 1686.45 407.6 1686.45 408.44V441.34C1686.45 442.133 1686.2 442.787 1685.68 443.3C1685.22 443.767 1684.59 444 1683.79 444ZM1745.86 444.35C1742.18 444.35 1738.86 443.51 1735.92 441.83C1732.98 440.103 1730.65 437.77 1728.92 434.83C1727.24 431.89 1726.4 428.553 1726.4 424.82C1726.4 421.133 1727.22 417.82 1728.85 414.88C1730.53 411.94 1732.8 409.63 1735.64 407.95C1738.49 406.223 1741.71 405.36 1745.3 405.36C1748.43 405.36 1751.25 406.037 1753.77 407.39C1756.29 408.697 1758.32 410.447 1759.86 412.64V392.06C1759.86 391.22 1760.12 390.567 1760.63 390.1C1761.15 389.587 1761.8 389.33 1762.59 389.33C1763.39 389.33 1764.04 389.587 1764.55 390.1C1765.07 390.567 1765.32 391.22 1765.32 392.06V425.1C1765.23 428.74 1764.32 432.03 1762.59 434.97C1760.91 437.863 1758.6 440.15 1755.66 441.83C1752.77 443.51 1749.5 444.35 1745.86 444.35ZM1745.86 439.45C1748.57 439.45 1750.97 438.82 1753.07 437.56C1755.22 436.253 1756.9 434.503 1758.11 432.31C1759.37 430.117 1760 427.62 1760 424.82C1760 422.067 1759.37 419.593 1758.11 417.4C1756.9 415.16 1755.22 413.41 1753.07 412.15C1750.97 410.89 1748.57 410.26 1745.86 410.26C1743.2 410.26 1740.8 410.89 1738.65 412.15C1736.51 413.41 1734.8 415.16 1733.54 417.4C1732.28 419.593 1731.65 422.067 1731.65 424.82C1731.65 427.62 1732.28 430.117 1733.54 432.31C1734.8 434.503 1736.51 436.253 1738.65 437.56C1740.8 438.82 1743.2 439.45 1745.86 439.45ZM1795.36 444.35C1791.62 444.35 1788.29 443.51 1785.35 441.83C1782.41 440.15 1780.1 437.84 1778.42 434.9C1776.74 431.96 1775.9 428.623 1775.9 424.89C1775.9 421.11 1776.74 417.75 1778.42 414.81C1780.1 411.87 1782.41 409.56 1785.35 407.88C1788.29 406.2 1791.62 405.36 1795.36 405.36C1799.09 405.36 1802.4 406.2 1805.3 407.88C1808.24 409.56 1810.55 411.87 1812.23 414.81C1813.91 417.75 1814.77 421.11 1814.82 424.89C1814.82 428.623 1813.95 431.96 1812.23 434.9C1810.55 437.84 1808.24 440.15 1805.3 441.83C1802.4 443.51 1799.09 444.35 1795.36 444.35ZM1795.36 439.45C1798.06 439.45 1800.49 438.82 1802.64 437.56C1804.78 436.3 1806.46 434.573 1807.68 432.38C1808.89 430.187 1809.5 427.69 1809.5 424.89C1809.5 422.09 1808.89 419.593 1807.68 417.4C1806.46 415.16 1804.78 413.41 1802.64 412.15C1800.49 410.89 1798.06 410.26 1795.36 410.26C1792.65 410.26 1790.22 410.89 1788.08 412.15C1785.93 413.41 1784.23 415.16 1782.97 417.4C1781.75 419.593 1781.15 422.09 1781.15 424.89C1781.15 427.69 1781.75 430.187 1782.97 432.38C1784.23 434.573 1785.93 436.3 1788.08 437.56C1790.22 438.82 1792.65 439.45 1795.36 439.45ZM1484.96 522C1484.16 522 1483.51 521.743 1483 521.23C1482.48 520.717 1482.23 520.087 1482.23 519.34V501.14C1482.23 498.247 1481.67 495.867 1480.55 494C1479.47 492.133 1477.98 490.733 1476.07 489.8C1474.2 488.867 1472.08 488.4 1469.7 488.4C1467.41 488.4 1465.33 488.843 1463.47 489.73C1461.65 490.617 1460.2 491.83 1459.13 493.37C1458.05 494.91 1457.52 496.66 1457.52 498.62H1453.67C1453.76 495.68 1454.55 493.067 1456.05 490.78C1457.54 488.447 1459.52 486.627 1462 485.32C1464.47 483.967 1467.22 483.29 1470.26 483.29C1473.57 483.29 1476.53 483.99 1479.15 485.39C1481.76 486.743 1483.81 488.75 1485.31 491.41C1486.85 494.07 1487.62 497.313 1487.62 501.14V519.34C1487.62 520.087 1487.36 520.717 1486.85 521.23C1486.33 521.743 1485.7 522 1484.96 522ZM1454.86 522C1454.02 522 1453.34 521.767 1452.83 521.3C1452.36 520.787 1452.13 520.133 1452.13 519.34V486.44C1452.13 485.6 1452.36 484.947 1452.83 484.48C1453.34 483.967 1454.02 483.71 1454.86 483.71C1455.65 483.71 1456.28 483.967 1456.75 484.48C1457.26 484.947 1457.52 485.6 1457.52 486.44V519.34C1457.52 520.133 1457.26 520.787 1456.75 521.3C1456.28 521.767 1455.65 522 1454.86 522ZM1516.93 522.35C1513.2 522.35 1509.86 521.51 1506.92 519.83C1503.98 518.15 1501.67 515.84 1499.99 512.9C1498.31 509.96 1497.47 506.623 1497.47 502.89C1497.47 499.11 1498.31 495.75 1499.99 492.81C1501.67 489.87 1503.98 487.56 1506.92 485.88C1509.86 484.2 1513.2 483.36 1516.93 483.36C1520.66 483.36 1523.98 484.2 1526.87 485.88C1529.81 487.56 1532.12 489.87 1533.8 492.81C1535.48 495.75 1536.34 499.11 1536.39 502.89C1536.39 506.623 1535.53 509.96 1533.8 512.9C1532.12 515.84 1529.81 518.15 1526.87 519.83C1523.98 521.51 1520.66 522.35 1516.93 522.35ZM1516.93 517.45C1519.64 517.45 1522.06 516.82 1524.21 515.56C1526.36 514.3 1528.04 512.573 1529.25 510.38C1530.46 508.187 1531.07 505.69 1531.07 502.89C1531.07 500.09 1530.46 497.593 1529.25 495.4C1528.04 493.16 1526.36 491.41 1524.21 490.15C1522.06 488.89 1519.64 488.26 1516.93 488.26C1514.22 488.26 1511.8 488.89 1509.65 490.15C1507.5 491.41 1505.8 493.16 1504.54 495.4C1503.33 497.593 1502.72 500.09 1502.72 502.89C1502.72 505.69 1503.33 508.187 1504.54 510.38C1505.8 512.573 1507.5 514.3 1509.65 515.56C1511.8 516.82 1514.22 517.45 1516.93 517.45ZM1619.11 522C1618.32 522 1617.66 521.767 1617.15 521.3C1616.64 520.787 1616.38 520.133 1616.38 519.34V499.18C1616.38 495.867 1615.52 493.253 1613.79 491.34C1612.06 489.38 1609.85 488.4 1607.14 488.4C1604.25 488.4 1601.87 489.38 1600 491.34C1598.18 493.253 1597.29 495.82 1597.34 499.04H1592.51C1592.56 495.913 1593.23 493.16 1594.54 490.78C1595.85 488.4 1597.64 486.557 1599.93 485.25C1602.22 483.943 1604.81 483.29 1607.7 483.29C1610.45 483.29 1612.88 483.943 1614.98 485.25C1617.13 486.557 1618.78 488.4 1619.95 490.78C1621.16 493.16 1621.77 495.96 1621.77 499.18V519.34C1621.77 520.133 1621.51 520.787 1621 521.3C1620.53 521.767 1619.9 522 1619.11 522ZM1570.11 522C1569.27 522 1568.59 521.767 1568.08 521.3C1567.61 520.787 1567.38 520.133 1567.38 519.34V486.44C1567.38 485.647 1567.61 484.993 1568.08 484.48C1568.59 483.967 1569.27 483.71 1570.11 483.71C1570.9 483.71 1571.53 483.967 1572 484.48C1572.51 484.993 1572.77 485.647 1572.77 486.44V519.34C1572.77 520.133 1572.51 520.787 1572 521.3C1571.53 521.767 1570.9 522 1570.11 522ZM1594.68 522C1593.89 522 1593.23 521.767 1592.72 521.3C1592.21 520.787 1591.95 520.133 1591.95 519.34V499.18C1591.95 495.867 1591.09 493.253 1589.36 491.34C1587.63 489.38 1585.42 488.4 1582.71 488.4C1579.82 488.4 1577.44 489.357 1575.57 491.27C1573.7 493.137 1572.77 495.587 1572.77 498.62H1568.92C1569.01 495.633 1569.67 492.997 1570.88 490.71C1572.14 488.377 1573.84 486.557 1575.99 485.25C1578.14 483.943 1580.56 483.29 1583.27 483.29C1586.02 483.29 1588.45 483.943 1590.55 485.25C1592.7 486.557 1594.35 488.4 1595.52 490.78C1596.73 493.16 1597.34 495.96 1597.34 499.18V519.34C1597.34 520.133 1597.08 520.787 1596.57 521.3C1596.1 521.767 1595.47 522 1594.68 522ZM1650.35 522.42C1647.04 522.42 1644.07 521.743 1641.46 520.39C1638.85 518.99 1636.77 516.96 1635.23 514.3C1633.74 511.64 1632.99 508.397 1632.99 504.57V486.37C1632.99 485.623 1633.25 484.993 1633.76 484.48C1634.27 483.967 1634.9 483.71 1635.65 483.71C1636.44 483.71 1637.1 483.967 1637.61 484.48C1638.12 484.993 1638.38 485.623 1638.38 486.37V504.57C1638.38 507.463 1638.92 509.843 1639.99 511.71C1641.11 513.577 1642.6 514.977 1644.47 515.91C1646.38 516.843 1648.53 517.31 1650.91 517.31C1653.2 517.31 1655.25 516.867 1657.07 515.98C1658.94 515.093 1660.41 513.88 1661.48 512.34C1662.55 510.8 1663.09 509.05 1663.09 507.09H1666.94C1666.8 510.03 1665.98 512.667 1664.49 515C1663.04 517.287 1661.08 519.107 1658.61 520.46C1656.14 521.767 1653.38 522.42 1650.35 522.42ZM1665.75 522C1664.96 522 1664.3 521.767 1663.79 521.3C1663.32 520.787 1663.09 520.11 1663.09 519.27V486.37C1663.09 485.577 1663.32 484.947 1663.79 484.48C1664.3 483.967 1664.96 483.71 1665.75 483.71C1666.54 483.71 1667.2 483.967 1667.71 484.48C1668.22 484.947 1668.48 485.577 1668.48 486.37V519.27C1668.48 520.11 1668.22 520.787 1667.71 521.3C1667.2 521.767 1666.54 522 1665.75 522ZM1713.89 522C1713.1 522 1712.45 521.743 1711.93 521.23C1711.42 520.717 1711.16 520.087 1711.16 519.34V501.14C1711.16 498.247 1710.6 495.867 1709.48 494C1708.41 492.133 1706.92 490.733 1705 489.8C1703.14 488.867 1701.01 488.4 1698.63 488.4C1696.35 488.4 1694.27 488.843 1692.4 489.73C1690.58 490.617 1689.14 491.83 1688.06 493.37C1686.99 494.91 1686.45 496.66 1686.45 498.62H1682.6C1682.7 495.68 1683.49 493.067 1684.98 490.78C1686.48 488.447 1688.46 486.627 1690.93 485.32C1693.41 483.967 1696.16 483.29 1699.19 483.29C1702.51 483.29 1705.47 483.99 1708.08 485.39C1710.7 486.743 1712.75 488.75 1714.24 491.41C1715.78 494.07 1716.55 497.313 1716.55 501.14V519.34C1716.55 520.087 1716.3 520.717 1715.78 521.23C1715.27 521.743 1714.64 522 1713.89 522ZM1683.79 522C1682.95 522 1682.28 521.767 1681.76 521.3C1681.3 520.787 1681.06 520.133 1681.06 519.34V486.44C1681.06 485.6 1681.3 484.947 1681.76 484.48C1682.28 483.967 1682.95 483.71 1683.79 483.71C1684.59 483.71 1685.22 483.967 1685.68 484.48C1686.2 484.947 1686.45 485.6 1686.45 486.44V519.34C1686.45 520.133 1686.2 520.787 1685.68 521.3C1685.22 521.767 1684.59 522 1683.79 522ZM1745.86 522.35C1742.18 522.35 1738.86 521.51 1735.92 519.83C1732.98 518.103 1730.65 515.77 1728.92 512.83C1727.24 509.89 1726.4 506.553 1726.4 502.82C1726.4 499.133 1727.22 495.82 1728.85 492.88C1730.53 489.94 1732.8 487.63 1735.64 485.95C1738.49 484.223 1741.71 483.36 1745.3 483.36C1748.43 483.36 1751.25 484.037 1753.77 485.39C1756.29 486.697 1758.32 488.447 1759.86 490.64V470.06C1759.86 469.22 1760.12 468.567 1760.63 468.1C1761.15 467.587 1761.8 467.33 1762.59 467.33C1763.39 467.33 1764.04 467.587 1764.55 468.1C1765.07 468.567 1765.32 469.22 1765.32 470.06V503.1C1765.23 506.74 1764.32 510.03 1762.59 512.97C1760.91 515.863 1758.6 518.15 1755.66 519.83C1752.77 521.51 1749.5 522.35 1745.86 522.35ZM1745.86 517.45C1748.57 517.45 1750.97 516.82 1753.07 515.56C1755.22 514.253 1756.9 512.503 1758.11 510.31C1759.37 508.117 1760 505.62 1760 502.82C1760 500.067 1759.37 497.593 1758.11 495.4C1756.9 493.16 1755.22 491.41 1753.07 490.15C1750.97 488.89 1748.57 488.26 1745.86 488.26C1743.2 488.26 1740.8 488.89 1738.65 490.15C1736.51 491.41 1734.8 493.16 1733.54 495.4C1732.28 497.593 1731.65 500.067 1731.65 502.82C1731.65 505.62 1732.28 508.117 1733.54 510.31C1734.8 512.503 1736.51 514.253 1738.65 515.56C1740.8 516.82 1743.2 517.45 1745.86 517.45ZM1795.36 522.35C1791.62 522.35 1788.29 521.51 1785.35 519.83C1782.41 518.15 1780.1 515.84 1778.42 512.9C1776.74 509.96 1775.9 506.623 1775.9 502.89C1775.9 499.11 1776.74 495.75 1778.42 492.81C1780.1 489.87 1782.41 487.56 1785.35 485.88C1788.29 484.2 1791.62 483.36 1795.36 483.36C1799.09 483.36 1802.4 484.2 1805.3 485.88C1808.24 487.56 1810.55 489.87 1812.23 492.81C1813.91 495.75 1814.77 499.11 1814.82 502.89C1814.82 506.623 1813.95 509.96 1812.23 512.9C1810.55 515.84 1808.24 518.15 1805.3 519.83C1802.4 521.51 1799.09 522.35 1795.36 522.35ZM1795.36 517.45C1798.06 517.45 1800.49 516.82 1802.64 515.56C1804.78 514.3 1806.46 512.573 1807.68 510.38C1808.89 508.187 1809.5 505.69 1809.5 502.89C1809.5 500.09 1808.89 497.593 1807.68 495.4C1806.46 493.16 1804.78 491.41 1802.64 490.15C1800.49 488.89 1798.06 488.26 1795.36 488.26C1792.65 488.26 1790.22 488.89 1788.08 490.15C1785.93 491.41 1784.23 493.16 1782.97 495.4C1781.75 497.593 1781.15 500.09 1781.15 502.89C1781.15 505.69 1781.75 508.187 1782.97 510.38C1784.23 512.573 1785.93 514.3 1788.08 515.56C1790.22 516.82 1792.65 517.45 1795.36 517.45Z" fill="#05009B"/>
<g filter="url(#filter2_d_16_3)">
<path d="M244.423 790.4C242.263 790.4 240.236 789.987 238.343 789.16C236.476 788.333 234.823 787.187 233.383 785.72C231.969 784.227 230.863 782.52 230.063 780.6C229.263 778.653 228.863 776.573 228.863 774.36C228.863 772.173 229.249 770.12 230.023 768.2C230.823 766.253 231.929 764.547 233.343 763.08C234.783 761.613 236.436 760.467 238.303 759.64C240.196 758.787 242.236 758.36 244.423 758.36C246.343 758.36 248.089 758.64 249.663 759.2C251.236 759.76 252.756 760.653 254.223 761.88C254.463 762.067 254.596 762.293 254.623 762.56C254.676 762.8 254.649 763.04 254.543 763.28C254.436 763.493 254.276 763.653 254.063 763.76C254.009 763.973 253.876 764.133 253.663 764.24C253.449 764.347 253.196 764.387 252.903 764.36C252.636 764.333 252.369 764.213 252.103 764C251.063 763.093 249.929 762.427 248.703 762C247.476 761.547 246.049 761.32 244.423 761.32C242.689 761.32 241.063 761.667 239.543 762.36C238.049 763.053 236.729 764 235.583 765.2C234.436 766.4 233.529 767.787 232.863 769.36C232.223 770.933 231.903 772.6 231.903 774.36C231.903 776.173 232.223 777.867 232.863 779.44C233.529 781.013 234.436 782.4 235.583 783.6C236.729 784.8 238.049 785.747 239.543 786.44C241.063 787.107 242.689 787.44 244.423 787.44C245.889 787.44 247.276 787.2 248.583 786.72C249.889 786.24 251.129 785.547 252.303 784.64C252.623 784.373 252.956 784.267 253.303 784.32C253.676 784.373 253.996 784.533 254.263 784.8C254.529 785.067 254.663 785.413 254.663 785.84C254.663 786.053 254.623 786.253 254.543 786.44C254.489 786.6 254.383 786.773 254.223 786.96C252.863 788.213 251.343 789.107 249.663 789.64C247.983 790.147 246.236 790.4 244.423 790.4ZM269.044 790.2C266.911 790.2 265.004 789.72 263.324 788.76C261.644 787.8 260.324 786.48 259.364 784.8C258.404 783.12 257.924 781.213 257.924 779.08C257.924 776.92 258.404 775 259.364 773.32C260.324 771.64 261.644 770.32 263.324 769.36C265.004 768.4 266.911 767.92 269.044 767.92C271.178 767.92 273.071 768.4 274.724 769.36C276.404 770.32 277.724 771.64 278.684 773.32C279.644 775 280.138 776.92 280.164 779.08C280.164 781.213 279.671 783.12 278.684 784.8C277.724 786.48 276.404 787.8 274.724 788.76C273.071 789.72 271.178 790.2 269.044 790.2ZM269.044 787.4C270.591 787.4 271.978 787.04 273.204 786.32C274.431 785.6 275.391 784.613 276.084 783.36C276.778 782.107 277.124 780.68 277.124 779.08C277.124 777.48 276.778 776.053 276.084 774.8C275.391 773.52 274.431 772.52 273.204 771.8C271.978 771.08 270.591 770.72 269.044 770.72C267.498 770.72 266.111 771.08 264.884 771.8C263.658 772.52 262.684 773.52 261.964 774.8C261.271 776.053 260.924 777.48 260.924 779.08C260.924 780.68 261.271 782.107 261.964 783.36C262.684 784.613 263.658 785.6 264.884 786.32C266.111 787.04 267.498 787.4 269.044 787.4ZM304.915 790C304.461 790 304.088 789.853 303.795 789.56C303.501 789.267 303.355 788.907 303.355 788.48V778.08C303.355 776.427 303.035 775.067 302.395 774C301.781 772.933 300.928 772.133 299.835 771.6C298.768 771.067 297.555 770.8 296.195 770.8C294.888 770.8 293.701 771.053 292.635 771.56C291.595 772.067 290.768 772.76 290.155 773.64C289.541 774.52 289.235 775.52 289.235 776.64H287.035C287.088 774.96 287.541 773.467 288.395 772.16C289.248 770.827 290.381 769.787 291.795 769.04C293.208 768.267 294.781 767.88 296.515 767.88C298.408 767.88 300.101 768.28 301.595 769.08C303.088 769.853 304.261 771 305.115 772.52C305.995 774.04 306.435 775.893 306.435 778.08V788.48C306.435 788.907 306.288 789.267 305.995 789.56C305.701 789.853 305.341 790 304.915 790ZM287.715 790C287.235 790 286.848 789.867 286.555 789.6C286.288 789.307 286.155 788.933 286.155 788.48V769.68C286.155 769.2 286.288 768.827 286.555 768.56C286.848 768.267 287.235 768.12 287.715 768.12C288.168 768.12 288.528 768.267 288.795 768.56C289.088 768.827 289.235 769.2 289.235 769.68V788.48C289.235 788.933 289.088 789.307 288.795 789.6C288.528 789.867 288.168 790 287.715 790ZM320.865 790.2C319.292 790.2 317.732 789.933 316.185 789.4C314.638 788.867 313.385 788.067 312.425 787C312.132 786.68 312.012 786.32 312.065 785.92C312.118 785.52 312.318 785.173 312.665 784.88C313.038 784.613 313.425 784.507 313.825 784.56C314.225 784.613 314.558 784.787 314.825 785.08C315.465 785.827 316.305 786.4 317.345 786.8C318.412 787.2 319.585 787.4 320.865 787.4C322.838 787.4 324.265 787.067 325.145 786.4C326.025 785.707 326.478 784.88 326.505 783.92C326.505 782.96 326.052 782.173 325.145 781.56C324.238 780.92 322.745 780.427 320.665 780.08C317.972 779.653 315.998 778.907 314.745 777.84C313.492 776.773 312.865 775.507 312.865 774.04C312.865 772.68 313.225 771.547 313.945 770.64C314.665 769.733 315.625 769.053 316.825 768.6C318.025 768.147 319.345 767.92 320.785 767.92C322.572 767.92 324.105 768.227 325.385 768.84C326.692 769.453 327.745 770.28 328.545 771.32C328.812 771.667 328.918 772.027 328.865 772.4C328.812 772.773 328.598 773.08 328.225 773.32C327.905 773.507 327.532 773.573 327.105 773.52C326.705 773.44 326.358 773.24 326.065 772.92C325.398 772.147 324.625 771.587 323.745 771.24C322.865 770.867 321.852 770.68 320.705 770.68C319.238 770.68 318.065 770.987 317.185 771.6C316.305 772.187 315.865 772.933 315.865 773.84C315.865 774.453 316.025 774.987 316.345 775.44C316.692 775.893 317.265 776.293 318.065 776.64C318.892 776.987 320.038 777.28 321.505 777.52C323.505 777.84 325.078 778.32 326.225 778.96C327.398 779.573 328.225 780.307 328.705 781.16C329.212 781.987 329.465 782.893 329.465 783.88C329.465 785.133 329.092 786.24 328.345 787.2C327.625 788.133 326.612 788.867 325.305 789.4C324.025 789.933 322.545 790.2 320.865 790.2ZM336.988 790C336.508 790 336.121 789.867 335.828 789.6C335.561 789.307 335.428 788.92 335.428 788.44V769.68C335.428 769.2 335.561 768.827 335.828 768.56C336.121 768.267 336.508 768.12 336.988 768.12C337.441 768.12 337.801 768.267 338.068 768.56C338.361 768.827 338.508 769.2 338.508 769.68V788.44C338.508 788.92 338.361 789.307 338.068 789.6C337.801 789.867 337.441 790 336.988 790ZM336.948 763.96C336.361 763.96 335.854 763.747 335.428 763.32C335.001 762.893 334.788 762.373 334.788 761.76C334.788 761.093 335.001 760.573 335.428 760.2C335.881 759.8 336.401 759.6 336.988 759.6C337.548 759.6 338.041 759.8 338.468 760.2C338.921 760.573 339.148 761.093 339.148 761.76C339.148 762.373 338.934 762.893 338.508 763.32C338.081 763.747 337.561 763.96 336.948 763.96ZM356.27 790.2C354.11 790.2 352.19 789.733 350.51 788.8C348.857 787.84 347.55 786.52 346.59 784.84C345.657 783.16 345.19 781.24 345.19 779.08C345.19 776.893 345.63 774.973 346.51 773.32C347.417 771.64 348.657 770.32 350.23 769.36C351.803 768.4 353.617 767.92 355.67 767.92C357.697 767.92 359.457 768.387 360.95 769.32C362.47 770.227 363.643 771.493 364.47 773.12C365.297 774.747 365.71 776.6 365.71 778.68C365.71 779.107 365.577 779.453 365.31 779.72C365.043 779.96 364.697 780.08 364.27 780.08H347.27V777.52H364.59L362.87 778.76C362.897 777.213 362.617 775.827 362.03 774.6C361.443 773.373 360.603 772.413 359.51 771.72C358.443 771.027 357.163 770.68 355.67 770.68C354.15 770.68 352.817 771.04 351.67 771.76C350.523 772.48 349.63 773.48 348.99 774.76C348.377 776.013 348.07 777.453 348.07 779.08C348.07 780.707 348.417 782.147 349.11 783.4C349.83 784.653 350.803 785.64 352.03 786.36C353.257 787.08 354.67 787.44 356.27 787.44C357.23 787.44 358.19 787.28 359.15 786.96C360.137 786.613 360.923 786.187 361.51 785.68C361.803 785.44 362.137 785.32 362.51 785.32C362.883 785.293 363.203 785.387 363.47 785.6C363.817 785.92 363.99 786.267 363.99 786.64C364.017 787.013 363.87 787.333 363.55 787.6C362.67 788.347 361.55 788.973 360.19 789.48C358.83 789.96 357.523 790.2 356.27 790.2ZM350.83 764.64C350.377 764.64 349.99 764.52 349.67 764.28C349.377 764.013 349.23 763.667 349.23 763.24C349.23 762.68 349.483 762.227 349.99 761.88L354.71 758.76C354.923 758.627 355.177 758.56 355.47 758.56C355.63 758.56 355.777 758.587 355.91 758.64C356.043 758.667 356.163 758.707 356.27 758.76L360.95 761.88C361.457 762.227 361.71 762.68 361.71 763.24C361.71 763.64 361.563 763.973 361.27 764.24C360.977 764.507 360.603 764.64 360.15 764.64C359.963 764.64 359.79 764.613 359.63 764.56C359.497 764.507 359.35 764.427 359.19 764.32L355.47 761.76L351.75 764.32C351.457 764.533 351.15 764.64 350.83 764.64ZM389.68 790C389.227 790 388.854 789.853 388.56 789.56C388.267 789.267 388.12 788.907 388.12 788.48V778.08C388.12 776.427 387.8 775.067 387.16 774C386.547 772.933 385.694 772.133 384.6 771.6C383.534 771.067 382.32 770.8 380.96 770.8C379.654 770.8 378.467 771.053 377.4 771.56C376.36 772.067 375.534 772.76 374.92 773.64C374.307 774.52 374 775.52 374 776.64H371.8C371.854 774.96 372.307 773.467 373.16 772.16C374.014 770.827 375.147 769.787 376.56 769.04C377.974 768.267 379.547 767.88 381.28 767.88C383.174 767.88 384.867 768.28 386.36 769.08C387.854 769.853 389.027 771 389.88 772.52C390.76 774.04 391.2 775.893 391.2 778.08V788.48C391.2 788.907 391.054 789.267 390.76 789.56C390.467 789.853 390.107 790 389.68 790ZM372.48 790C372 790 371.614 789.867 371.32 789.6C371.054 789.307 370.92 788.933 370.92 788.48V769.68C370.92 769.2 371.054 768.827 371.32 768.56C371.614 768.267 372 768.12 372.48 768.12C372.934 768.12 373.294 768.267 373.56 768.56C373.854 768.827 374 769.2 374 769.68V788.48C374 788.933 373.854 789.307 373.56 789.6C373.294 789.867 372.934 790 372.48 790ZM407.751 790.2C405.644 790.2 403.764 789.72 402.111 788.76C400.484 787.773 399.191 786.44 398.231 784.76C397.297 783.08 396.831 781.187 396.831 779.08C396.831 776.947 397.284 775.04 398.191 773.36C399.097 771.68 400.337 770.36 401.911 769.4C403.484 768.413 405.297 767.92 407.351 767.92C408.977 767.92 410.471 768.24 411.831 768.88C413.217 769.52 414.431 770.48 415.471 771.76C415.764 772.08 415.871 772.427 415.791 772.8C415.711 773.147 415.484 773.453 415.111 773.72C414.817 773.933 414.484 774.013 414.111 773.96C413.764 773.88 413.457 773.68 413.191 773.36C411.644 771.6 409.697 770.72 407.351 770.72C405.857 770.72 404.537 771.08 403.391 771.8C402.271 772.52 401.391 773.507 400.751 774.76C400.137 776.013 399.831 777.453 399.831 779.08C399.831 780.68 400.164 782.107 400.831 783.36C401.497 784.613 402.431 785.6 403.631 786.32C404.831 787.04 406.204 787.4 407.751 787.4C408.791 787.4 409.737 787.267 410.591 787C411.471 786.707 412.244 786.267 412.911 785.68C413.231 785.413 413.564 785.267 413.911 785.24C414.257 785.213 414.577 785.32 414.871 785.56C415.191 785.853 415.364 786.187 415.391 786.56C415.444 786.933 415.324 787.253 415.031 787.52C413.084 789.307 410.657 790.2 407.751 790.2ZM423.98 790C423.5 790 423.113 789.867 422.82 789.6C422.553 789.307 422.42 788.92 422.42 788.44V769.68C422.42 769.2 422.553 768.827 422.82 768.56C423.113 768.267 423.5 768.12 423.98 768.12C424.433 768.12 424.793 768.267 425.06 768.56C425.353 768.827 425.5 769.2 425.5 769.68V788.44C425.5 788.92 425.353 789.307 425.06 789.6C424.793 789.867 424.433 790 423.98 790ZM423.94 763.96C423.353 763.96 422.846 763.747 422.42 763.32C421.993 762.893 421.78 762.373 421.78 761.76C421.78 761.093 421.993 760.573 422.42 760.2C422.873 759.8 423.393 759.6 423.98 759.6C424.54 759.6 425.033 759.8 425.46 760.2C425.913 760.573 426.14 761.093 426.14 761.76C426.14 762.373 425.926 762.893 425.5 763.32C425.073 763.747 424.553 763.96 423.94 763.96ZM442.982 790.2C440.929 790.2 439.089 789.72 437.462 788.76C435.836 787.773 434.542 786.44 433.582 784.76C432.649 783.08 432.182 781.187 432.182 779.08C432.182 776.947 432.662 775.04 433.622 773.36C434.609 771.68 435.942 770.36 437.622 769.4C439.302 768.413 441.196 767.92 443.302 767.92C445.409 767.92 447.289 768.413 448.942 769.4C450.622 770.36 451.942 771.68 452.902 773.36C453.889 775.04 454.396 776.947 454.422 779.08L453.182 780.04C453.182 781.96 452.729 783.693 451.822 785.24C450.942 786.76 449.729 787.973 448.182 788.88C446.662 789.76 444.929 790.2 442.982 790.2ZM443.302 787.4C444.849 787.4 446.222 787.04 447.422 786.32C448.649 785.6 449.609 784.613 450.302 783.36C451.022 782.08 451.382 780.653 451.382 779.08C451.382 777.48 451.022 776.053 450.302 774.8C449.609 773.547 448.649 772.56 447.422 771.84C446.222 771.093 444.849 770.72 443.302 770.72C441.782 770.72 440.409 771.093 439.182 771.84C437.956 772.56 436.982 773.547 436.262 774.8C435.542 776.053 435.182 777.48 435.182 779.08C435.182 780.653 435.542 782.08 436.262 783.36C436.982 784.613 437.956 785.6 439.182 786.32C440.409 787.04 441.782 787.4 443.302 787.4ZM452.862 790C452.409 790 452.036 789.867 451.742 789.6C451.449 789.307 451.302 788.933 451.302 788.48V781.64L452.062 778.48L454.422 779.08V788.48C454.422 788.933 454.276 789.307 453.982 789.6C453.689 789.867 453.316 790 452.862 790ZM482.051 790.2C479.891 790.2 477.971 789.733 476.291 788.8C474.638 787.84 473.331 786.52 472.371 784.84C471.438 783.16 470.971 781.24 470.971 779.08C470.971 776.893 471.411 774.973 472.291 773.32C473.198 771.64 474.438 770.32 476.011 769.36C477.585 768.4 479.398 767.92 481.451 767.92C483.478 767.92 485.238 768.387 486.731 769.32C488.251 770.227 489.425 771.493 490.251 773.12C491.078 774.747 491.491 776.6 491.491 778.68C491.491 779.107 491.358 779.453 491.091 779.72C490.825 779.96 490.478 780.08 490.051 780.08H473.051V777.52H490.371L488.651 778.76C488.678 777.213 488.398 775.827 487.811 774.6C487.225 773.373 486.385 772.413 485.291 771.72C484.225 771.027 482.945 770.68 481.451 770.68C479.931 770.68 478.598 771.04 477.451 771.76C476.305 772.48 475.411 773.48 474.771 774.76C474.158 776.013 473.851 777.453 473.851 779.08C473.851 780.707 474.198 782.147 474.891 783.4C475.611 784.653 476.585 785.64 477.811 786.36C479.038 787.08 480.451 787.44 482.051 787.44C483.011 787.44 483.971 787.28 484.931 786.96C485.918 786.613 486.705 786.187 487.291 785.68C487.585 785.44 487.918 785.32 488.291 785.32C488.665 785.293 488.985 785.387 489.251 785.6C489.598 785.92 489.771 786.267 489.771 786.64C489.798 787.013 489.651 787.333 489.331 787.6C488.451 788.347 487.331 788.973 485.971 789.48C484.611 789.96 483.305 790.2 482.051 790.2ZM515.462 790C515.008 790 514.635 789.853 514.342 789.56C514.048 789.267 513.902 788.907 513.902 788.48V778.08C513.902 776.427 513.582 775.067 512.942 774C512.328 772.933 511.475 772.133 510.382 771.6C509.315 771.067 508.102 770.8 506.742 770.8C505.435 770.8 504.248 771.053 503.182 771.56C502.142 772.067 501.315 772.76 500.702 773.64C500.088 774.52 499.782 775.52 499.782 776.64H497.582C497.635 774.96 498.088 773.467 498.942 772.16C499.795 770.827 500.928 769.787 502.342 769.04C503.755 768.267 505.328 767.88 507.062 767.88C508.955 767.88 510.648 768.28 512.142 769.08C513.635 769.853 514.808 771 515.662 772.52C516.542 774.04 516.982 775.893 516.982 778.08V788.48C516.982 788.907 516.835 789.267 516.542 789.56C516.248 789.853 515.888 790 515.462 790ZM498.262 790C497.782 790 497.395 789.867 497.102 789.6C496.835 789.307 496.702 788.933 496.702 788.48V769.68C496.702 769.2 496.835 768.827 497.102 768.56C497.395 768.267 497.782 768.12 498.262 768.12C498.715 768.12 499.075 768.267 499.342 768.56C499.635 768.827 499.782 769.2 499.782 769.68V788.48C499.782 788.933 499.635 789.307 499.342 789.6C499.075 789.867 498.715 790 498.262 790ZM533.692 790.2C531.532 790.2 529.612 789.733 527.932 788.8C526.279 787.84 524.972 786.52 524.012 784.84C523.079 783.16 522.612 781.24 522.612 779.08C522.612 776.893 523.052 774.973 523.932 773.32C524.839 771.64 526.079 770.32 527.652 769.36C529.225 768.4 531.039 767.92 533.092 767.92C535.119 767.92 536.879 768.387 538.372 769.32C539.892 770.227 541.065 771.493 541.892 773.12C542.719 774.747 543.132 776.6 543.132 778.68C543.132 779.107 542.999 779.453 542.732 779.72C542.465 779.96 542.119 780.08 541.692 780.08H524.692V777.52H542.012L540.292 778.76C540.319 777.213 540.039 775.827 539.452 774.6C538.865 773.373 538.025 772.413 536.932 771.72C535.865 771.027 534.585 770.68 533.092 770.68C531.572 770.68 530.239 771.04 529.092 771.76C527.945 772.48 527.052 773.48 526.412 774.76C525.799 776.013 525.492 777.453 525.492 779.08C525.492 780.707 525.839 782.147 526.532 783.4C527.252 784.653 528.225 785.64 529.452 786.36C530.679 787.08 532.092 787.44 533.692 787.44C534.652 787.44 535.612 787.28 536.572 786.96C537.559 786.613 538.345 786.187 538.932 785.68C539.225 785.44 539.559 785.32 539.932 785.32C540.305 785.293 540.625 785.387 540.892 785.6C541.239 785.92 541.412 786.267 541.412 786.64C541.439 787.013 541.292 787.333 540.972 787.6C540.092 788.347 538.972 788.973 537.612 789.48C536.252 789.96 534.945 790.2 533.692 790.2ZM549.622 776.52C549.702 774.867 550.129 773.387 550.902 772.08C551.702 770.773 552.729 769.747 553.982 769C555.262 768.253 556.676 767.88 558.222 767.88C559.449 767.88 560.396 768.053 561.062 768.4C561.729 768.747 561.982 769.253 561.822 769.92C561.716 770.32 561.529 770.587 561.262 770.72C561.022 770.853 560.716 770.907 560.342 770.88C559.996 770.853 559.596 770.827 559.142 770.8C557.649 770.667 556.316 770.827 555.142 771.28C553.996 771.707 553.076 772.373 552.382 773.28C551.716 774.187 551.382 775.267 551.382 776.52H549.622ZM549.862 790C549.382 790 549.009 789.867 548.742 789.6C548.476 789.333 548.342 788.96 548.342 788.48V769.64C548.342 769.16 548.476 768.787 548.742 768.52C549.009 768.253 549.382 768.12 549.862 768.12C550.342 768.12 550.716 768.253 550.982 768.52C551.249 768.787 551.382 769.16 551.382 769.64V788.48C551.382 788.96 551.249 789.333 550.982 789.6C550.716 789.867 550.342 790 549.862 790ZM574.701 790.2C572.594 790.2 570.728 789.733 569.101 788.8C567.474 787.84 566.194 786.52 565.261 784.84C564.354 783.16 563.901 781.24 563.901 779.08C563.901 776.893 564.381 774.96 565.341 773.28C566.301 771.6 567.621 770.293 569.301 769.36C570.981 768.4 572.888 767.92 575.021 767.92C577.181 767.92 579.088 768.4 580.741 769.36C582.421 770.293 583.728 771.6 584.661 773.28C585.621 774.96 586.114 776.893 586.141 779.08L584.341 780.04C584.341 782.013 583.928 783.773 583.101 785.32C582.274 786.84 581.128 788.04 579.661 788.92C578.221 789.773 576.568 790.2 574.701 790.2ZM575.101 798.64C572.994 798.64 571.141 798.24 569.541 797.44C567.941 796.667 566.621 795.6 565.581 794.24C565.288 793.92 565.154 793.573 565.181 793.2C565.234 792.827 565.434 792.52 565.781 792.28C566.128 792.04 566.514 791.96 566.941 792.04C567.368 792.12 567.701 792.32 567.941 792.64C568.714 793.6 569.701 794.373 570.901 794.96C572.128 795.547 573.541 795.84 575.141 795.84C576.634 795.84 577.981 795.48 579.181 794.76C580.381 794.04 581.328 793.027 582.021 791.72C582.741 790.413 583.101 788.88 583.101 787.12V781.04L584.261 778.72L586.141 779.08V787.24C586.141 789.4 585.661 791.333 584.701 793.04C583.741 794.773 582.434 796.133 580.781 797.12C579.128 798.133 577.234 798.64 575.101 798.64ZM575.021 787.4C576.594 787.4 577.981 787.053 579.181 786.36C580.408 785.64 581.368 784.653 582.061 783.4C582.754 782.147 583.101 780.707 583.101 779.08C583.101 777.453 582.754 776.013 582.061 774.76C581.368 773.48 580.408 772.493 579.181 771.8C577.981 771.08 576.594 770.72 575.021 770.72C573.448 770.72 572.048 771.08 570.821 771.8C569.594 772.493 568.634 773.48 567.941 774.76C567.248 776.013 566.901 777.453 566.901 779.08C566.901 780.707 567.248 782.147 567.941 783.4C568.634 784.653 569.594 785.64 570.821 786.36C572.048 787.053 573.448 787.4 575.021 787.4ZM602.051 790.2C599.891 790.2 597.971 789.733 596.291 788.8C594.638 787.84 593.331 786.52 592.371 784.84C591.438 783.16 590.971 781.24 590.971 779.08C590.971 776.893 591.411 774.973 592.291 773.32C593.198 771.64 594.438 770.32 596.011 769.36C597.585 768.4 599.398 767.92 601.451 767.92C603.478 767.92 605.238 768.387 606.731 769.32C608.251 770.227 609.425 771.493 610.251 773.12C611.078 774.747 611.491 776.6 611.491 778.68C611.491 779.107 611.358 779.453 611.091 779.72C610.825 779.96 610.478 780.08 610.051 780.08H593.051V777.52H610.371L608.651 778.76C608.678 777.213 608.398 775.827 607.811 774.6C607.225 773.373 606.385 772.413 605.291 771.72C604.225 771.027 602.945 770.68 601.451 770.68C599.931 770.68 598.598 771.04 597.451 771.76C596.305 772.48 595.411 773.48 594.771 774.76C594.158 776.013 593.851 777.453 593.851 779.08C593.851 780.707 594.198 782.147 594.891 783.4C595.611 784.653 596.585 785.64 597.811 786.36C599.038 787.08 600.451 787.44 602.051 787.44C603.011 787.44 603.971 787.28 604.931 786.96C605.918 786.613 606.705 786.187 607.291 785.68C607.585 785.44 607.918 785.32 608.291 785.32C608.665 785.293 608.985 785.387 609.251 785.6C609.598 785.92 609.771 786.267 609.771 786.64C609.798 787.013 609.651 787.333 609.331 787.6C608.451 788.347 607.331 788.973 605.971 789.48C604.611 789.96 603.305 790.2 602.051 790.2ZM600.971 764.8C600.545 764.8 600.171 764.653 599.851 764.36C599.558 764.04 599.411 763.667 599.411 763.24C599.411 762.813 599.531 762.467 599.771 762.2L604.291 757.68C604.585 757.387 604.945 757.24 605.371 757.24C605.825 757.24 606.198 757.4 606.491 757.72C606.785 758.013 606.931 758.387 606.931 758.84C606.931 759.027 606.891 759.213 606.811 759.4C606.758 759.587 606.651 759.747 606.491 759.88L602.011 764.4C601.745 764.667 601.398 764.8 600.971 764.8ZM625.262 790C623.848 790 622.582 789.667 621.462 789C620.368 788.333 619.502 787.427 618.862 786.28C618.222 785.107 617.902 783.773 617.902 782.28V762.72C617.902 762.267 618.035 761.893 618.302 761.6C618.595 761.307 618.968 761.16 619.422 761.16C619.875 761.16 620.248 761.307 620.542 761.6C620.835 761.893 620.982 762.267 620.982 762.72V782.28C620.982 783.64 621.382 784.76 622.182 785.64C622.982 786.493 624.008 786.92 625.262 786.92H626.342C626.768 786.92 627.115 787.067 627.382 787.36C627.648 787.653 627.782 788.027 627.782 788.48C627.782 788.933 627.622 789.307 627.302 789.6C626.982 789.867 626.582 790 626.102 790H625.262ZM615.302 771.6C614.902 771.6 614.568 771.48 614.302 771.24C614.035 770.973 613.902 770.653 613.902 770.28C613.902 769.88 614.035 769.56 614.302 769.32C614.568 769.053 614.902 768.92 615.302 768.92H625.502C625.902 768.92 626.235 769.053 626.502 769.32C626.768 769.56 626.902 769.88 626.902 770.28C626.902 770.653 626.768 770.973 626.502 771.24C626.235 771.48 625.902 771.6 625.502 771.6H615.302ZM634.995 790C634.515 790 634.129 789.867 633.835 789.6C633.569 789.307 633.435 788.92 633.435 788.44V769.68C633.435 769.2 633.569 768.827 633.835 768.56C634.129 768.267 634.515 768.12 634.995 768.12C635.449 768.12 635.809 768.267 636.075 768.56C636.369 768.827 636.515 769.2 636.515 769.68V788.44C636.515 788.92 636.369 789.307 636.075 789.6C635.809 789.867 635.449 790 634.995 790ZM634.955 763.96C634.369 763.96 633.862 763.747 633.435 763.32C633.009 762.893 632.795 762.373 632.795 761.76C632.795 761.093 633.009 760.573 633.435 760.2C633.889 759.8 634.409 759.6 634.995 759.6C635.555 759.6 636.049 759.8 636.475 760.2C636.929 760.573 637.155 761.093 637.155 761.76C637.155 762.373 636.942 762.893 636.515 763.32C636.089 763.747 635.569 763.96 634.955 763.96ZM654.118 790.2C652.011 790.2 650.131 789.72 648.478 788.76C646.851 787.773 645.558 786.44 644.598 784.76C643.664 783.08 643.198 781.187 643.198 779.08C643.198 776.947 643.651 775.04 644.558 773.36C645.464 771.68 646.704 770.36 648.278 769.4C649.851 768.413 651.664 767.92 653.718 767.92C655.344 767.92 656.838 768.24 658.198 768.88C659.584 769.52 660.798 770.48 661.838 771.76C662.131 772.08 662.238 772.427 662.158 772.8C662.078 773.147 661.851 773.453 661.478 773.72C661.184 773.933 660.851 774.013 660.478 773.96C660.131 773.88 659.824 773.68 659.558 773.36C658.011 771.6 656.064 770.72 653.718 770.72C652.224 770.72 650.904 771.08 649.758 771.8C648.638 772.52 647.758 773.507 647.118 774.76C646.504 776.013 646.198 777.453 646.198 779.08C646.198 780.68 646.531 782.107 647.198 783.36C647.864 784.613 648.798 785.6 649.998 786.32C651.198 787.04 652.571 787.4 654.118 787.4C655.158 787.4 656.104 787.267 656.958 787C657.838 786.707 658.611 786.267 659.278 785.68C659.598 785.413 659.931 785.267 660.278 785.24C660.624 785.213 660.944 785.32 661.238 785.56C661.558 785.853 661.731 786.187 661.758 786.56C661.811 786.933 661.691 787.253 661.398 787.52C659.451 789.307 657.024 790.2 654.118 790.2ZM677.787 790.2C675.734 790.2 673.894 789.72 672.267 788.76C670.64 787.773 669.347 786.44 668.387 784.76C667.454 783.08 666.987 781.187 666.987 779.08C666.987 776.947 667.467 775.04 668.427 773.36C669.414 771.68 670.747 770.36 672.427 769.4C674.107 768.413 676 767.92 678.107 767.92C680.214 767.92 682.094 768.413 683.747 769.4C685.427 770.36 686.747 771.68 687.707 773.36C688.694 775.04 689.2 776.947 689.227 779.08L687.987 780.04C687.987 781.96 687.534 783.693 686.627 785.24C685.747 786.76 684.534 787.973 682.987 788.88C681.467 789.76 679.734 790.2 677.787 790.2ZM678.107 787.4C679.654 787.4 681.027 787.04 682.227 786.32C683.454 785.6 684.414 784.613 685.107 783.36C685.827 782.08 686.187 780.653 686.187 779.08C686.187 777.48 685.827 776.053 685.107 774.8C684.414 773.547 683.454 772.56 682.227 771.84C681.027 771.093 679.654 770.72 678.107 770.72C676.587 770.72 675.214 771.093 673.987 771.84C672.76 772.56 671.787 773.547 671.067 774.8C670.347 776.053 669.987 777.48 669.987 779.08C669.987 780.653 670.347 782.08 671.067 783.36C671.787 784.613 672.76 785.6 673.987 786.32C675.214 787.04 676.587 787.4 678.107 787.4ZM687.667 790C687.214 790 686.84 789.867 686.547 789.6C686.254 789.307 686.107 788.933 686.107 788.48V781.64L686.867 778.48L689.227 779.08V788.48C689.227 788.933 689.08 789.307 688.787 789.6C688.494 789.867 688.12 790 687.667 790ZM286.114 835.2C283.954 835.2 282.034 834.733 280.354 833.8C278.7 832.84 277.394 831.52 276.434 829.84C275.5 828.16 275.034 826.24 275.034 824.08C275.034 821.893 275.474 819.973 276.354 818.32C277.26 816.64 278.5 815.32 280.074 814.36C281.647 813.4 283.46 812.92 285.514 812.92C287.54 812.92 289.3 813.387 290.794 814.32C292.314 815.227 293.487 816.493 294.314 818.12C295.14 819.747 295.554 821.6 295.554 823.68C295.554 824.107 295.42 824.453 295.154 824.72C294.887 824.96 294.54 825.08 294.114 825.08H277.114V822.52H294.434L292.714 823.76C292.74 822.213 292.46 820.827 291.874 819.6C291.287 818.373 290.447 817.413 289.354 816.72C288.287 816.027 287.007 815.68 285.514 815.68C283.994 815.68 282.66 816.04 281.514 816.76C280.367 817.48 279.474 818.48 278.834 819.76C278.22 821.013 277.914 822.453 277.914 824.08C277.914 825.707 278.26 827.147 278.954 828.4C279.674 829.653 280.647 830.64 281.874 831.36C283.1 832.08 284.514 832.44 286.114 832.44C287.074 832.44 288.034 832.28 288.994 831.96C289.98 831.613 290.767 831.187 291.354 830.68C291.647 830.44 291.98 830.32 292.354 830.32C292.727 830.293 293.047 830.387 293.314 830.6C293.66 830.92 293.834 831.267 293.834 831.64C293.86 832.013 293.714 832.333 293.394 832.6C292.514 833.347 291.394 833.973 290.034 834.48C288.674 834.96 287.367 835.2 286.114 835.2ZM285.034 809.8C284.607 809.8 284.234 809.653 283.914 809.36C283.62 809.04 283.474 808.667 283.474 808.24C283.474 807.813 283.594 807.467 283.834 807.2L288.354 802.68C288.647 802.387 289.007 802.24 289.434 802.24C289.887 802.24 290.26 802.4 290.554 802.72C290.847 803.013 290.994 803.387 290.994 803.84C290.994 804.027 290.954 804.213 290.874 804.4C290.82 804.587 290.714 804.747 290.554 804.88L286.074 809.4C285.807 809.667 285.46 809.8 285.034 809.8ZM342.043 835C341.589 835 341.216 834.867 340.923 834.6C340.629 834.307 340.483 833.933 340.483 833.48V821.96C340.483 820.067 339.989 818.573 339.003 817.48C338.016 816.36 336.749 815.8 335.203 815.8C333.549 815.8 332.189 816.36 331.123 817.48C330.083 818.573 329.576 820.04 329.603 821.88H326.843C326.869 820.093 327.256 818.52 328.003 817.16C328.749 815.8 329.776 814.747 331.083 814C332.389 813.253 333.869 812.88 335.523 812.88C337.096 812.88 338.483 813.253 339.683 814C340.909 814.747 341.856 815.8 342.523 817.16C343.216 818.52 343.563 820.12 343.563 821.96V833.48C343.563 833.933 343.416 834.307 343.123 834.6C342.856 834.867 342.496 835 342.043 835ZM314.043 835C313.563 835 313.176 834.867 312.883 834.6C312.616 834.307 312.483 833.933 312.483 833.48V814.68C312.483 814.227 312.616 813.853 312.883 813.56C313.176 813.267 313.563 813.12 314.043 813.12C314.496 813.12 314.856 813.267 315.123 813.56C315.416 813.853 315.563 814.227 315.563 814.68V833.48C315.563 833.933 315.416 834.307 315.123 834.6C314.856 834.867 314.496 835 314.043 835ZM328.083 835C327.629 835 327.256 834.867 326.963 834.6C326.669 834.307 326.523 833.933 326.523 833.48V821.96C326.523 820.067 326.029 818.573 325.043 817.48C324.056 816.36 322.789 815.8 321.243 815.8C319.589 815.8 318.229 816.347 317.163 817.44C316.096 818.507 315.563 819.907 315.563 821.64H313.363C313.416 819.933 313.789 818.427 314.483 817.12C315.203 815.787 316.176 814.747 317.403 814C318.629 813.253 320.016 812.88 321.563 812.88C323.136 812.88 324.523 813.253 325.723 814C326.949 814.747 327.896 815.8 328.563 817.16C329.256 818.52 329.603 820.12 329.603 821.96V833.48C329.603 833.933 329.456 834.307 329.163 834.6C328.896 834.867 328.536 835 328.083 835ZM359.893 835.24C358 835.24 356.307 834.853 354.813 834.08C353.32 833.28 352.133 832.12 351.253 830.6C350.4 829.08 349.973 827.227 349.973 825.04V814.64C349.973 814.213 350.12 813.853 350.413 813.56C350.707 813.267 351.067 813.12 351.493 813.12C351.947 813.12 352.32 813.267 352.613 813.56C352.907 813.853 353.053 814.213 353.053 814.64V825.04C353.053 826.693 353.36 828.053 353.973 829.12C354.613 830.187 355.467 830.987 356.533 831.52C357.627 832.053 358.853 832.32 360.213 832.32C361.52 832.32 362.693 832.067 363.733 831.56C364.8 831.053 365.64 830.36 366.253 829.48C366.867 828.6 367.173 827.6 367.173 826.48H369.373C369.293 828.16 368.827 829.667 367.973 831C367.147 832.307 366.027 833.347 364.613 834.12C363.2 834.867 361.627 835.24 359.893 835.24ZM368.693 835C368.24 835 367.867 834.867 367.573 834.6C367.307 834.307 367.173 833.92 367.173 833.44V814.64C367.173 814.187 367.307 813.827 367.573 813.56C367.867 813.267 368.24 813.12 368.693 813.12C369.147 813.12 369.52 813.267 369.813 813.56C370.107 813.827 370.253 814.187 370.253 814.64V833.44C370.253 833.92 370.107 834.307 369.813 834.6C369.52 834.867 369.147 835 368.693 835ZM387.404 835.2C385.297 835.2 383.404 834.72 381.724 833.76C380.044 832.773 378.71 831.44 377.724 829.76C376.764 828.08 376.284 826.173 376.284 824.04C376.284 821.933 376.75 820.04 377.684 818.36C378.644 816.68 379.937 815.36 381.564 814.4C383.19 813.413 385.03 812.92 387.084 812.92C388.87 812.92 390.484 813.307 391.924 814.08C393.364 814.827 394.524 815.827 395.404 817.08V805.32C395.404 804.84 395.55 804.467 395.844 804.2C396.137 803.907 396.51 803.76 396.964 803.76C397.417 803.76 397.79 803.907 398.084 804.2C398.377 804.467 398.524 804.84 398.524 805.32V824.2C398.47 826.28 397.95 828.16 396.964 829.84C396.004 831.493 394.684 832.8 393.004 833.76C391.35 834.72 389.484 835.2 387.404 835.2ZM387.404 832.4C388.95 832.4 390.324 832.04 391.524 831.32C392.75 830.573 393.71 829.573 394.404 828.32C395.124 827.067 395.484 825.64 395.484 824.04C395.484 822.467 395.124 821.053 394.404 819.8C393.71 818.52 392.75 817.52 391.524 816.8C390.324 816.08 388.95 815.72 387.404 815.72C385.884 815.72 384.51 816.08 383.284 816.8C382.057 817.52 381.084 818.52 380.364 819.8C379.644 821.053 379.284 822.467 379.284 824.04C379.284 825.64 379.644 827.067 380.364 828.32C381.084 829.573 382.057 830.573 383.284 831.32C384.51 832.04 385.884 832.4 387.404 832.4ZM415.365 835.2C413.312 835.2 411.472 834.72 409.845 833.76C408.218 832.773 406.925 831.44 405.965 829.76C405.032 828.08 404.565 826.187 404.565 824.08C404.565 821.947 405.045 820.04 406.005 818.36C406.992 816.68 408.325 815.36 410.005 814.4C411.685 813.413 413.578 812.92 415.685 812.92C417.792 812.92 419.672 813.413 421.325 814.4C423.005 815.36 424.325 816.68 425.285 818.36C426.272 820.04 426.778 821.947 426.805 824.08L425.565 825.04C425.565 826.96 425.112 828.693 424.205 830.24C423.325 831.76 422.112 832.973 420.565 833.88C419.045 834.76 417.312 835.2 415.365 835.2ZM415.685 832.4C417.232 832.4 418.605 832.04 419.805 831.32C421.032 830.6 421.992 829.613 422.685 828.36C423.405 827.08 423.765 825.653 423.765 824.08C423.765 822.48 423.405 821.053 422.685 819.8C421.992 818.547 421.032 817.56 419.805 816.84C418.605 816.093 417.232 815.72 415.685 815.72C414.165 815.72 412.792 816.093 411.565 816.84C410.338 817.56 409.365 818.547 408.645 819.8C407.925 821.053 407.565 822.48 407.565 824.08C407.565 825.653 407.925 827.08 408.645 828.36C409.365 829.613 410.338 830.6 411.565 831.32C412.792 832.04 414.165 832.4 415.685 832.4ZM425.245 835C424.792 835 424.418 834.867 424.125 834.6C423.832 834.307 423.685 833.933 423.685 833.48V826.64L424.445 823.48L426.805 824.08V833.48C426.805 833.933 426.658 834.307 426.365 834.6C426.072 834.867 425.698 835 425.245 835ZM434.075 821.52C434.155 819.867 434.582 818.387 435.355 817.08C436.155 815.773 437.182 814.747 438.435 814C439.715 813.253 441.129 812.88 442.675 812.88C443.902 812.88 444.849 813.053 445.515 813.4C446.182 813.747 446.435 814.253 446.275 814.92C446.169 815.32 445.982 815.587 445.715 815.72C445.475 815.853 445.169 815.907 444.795 815.88C444.449 815.853 444.049 815.827 443.595 815.8C442.102 815.667 440.769 815.827 439.595 816.28C438.449 816.707 437.529 817.373 436.835 818.28C436.169 819.187 435.835 820.267 435.835 821.52H434.075ZM434.315 835C433.835 835 433.462 834.867 433.195 834.6C432.929 834.333 432.795 833.96 432.795 833.48V814.64C432.795 814.16 432.929 813.787 433.195 813.52C433.462 813.253 433.835 813.12 434.315 813.12C434.795 813.12 435.169 813.253 435.435 813.52C435.702 813.787 435.835 814.16 435.835 814.64V833.48C435.835 833.96 435.702 834.333 435.435 834.6C435.169 834.867 434.795 835 434.315 835ZM472.794 835.2C470.661 835.2 468.754 834.72 467.074 833.76C465.394 832.8 464.074 831.48 463.114 829.8C462.154 828.12 461.674 826.213 461.674 824.08C461.674 821.92 462.154 820 463.114 818.32C464.074 816.64 465.394 815.32 467.074 814.36C468.754 813.4 470.661 812.92 472.794 812.92C474.928 812.92 476.821 813.4 478.474 814.36C480.154 815.32 481.474 816.64 482.434 818.32C483.394 820 483.888 821.92 483.914 824.08C483.914 826.213 483.421 828.12 482.434 829.8C481.474 831.48 480.154 832.8 478.474 833.76C476.821 834.72 474.928 835.2 472.794 835.2ZM472.794 832.4C474.341 832.4 475.728 832.04 476.954 831.32C478.181 830.6 479.141 829.613 479.834 828.36C480.528 827.107 480.874 825.68 480.874 824.08C480.874 822.48 480.528 821.053 479.834 819.8C479.141 818.52 478.181 817.52 476.954 816.8C475.728 816.08 474.341 815.72 472.794 815.72C471.248 815.72 469.861 816.08 468.634 816.8C467.408 817.52 466.434 818.52 465.714 819.8C465.021 821.053 464.674 822.48 464.674 824.08C464.674 825.68 465.021 827.107 465.714 828.36C466.434 829.613 467.408 830.6 468.634 831.32C469.861 832.04 471.248 832.4 472.794 832.4ZM531.183 835C530.73 835 530.357 834.867 530.063 834.6C529.77 834.307 529.623 833.933 529.623 833.48V821.96C529.623 820.067 529.13 818.573 528.143 817.48C527.157 816.36 525.89 815.8 524.343 815.8C522.69 815.8 521.33 816.36 520.263 817.48C519.223 818.573 518.717 820.04 518.743 821.88H515.983C516.01 820.093 516.397 818.52 517.143 817.16C517.89 815.8 518.917 814.747 520.223 814C521.53 813.253 523.01 812.88 524.663 812.88C526.237 812.88 527.623 813.253 528.823 814C530.05 814.747 530.997 815.8 531.663 817.16C532.357 818.52 532.703 820.12 532.703 821.96V833.48C532.703 833.933 532.557 834.307 532.263 834.6C531.997 834.867 531.637 835 531.183 835ZM503.183 835C502.703 835 502.317 834.867 502.023 834.6C501.757 834.307 501.623 833.933 501.623 833.48V814.68C501.623 814.227 501.757 813.853 502.023 813.56C502.317 813.267 502.703 813.12 503.183 813.12C503.637 813.12 503.997 813.267 504.263 813.56C504.557 813.853 504.703 814.227 504.703 814.68V833.48C504.703 833.933 504.557 834.307 504.263 834.6C503.997 834.867 503.637 835 503.183 835ZM517.223 835C516.77 835 516.397 834.867 516.103 834.6C515.81 834.307 515.663 833.933 515.663 833.48V821.96C515.663 820.067 515.17 818.573 514.183 817.48C513.197 816.36 511.93 815.8 510.383 815.8C508.73 815.8 507.37 816.347 506.303 817.44C505.237 818.507 504.703 819.907 504.703 821.64H502.503C502.557 819.933 502.93 818.427 503.623 817.12C504.343 815.787 505.317 814.747 506.543 814C507.77 813.253 509.157 812.88 510.703 812.88C512.277 812.88 513.663 813.253 514.863 814C516.09 814.747 517.037 815.8 517.703 817.16C518.397 818.52 518.743 820.12 518.743 821.96V833.48C518.743 833.933 518.597 834.307 518.303 834.6C518.037 834.867 517.677 835 517.223 835ZM549.034 835.24C547.141 835.24 545.447 834.853 543.954 834.08C542.461 833.28 541.274 832.12 540.394 830.6C539.541 829.08 539.114 827.227 539.114 825.04V814.64C539.114 814.213 539.261 813.853 539.554 813.56C539.847 813.267 540.207 813.12 540.634 813.12C541.087 813.12 541.461 813.267 541.754 813.56C542.047 813.853 542.194 814.213 542.194 814.64V825.04C542.194 826.693 542.501 828.053 543.114 829.12C543.754 830.187 544.607 830.987 545.674 831.52C546.767 832.053 547.994 832.32 549.354 832.32C550.661 832.32 551.834 832.067 552.874 831.56C553.941 831.053 554.781 830.36 555.394 829.48C556.007 828.6 556.314 827.6 556.314 826.48H558.514C558.434 828.16 557.967 829.667 557.114 831C556.287 832.307 555.167 833.347 553.754 834.12C552.341 834.867 550.767 835.24 549.034 835.24ZM557.834 835C557.381 835 557.007 834.867 556.714 834.6C556.447 834.307 556.314 833.92 556.314 833.44V814.64C556.314 814.187 556.447 813.827 556.714 813.56C557.007 813.267 557.381 813.12 557.834 813.12C558.287 813.12 558.661 813.267 558.954 813.56C559.247 813.827 559.394 814.187 559.394 814.64V833.44C559.394 833.92 559.247 834.307 558.954 834.6C558.661 834.867 558.287 835 557.834 835ZM585.344 835C584.891 835 584.518 834.853 584.224 834.56C583.931 834.267 583.784 833.907 583.784 833.48V823.08C583.784 821.427 583.464 820.067 582.824 819C582.211 817.933 581.358 817.133 580.264 816.6C579.198 816.067 577.984 815.8 576.624 815.8C575.318 815.8 574.131 816.053 573.064 816.56C572.024 817.067 571.198 817.76 570.584 818.64C569.971 819.52 569.664 820.52 569.664 821.64H567.464C567.518 819.96 567.971 818.467 568.824 817.16C569.678 815.827 570.811 814.787 572.224 814.04C573.638 813.267 575.211 812.88 576.944 812.88C578.838 812.88 580.531 813.28 582.024 814.08C583.518 814.853 584.691 816 585.544 817.52C586.424 819.04 586.864 820.893 586.864 823.08V833.48C586.864 833.907 586.718 834.267 586.424 834.56C586.131 834.853 585.771 835 585.344 835ZM568.144 835C567.664 835 567.278 834.867 566.984 834.6C566.718 834.307 566.584 833.933 566.584 833.48V814.68C566.584 814.2 566.718 813.827 566.984 813.56C567.278 813.267 567.664 813.12 568.144 813.12C568.598 813.12 568.958 813.267 569.224 813.56C569.518 813.827 569.664 814.2 569.664 814.68V833.48C569.664 833.933 569.518 834.307 569.224 834.6C568.958 834.867 568.598 835 568.144 835ZM603.615 835.2C601.508 835.2 599.615 834.72 597.935 833.76C596.255 832.773 594.921 831.44 593.935 829.76C592.975 828.08 592.495 826.173 592.495 824.04C592.495 821.933 592.961 820.04 593.895 818.36C594.855 816.68 596.148 815.36 597.775 814.4C599.401 813.413 601.241 812.92 603.295 812.92C605.081 812.92 606.695 813.307 608.135 814.08C609.575 814.827 610.735 815.827 611.615 817.08V805.32C611.615 804.84 611.761 804.467 612.055 804.2C612.348 803.907 612.721 803.76 613.175 803.76C613.628 803.76 614.001 803.907 614.295 804.2C614.588 804.467 614.735 804.84 614.735 805.32V824.2C614.681 826.28 614.161 828.16 613.175 829.84C612.215 831.493 610.895 832.8 609.215 833.76C607.561 834.72 605.695 835.2 603.615 835.2ZM603.615 832.4C605.161 832.4 606.535 832.04 607.735 831.32C608.961 830.573 609.921 829.573 610.615 828.32C611.335 827.067 611.695 825.64 611.695 824.04C611.695 822.467 611.335 821.053 610.615 819.8C609.921 818.52 608.961 817.52 607.735 816.8C606.535 816.08 605.161 815.72 603.615 815.72C602.095 815.72 600.721 816.08 599.495 816.8C598.268 817.52 597.295 818.52 596.575 819.8C595.855 821.053 595.495 822.467 595.495 824.04C595.495 825.64 595.855 827.067 596.575 828.32C597.295 829.573 598.268 830.573 599.495 831.32C600.721 832.04 602.095 832.4 603.615 832.4ZM631.896 835.2C629.763 835.2 627.856 834.72 626.176 833.76C624.496 832.8 623.176 831.48 622.216 829.8C621.256 828.12 620.776 826.213 620.776 824.08C620.776 821.92 621.256 820 622.216 818.32C623.176 816.64 624.496 815.32 626.176 814.36C627.856 813.4 629.763 812.92 631.896 812.92C634.029 812.92 635.923 813.4 637.576 814.36C639.256 815.32 640.576 816.64 641.536 818.32C642.496 820 642.989 821.92 643.016 824.08C643.016 826.213 642.523 828.12 641.536 829.8C640.576 831.48 639.256 832.8 637.576 833.76C635.923 834.72 634.029 835.2 631.896 835.2ZM631.896 832.4C633.443 832.4 634.829 832.04 636.056 831.32C637.283 830.6 638.243 829.613 638.936 828.36C639.629 827.107 639.976 825.68 639.976 824.08C639.976 822.48 639.629 821.053 638.936 819.8C638.243 818.52 637.283 817.52 636.056 816.8C634.829 816.08 633.443 815.72 631.896 815.72C630.349 815.72 628.963 816.08 627.736 816.8C626.509 817.52 625.536 818.52 624.816 819.8C624.123 821.053 623.776 822.48 623.776 824.08C623.776 825.68 624.123 827.107 624.816 828.36C625.536 829.613 626.509 830.6 627.736 831.32C628.963 832.04 630.349 832.4 631.896 832.4Z" fill="#ECECEC" fill-opacity="0.807843" shape-rendering="crispEdges"/>
</g>
<g filter="url(#filter3_d_16_3)">
<path d="M197.816 784.753C197.816 806.53 191.127 827.439 179.187 842.981C167.248 858.524 151.011 867.459 133.97 867.865C116.928 868.272 100.441 860.117 88.0561 845.155C75.6707 830.193 68.3755 809.619 67.7392 787.856C67.1028 766.093 73.1762 744.88 84.6533 728.779C96.1303 712.678 112.094 702.975 129.112 701.756C146.131 700.536 162.844 707.899 175.658 722.26C188.471 736.621 196.363 756.833 197.635 778.55" fill="#ECECEC"/>
<path d="M113.507 849.066C114.525 813.164 123.116 818.979 122.473 782.497C135.145 778.575 145.801 775.973 142.036 782.71L142.307 849.066H113.507Z" fill="#6D6D6D"/>
<path d="M152.065 849.066C151.048 813.164 142.456 818.979 143.099 782.497C130.428 778.575 119.771 775.973 123.537 782.71L123.265 849.066H152.065Z" fill="#6D6D6D"/>
<path d="M152.323 847.48C152.323 850.149 151.397 852.769 149.64 855.07C147.884 857.37 145.361 859.266 142.334 860.561C139.307 861.856 135.885 862.504 132.424 862.436C128.963 862.369 125.588 861.589 122.65 860.177C119.712 858.765 117.317 856.773 115.714 854.408C114.11 852.042 113.357 849.389 113.532 846.723" fill="#6D6D6D"/>
<path d="M132.904 704.356C124.368 711.563 117.924 721.001 118.41 737.831C119.105 753.646 125.279 762.56 132.439 770.233L132.359 738.319L132.904 704.356Z" fill="#6D6D6D"/>
<path d="M132.905 704.356C141.441 711.563 147.885 721.001 147.399 737.831C146.704 753.646 140.529 762.56 133.37 770.233L133.449 738.319L132.905 704.356Z" fill="#6D6D6D"/>
<path d="M190.97 801.735C188.652 790.801 183.382 780.659 168.336 773.142C154.085 766.289 143.326 767.53 133.194 770.225L161.328 785.221L190.97 801.735Z" fill="#6D6D6D"/>
<path d="M190.965 801.743C180.595 805.873 169.247 807.104 154.659 798.73C141.064 790.651 136.129 780.994 132.75 771.054L160.809 786.19L190.965 801.743Z" fill="#6D6D6D"/>
<path d="M74.86 801.582C77.1788 790.648 82.4484 780.506 97.4945 772.989C111.745 766.136 122.504 767.377 132.636 770.072L104.503 785.068L74.86 801.582Z" fill="#6D6D6D"/>
<path d="M74.8657 801.591C85.2359 805.72 96.5839 806.951 111.172 798.577C124.767 790.498 129.702 780.841 133.081 770.901L105.022 786.037L74.8657 801.591Z" fill="#6D6D6D"/>
<path d="M132.755 780.083C136.963 780.083 140.375 776.666 140.375 772.451C140.375 768.236 136.963 764.819 132.755 764.819C128.546 764.819 125.134 768.236 125.134 772.451C125.134 776.666 128.546 780.083 132.755 780.083Z" fill="#ECECEC"/>
</g>
</g>
<defs>
<filter id="filter0_i_16_3" x="-1260" y="-169.283" width="2033.78" height="1276.49" filterUnits="userSpaceOnUse" color-interpolation-filters="sRGB">
<feFlood flood-opacity="0" result="BackgroundImageFix"/>
<feBlend mode="normal" in="SourceGraphic" in2="BackgroundImageFix" result="shape"/>
<feColorMatrix in="SourceAlpha" type="matrix" values="0 0 0 0 0 0 0 0 0 0 0 0 0 0 0 0 0 0 127 0" result="hardAlpha"/>
<feOffset dy="4"/>
<feGaussianBlur stdDeviation="8.8"/>
<feComposite in2="hardAlpha" operator="arithmetic" k2="-1" k3="1"/>
<feColorMatrix type="matrix" values="0 0 0 0 0 0 0 0 0 0 0 0 0 0 0 0 0 0 0.25 0"/>
<feBlend mode="normal" in2="shape" result="effect1_innerShadow_16_3"/>
</filter>
<filter id="filter1_i_16_3" x="384.29" y="115.55" width="1449.74" height="146.95" filterUnits="userSpaceOnUse" color-interpolation-filters="sRGB">
<feFlood flood-opacity="0" result="BackgroundImageFix"/>
<feBlend mode="normal" in="SourceGraphic" in2="BackgroundImageFix" result="shape"/>
<feColorMatrix in="SourceAlpha" type="matrix" values="0 0 0 0 0 0 0 0 0 0 0 0 0 0 0 0 0 0 127 0" result="hardAlpha"/>
<feOffset dy="4"/>
<feGaussianBlur stdDeviation="2"/>
<feComposite in2="hardAlpha" operator="arithmetic" k2="-1" k3="1"/>
<feColorMatrix type="matrix" values="0 0 0 0 0 0 0 0 0 0 0 0 0 0 0 0 0 0 0.25 0"/>
<feBlend mode="normal" in2="shape" result="effect1_innerShadow_16_3"/>
</filter>
<filter id="filter2_d_16_3" x="224.863" y="757.24" width="468.364" height="86" filterUnits="userSpaceOnUse" color-interpolation-filters="sRGB">
<feFlood flood-opacity="0" result="BackgroundImageFix"/>
<feColorMatrix in="SourceAlpha" type="matrix" values="0 0 0 0 0 0 0 0 0 0 0 0 0 0 0 0 0 0 127 0" result="hardAlpha"/>
<feOffset dy="4"/>
<feGaussianBlur stdDeviation="2"/>
<feComposite in2="hardAlpha" operator="out"/>
<feColorMatrix type="matrix" values="0 0 0 0 0 0 0 0 0 0 0 0 0 0 0 0 0 0 0.25 0"/>
<feBlend mode="normal" in2="BackgroundImageFix" result="effect1_dropShadow_16_3"/>
<feBlend mode="normal" in="SourceGraphic" in2="effect1_dropShadow_16_3" result="shape"/>
</filter>
<filter id="filter3_d_16_3" x="-61" y="683" width="380" height="217" filterUnits="userSpaceOnUse" color-interpolation-filters="sRGB">
<feFlood flood-opacity="0" result="BackgroundImageFix"/>
<feColorMatrix in="SourceAlpha" type="matrix" values="0 0 0 0 0 0 0 0 0 0 0 0 0 0 0 0 0 0 127 0" result="hardAlpha"/>
<feOffset dy="4"/>
<feGaussianBlur stdDeviation="2"/>
<feComposite in2="hardAlpha" operator="out"/>
<feColorMatrix type="matrix" values="0 0 0 0 0 0 0 0 0 0 0 0 0 0 0 0 0 0 0.25 0"/>
<feBlend mode="normal" in2="BackgroundImageFix" result="effect1_dropShadow_16_3"/>
<feBlend mode="normal" in="SourceGraphic" in2="effect1_dropShadow_16_3" result="shape"/>
</filter>
<clipPath id="clip0_16_3">
<rect width="1900" height="912" fill="white"/>
</clipPath>
</defs>
</svg>
