<svg width="1308" height="1629" viewBox="0 0 1308 1629" fill="none" xmlns="http://www.w3.org/2000/svg">
<g clip-path="url(#clip0_6_100)">
<g filter="url(#filter0_i_6_100)">
<path d="M1274.81 814.5C1274.81 1027.89 1209.12 1232.75 1091.87 1385.04C974.626 1537.32 815.18 1624.87 647.825 1628.86C480.47 1632.84 318.571 1552.94 196.945 1406.34C75.3182 1259.74 3.6776 1058.14 -2.57141 844.908C-8.82042 631.672 50.8213 423.825 163.528 266.063C276.235 108.301 433.006 13.2246 600.128 1.27851C767.25 -10.6675 931.375 61.4711 1057.21 202.182C1183.04 342.893 1260.54 540.937 1273.03 753.727" fill="#009AFF"/>
</g>
<g filter="url(#filter1_d_6_100)">
<path d="M446.902 1445.03C456.891 1093.06 541.268 1150.07 534.953 792.402C659.393 753.953 764.046 728.45 727.065 794.493L729.733 1445.03H446.902Z" fill="#00FF95"/>
<path d="M825.561 1445.03C815.571 1093.06 731.195 1150.07 737.509 792.402C613.069 753.953 508.416 728.45 545.397 794.493L542.729 1445.03H825.561Z" fill="#00FF95"/>
<path d="M826 1429.08C826 1454.04 816.956 1478.55 799.807 1500.06C782.658 1521.57 758.027 1539.3 728.469 1551.42C698.911 1563.53 665.503 1569.59 631.707 1568.96C597.912 1568.32 564.96 1561.03 536.27 1547.83C507.58 1534.62 484.195 1515.99 468.541 1493.87C452.887 1471.74 445.533 1446.93 447.242 1422" fill="#00FF95"/>
</g>
<g filter="url(#filter2_d_6_100)">
<path d="M637.383 26.3257C553.557 96.9784 490.273 189.506 495.044 354.509C501.868 509.554 562.509 596.942 632.82 672.171L632.038 359.289L637.383 26.3257Z" fill="#ECECEC"/>
<path d="M637.397 26.3257C721.223 96.9784 784.507 189.506 779.736 354.509C772.911 509.554 712.271 596.942 641.96 672.171L642.742 359.289L637.397 26.3257Z" fill="#ECECEC"/>
</g>
<g filter="url(#filter3_d_6_100)">
<path d="M1207.58 981.01C1184.85 873.772 1133.13 774.317 985.38 700.648C845.442 633.488 739.762 645.699 640.237 672.173L916.5 819.152L1207.58 981.01Z" fill="#ECECEC"/>
<path d="M1207.58 981.011C1105.71 1021.56 994.249 1033.67 851.005 951.593C717.509 872.402 669.077 777.704 635.929 680.22L911.454 828.577L1207.58 981.011Z" fill="#ECECEC"/>
</g>
<g filter="url(#filter4_d_6_100)">
<path d="M67.4161 979.51C90.1484 872.273 141.866 772.818 289.615 699.149C429.553 631.989 535.234 644.2 634.758 670.673L358.495 817.652L67.4161 979.51Z" fill="#ECECEC"/>
<path d="M67.4153 979.512C169.284 1020.06 280.746 1032.17 423.991 950.093C557.486 870.902 605.919 776.204 639.066 678.72L363.541 827.078L67.4153 979.512Z" fill="#ECECEC"/>
</g>
<g filter="url(#filter5_d_6_100)">
<path d="M635.922 768.734C677.254 768.734 710.759 735.236 710.759 693.913C710.759 652.591 677.254 619.092 635.922 619.092C594.591 619.092 561.086 652.591 561.086 693.913C561.086 735.236 594.591 768.734 635.922 768.734Z" fill="#FFF879"/>
</g>
</g>
<defs>
<filter id="filter0_i_6_100" x="-3.01727" y="0" width="1277.83" height="1633" filterUnits="userSpaceOnUse" color-interpolation-filters="sRGB">
<feFlood flood-opacity="0" result="BackgroundImageFix"/>
<feBlend mode="normal" in="SourceGraphic" in2="BackgroundImageFix" result="shape"/>
<feColorMatrix in="SourceAlpha" type="matrix" values="0 0 0 0 0 0 0 0 0 0 0 0 0 0 0 0 0 0 127 0" result="hardAlpha"/>
<feOffset dy="4"/>
<feGaussianBlur stdDeviation="2"/>
<feComposite in2="hardAlpha" operator="arithmetic" k2="-1" k3="1"/>
<feColorMatrix type="matrix" values="0 0 0 0 0 0 0 0 0 0 0 0 0 0 0 0 0 0 0.25 0"/>
<feBlend mode="normal" in2="shape" result="effect1_innerShadow_6_100"/>
</filter>
<filter id="filter1_d_6_100" x="442.902" y="753.784" width="387.098" height="823.216" filterUnits="userSpaceOnUse" color-interpolation-filters="sRGB">
<feFlood flood-opacity="0" result="BackgroundImageFix"/>
<feColorMatrix in="SourceAlpha" type="matrix" values="0 0 0 0 0 0 0 0 0 0 0 0 0 0 0 0 0 0 127 0" result="hardAlpha"/>
<feOffset dy="4"/>
<feGaussianBlur stdDeviation="2"/>
<feComposite in2="hardAlpha" operator="out"/>
<feColorMatrix type="matrix" values="0 0 0 0 0 0 0 0 0 0 0 0 0 0 0 0 0 0 0.25 0"/>
<feBlend mode="normal" in2="BackgroundImageFix" result="effect1_dropShadow_6_100"/>
<feBlend mode="normal" in="SourceGraphic" in2="effect1_dropShadow_6_100" result="shape"/>
</filter>
<filter id="filter2_d_6_100" x="490.791" y="26.3257" width="293.198" height="653.845" filterUnits="userSpaceOnUse" color-interpolation-filters="sRGB">
<feFlood flood-opacity="0" result="BackgroundImageFix"/>
<feColorMatrix in="SourceAlpha" type="matrix" values="0 0 0 0 0 0 0 0 0 0 0 0 0 0 0 0 0 0 127 0" result="hardAlpha"/>
<feOffset dy="4"/>
<feGaussianBlur stdDeviation="2"/>
<feComposite in2="hardAlpha" operator="out"/>
<feColorMatrix type="matrix" values="0 0 0 0 0 0 0 0 0 0 0 0 0 0 0 0 0 0 0.25 0"/>
<feBlend mode="normal" in2="BackgroundImageFix" result="effect1_dropShadow_6_100"/>
<feBlend mode="normal" in="SourceGraphic" in2="effect1_dropShadow_6_100" result="shape"/>
</filter>
<filter id="filter3_d_6_100" x="631.929" y="651.027" width="579.65" height="369.492" filterUnits="userSpaceOnUse" color-interpolation-filters="sRGB">
<feFlood flood-opacity="0" result="BackgroundImageFix"/>
<feColorMatrix in="SourceAlpha" type="matrix" values="0 0 0 0 0 0 0 0 0 0 0 0 0 0 0 0 0 0 127 0" result="hardAlpha"/>
<feOffset dy="4"/>
<feGaussianBlur stdDeviation="2"/>
<feComposite in2="hardAlpha" operator="out"/>
<feColorMatrix type="matrix" values="0 0 0 0 0 0 0 0 0 0 0 0 0 0 0 0 0 0 0.25 0"/>
<feBlend mode="normal" in2="BackgroundImageFix" result="effect1_dropShadow_6_100"/>
<feBlend mode="normal" in="SourceGraphic" in2="effect1_dropShadow_6_100" result="shape"/>
</filter>
<filter id="filter4_d_6_100" x="63.4153" y="649.528" width="579.651" height="369.492" filterUnits="userSpaceOnUse" color-interpolation-filters="sRGB">
<feFlood flood-opacity="0" result="BackgroundImageFix"/>
<feColorMatrix in="SourceAlpha" type="matrix" values="0 0 0 0 0 0 0 0 0 0 0 0 0 0 0 0 0 0 127 0" result="hardAlpha"/>
<feOffset dy="4"/>
<feGaussianBlur stdDeviation="2"/>
<feComposite in2="hardAlpha" operator="out"/>
<feColorMatrix type="matrix" values="0 0 0 0 0 0 0 0 0 0 0 0 0 0 0 0 0 0 0.25 0"/>
<feBlend mode="normal" in2="BackgroundImageFix" result="effect1_dropShadow_6_100"/>
<feBlend mode="normal" in="SourceGraphic" in2="effect1_dropShadow_6_100" result="shape"/>
</filter>
<filter id="filter5_d_6_100" x="557.086" y="619.092" width="157.674" height="157.642" filterUnits="userSpaceOnUse" color-interpolation-filters="sRGB">
<feFlood flood-opacity="0" result="BackgroundImageFix"/>
<feColorMatrix in="SourceAlpha" type="matrix" values="0 0 0 0 0 0 0 0 0 0 0 0 0 0 0 0 0 0 127 0" result="hardAlpha"/>
<feOffset dy="4"/>
<feGaussianBlur stdDeviation="2"/>
<feComposite in2="hardAlpha" operator="out"/>
<feColorMatrix type="matrix" values="0 0 0 0 0 0 0 0 0 0 0 0 0 0 0 0 0 0 0.25 0"/>
<feBlend mode="normal" in2="BackgroundImageFix" result="effect1_dropShadow_6_100"/>
<feBlend mode="normal" in="SourceGraphic" in2="effect1_dropShadow_6_100" result="shape"/>
</filter>
<clipPath id="clip0_6_100">
<rect width="1308" height="1629" fill="white"/>
</clipPath>
</defs>
</svg>
